G04 #@! TF.GenerationSoftware,KiCad,Pcbnew,7.0.6-0*
G04 #@! TF.CreationDate,2023-08-09T22:44:51+01:00*
G04 #@! TF.ProjectId,Klipper Fan Hat,4b6c6970-7065-4722-9046-616e20486174,V2*
G04 #@! TF.SameCoordinates,Original*
G04 #@! TF.FileFunction,Legend,Bot*
G04 #@! TF.FilePolarity,Positive*
%FSLAX46Y46*%
G04 Gerber Fmt 4.6, Leading zero omitted, Abs format (unit mm)*
G04 Created by KiCad (PCBNEW 7.0.6-0) date 2023-08-09 22:44:51*
%MOMM*%
%LPD*%
G01*
G04 APERTURE LIST*
%ADD10C,0.120000*%
%ADD11C,0.150000*%
G04 APERTURE END LIST*
D10*
X112000000Y-59614000D02*
X137000000Y-59614000D01*
X137000000Y-84614000D01*
X112000000Y-84614000D01*
X112000000Y-59614000D01*
D11*
X109614819Y-74092095D02*
X109614819Y-74663523D01*
X110614819Y-74377809D02*
X109614819Y-74377809D01*
X109614819Y-74901619D02*
X110614819Y-75568285D01*
X109614819Y-75568285D02*
X110614819Y-74901619D01*
X110614819Y-76973333D02*
X110138628Y-76640000D01*
X110614819Y-76401905D02*
X109614819Y-76401905D01*
X109614819Y-76401905D02*
X109614819Y-76782857D01*
X109614819Y-76782857D02*
X109662438Y-76878095D01*
X109662438Y-76878095D02*
X109710057Y-76925714D01*
X109710057Y-76925714D02*
X109805295Y-76973333D01*
X109805295Y-76973333D02*
X109948152Y-76973333D01*
X109948152Y-76973333D02*
X110043390Y-76925714D01*
X110043390Y-76925714D02*
X110091009Y-76878095D01*
X110091009Y-76878095D02*
X110138628Y-76782857D01*
X110138628Y-76782857D02*
X110138628Y-76401905D01*
X109614819Y-77306667D02*
X110614819Y-77973333D01*
X109614819Y-77973333D02*
X110614819Y-77306667D01*
X109662438Y-71298095D02*
X109614819Y-71202857D01*
X109614819Y-71202857D02*
X109614819Y-71060000D01*
X109614819Y-71060000D02*
X109662438Y-70917143D01*
X109662438Y-70917143D02*
X109757676Y-70821905D01*
X109757676Y-70821905D02*
X109852914Y-70774286D01*
X109852914Y-70774286D02*
X110043390Y-70726667D01*
X110043390Y-70726667D02*
X110186247Y-70726667D01*
X110186247Y-70726667D02*
X110376723Y-70774286D01*
X110376723Y-70774286D02*
X110471961Y-70821905D01*
X110471961Y-70821905D02*
X110567200Y-70917143D01*
X110567200Y-70917143D02*
X110614819Y-71060000D01*
X110614819Y-71060000D02*
X110614819Y-71155238D01*
X110614819Y-71155238D02*
X110567200Y-71298095D01*
X110567200Y-71298095D02*
X110519580Y-71345714D01*
X110519580Y-71345714D02*
X110186247Y-71345714D01*
X110186247Y-71345714D02*
X110186247Y-71155238D01*
X110614819Y-71774286D02*
X109614819Y-71774286D01*
X109614819Y-71774286D02*
X110614819Y-72345714D01*
X110614819Y-72345714D02*
X109614819Y-72345714D01*
X110614819Y-72821905D02*
X109614819Y-72821905D01*
X109614819Y-72821905D02*
X109614819Y-73060000D01*
X109614819Y-73060000D02*
X109662438Y-73202857D01*
X109662438Y-73202857D02*
X109757676Y-73298095D01*
X109757676Y-73298095D02*
X109852914Y-73345714D01*
X109852914Y-73345714D02*
X110043390Y-73393333D01*
X110043390Y-73393333D02*
X110186247Y-73393333D01*
X110186247Y-73393333D02*
X110376723Y-73345714D01*
X110376723Y-73345714D02*
X110471961Y-73298095D01*
X110471961Y-73298095D02*
X110567200Y-73202857D01*
X110567200Y-73202857D02*
X110614819Y-73060000D01*
X110614819Y-73060000D02*
X110614819Y-72821905D01*
X109537819Y-69062969D02*
X109537819Y-68586779D01*
X109537819Y-68586779D02*
X110014009Y-68539160D01*
X110014009Y-68539160D02*
X109966390Y-68586779D01*
X109966390Y-68586779D02*
X109918771Y-68682017D01*
X109918771Y-68682017D02*
X109918771Y-68920112D01*
X109918771Y-68920112D02*
X109966390Y-69015350D01*
X109966390Y-69015350D02*
X110014009Y-69062969D01*
X110014009Y-69062969D02*
X110109247Y-69110588D01*
X110109247Y-69110588D02*
X110347342Y-69110588D01*
X110347342Y-69110588D02*
X110442580Y-69062969D01*
X110442580Y-69062969D02*
X110490200Y-69015350D01*
X110490200Y-69015350D02*
X110537819Y-68920112D01*
X110537819Y-68920112D02*
X110537819Y-68682017D01*
X110537819Y-68682017D02*
X110490200Y-68586779D01*
X110490200Y-68586779D02*
X110442580Y-68539160D01*
X109537819Y-69396303D02*
X110537819Y-69729636D01*
X110537819Y-69729636D02*
X109537819Y-70062969D01*
X109537819Y-66776969D02*
X109537819Y-66300779D01*
X109537819Y-66300779D02*
X110014009Y-66253160D01*
X110014009Y-66253160D02*
X109966390Y-66300779D01*
X109966390Y-66300779D02*
X109918771Y-66396017D01*
X109918771Y-66396017D02*
X109918771Y-66634112D01*
X109918771Y-66634112D02*
X109966390Y-66729350D01*
X109966390Y-66729350D02*
X110014009Y-66776969D01*
X110014009Y-66776969D02*
X110109247Y-66824588D01*
X110109247Y-66824588D02*
X110347342Y-66824588D01*
X110347342Y-66824588D02*
X110442580Y-66776969D01*
X110442580Y-66776969D02*
X110490200Y-66729350D01*
X110490200Y-66729350D02*
X110537819Y-66634112D01*
X110537819Y-66634112D02*
X110537819Y-66396017D01*
X110537819Y-66396017D02*
X110490200Y-66300779D01*
X110490200Y-66300779D02*
X110442580Y-66253160D01*
X109537819Y-67110303D02*
X110537819Y-67443636D01*
X110537819Y-67443636D02*
X109537819Y-67776969D01*
X108703333Y-50724819D02*
X108703333Y-51439104D01*
X108703333Y-51439104D02*
X108750952Y-51581961D01*
X108750952Y-51581961D02*
X108846190Y-51677200D01*
X108846190Y-51677200D02*
X108989047Y-51724819D01*
X108989047Y-51724819D02*
X109084285Y-51724819D01*
X107798571Y-50724819D02*
X107989047Y-50724819D01*
X107989047Y-50724819D02*
X108084285Y-50772438D01*
X108084285Y-50772438D02*
X108131904Y-50820057D01*
X108131904Y-50820057D02*
X108227142Y-50962914D01*
X108227142Y-50962914D02*
X108274761Y-51153390D01*
X108274761Y-51153390D02*
X108274761Y-51534342D01*
X108274761Y-51534342D02*
X108227142Y-51629580D01*
X108227142Y-51629580D02*
X108179523Y-51677200D01*
X108179523Y-51677200D02*
X108084285Y-51724819D01*
X108084285Y-51724819D02*
X107893809Y-51724819D01*
X107893809Y-51724819D02*
X107798571Y-51677200D01*
X107798571Y-51677200D02*
X107750952Y-51629580D01*
X107750952Y-51629580D02*
X107703333Y-51534342D01*
X107703333Y-51534342D02*
X107703333Y-51296247D01*
X107703333Y-51296247D02*
X107750952Y-51201009D01*
X107750952Y-51201009D02*
X107798571Y-51153390D01*
X107798571Y-51153390D02*
X107893809Y-51105771D01*
X107893809Y-51105771D02*
X108084285Y-51105771D01*
X108084285Y-51105771D02*
X108179523Y-51153390D01*
X108179523Y-51153390D02*
X108227142Y-51201009D01*
X108227142Y-51201009D02*
X108274761Y-51296247D01*
X105540057Y-90506761D02*
X105492438Y-90411523D01*
X105492438Y-90411523D02*
X105397200Y-90316285D01*
X105397200Y-90316285D02*
X105254342Y-90173428D01*
X105254342Y-90173428D02*
X105206723Y-90078190D01*
X105206723Y-90078190D02*
X105206723Y-89982952D01*
X105444819Y-90030571D02*
X105397200Y-89935333D01*
X105397200Y-89935333D02*
X105301961Y-89840095D01*
X105301961Y-89840095D02*
X105111485Y-89792476D01*
X105111485Y-89792476D02*
X104778152Y-89792476D01*
X104778152Y-89792476D02*
X104587676Y-89840095D01*
X104587676Y-89840095D02*
X104492438Y-89935333D01*
X104492438Y-89935333D02*
X104444819Y-90030571D01*
X104444819Y-90030571D02*
X104444819Y-90221047D01*
X104444819Y-90221047D02*
X104492438Y-90316285D01*
X104492438Y-90316285D02*
X104587676Y-90411523D01*
X104587676Y-90411523D02*
X104778152Y-90459142D01*
X104778152Y-90459142D02*
X105111485Y-90459142D01*
X105111485Y-90459142D02*
X105301961Y-90411523D01*
X105301961Y-90411523D02*
X105397200Y-90316285D01*
X105397200Y-90316285D02*
X105444819Y-90221047D01*
X105444819Y-90221047D02*
X105444819Y-90030571D01*
X105444819Y-91411523D02*
X105444819Y-90840095D01*
X105444819Y-91125809D02*
X104444819Y-91125809D01*
X104444819Y-91125809D02*
X104587676Y-91030571D01*
X104587676Y-91030571D02*
X104682914Y-90935333D01*
X104682914Y-90935333D02*
X104730533Y-90840095D01*
X141060666Y-54014819D02*
X141393999Y-53538628D01*
X141632094Y-54014819D02*
X141632094Y-53014819D01*
X141632094Y-53014819D02*
X141251142Y-53014819D01*
X141251142Y-53014819D02*
X141155904Y-53062438D01*
X141155904Y-53062438D02*
X141108285Y-53110057D01*
X141108285Y-53110057D02*
X141060666Y-53205295D01*
X141060666Y-53205295D02*
X141060666Y-53348152D01*
X141060666Y-53348152D02*
X141108285Y-53443390D01*
X141108285Y-53443390D02*
X141155904Y-53491009D01*
X141155904Y-53491009D02*
X141251142Y-53538628D01*
X141251142Y-53538628D02*
X141632094Y-53538628D01*
X140108285Y-54014819D02*
X140679713Y-54014819D01*
X140393999Y-54014819D02*
X140393999Y-53014819D01*
X140393999Y-53014819D02*
X140489237Y-53157676D01*
X140489237Y-53157676D02*
X140584475Y-53252914D01*
X140584475Y-53252914D02*
X140679713Y-53300533D01*
X113408819Y-89736905D02*
X112408819Y-89736905D01*
X112408819Y-89736905D02*
X112408819Y-89975000D01*
X112408819Y-89975000D02*
X112456438Y-90117857D01*
X112456438Y-90117857D02*
X112551676Y-90213095D01*
X112551676Y-90213095D02*
X112646914Y-90260714D01*
X112646914Y-90260714D02*
X112837390Y-90308333D01*
X112837390Y-90308333D02*
X112980247Y-90308333D01*
X112980247Y-90308333D02*
X113170723Y-90260714D01*
X113170723Y-90260714D02*
X113265961Y-90213095D01*
X113265961Y-90213095D02*
X113361200Y-90117857D01*
X113361200Y-90117857D02*
X113408819Y-89975000D01*
X113408819Y-89975000D02*
X113408819Y-89736905D01*
X113408819Y-91260714D02*
X113408819Y-90689286D01*
X113408819Y-90975000D02*
X112408819Y-90975000D01*
X112408819Y-90975000D02*
X112551676Y-90879762D01*
X112551676Y-90879762D02*
X112646914Y-90784524D01*
X112646914Y-90784524D02*
X112694533Y-90689286D01*
X105849857Y-83182819D02*
X106183190Y-82706628D01*
X106421285Y-83182819D02*
X106421285Y-82182819D01*
X106421285Y-82182819D02*
X106040333Y-82182819D01*
X106040333Y-82182819D02*
X105945095Y-82230438D01*
X105945095Y-82230438D02*
X105897476Y-82278057D01*
X105897476Y-82278057D02*
X105849857Y-82373295D01*
X105849857Y-82373295D02*
X105849857Y-82516152D01*
X105849857Y-82516152D02*
X105897476Y-82611390D01*
X105897476Y-82611390D02*
X105945095Y-82659009D01*
X105945095Y-82659009D02*
X106040333Y-82706628D01*
X106040333Y-82706628D02*
X106421285Y-82706628D01*
X105468904Y-82278057D02*
X105421285Y-82230438D01*
X105421285Y-82230438D02*
X105326047Y-82182819D01*
X105326047Y-82182819D02*
X105087952Y-82182819D01*
X105087952Y-82182819D02*
X104992714Y-82230438D01*
X104992714Y-82230438D02*
X104945095Y-82278057D01*
X104945095Y-82278057D02*
X104897476Y-82373295D01*
X104897476Y-82373295D02*
X104897476Y-82468533D01*
X104897476Y-82468533D02*
X104945095Y-82611390D01*
X104945095Y-82611390D02*
X105516523Y-83182819D01*
X105516523Y-83182819D02*
X104897476Y-83182819D01*
X104516523Y-82278057D02*
X104468904Y-82230438D01*
X104468904Y-82230438D02*
X104373666Y-82182819D01*
X104373666Y-82182819D02*
X104135571Y-82182819D01*
X104135571Y-82182819D02*
X104040333Y-82230438D01*
X104040333Y-82230438D02*
X103992714Y-82278057D01*
X103992714Y-82278057D02*
X103945095Y-82373295D01*
X103945095Y-82373295D02*
X103945095Y-82468533D01*
X103945095Y-82468533D02*
X103992714Y-82611390D01*
X103992714Y-82611390D02*
X104564142Y-83182819D01*
X104564142Y-83182819D02*
X103945095Y-83182819D01*
X105804819Y-78918095D02*
X106614342Y-78918095D01*
X106614342Y-78918095D02*
X106709580Y-78965714D01*
X106709580Y-78965714D02*
X106757200Y-79013333D01*
X106757200Y-79013333D02*
X106804819Y-79108571D01*
X106804819Y-79108571D02*
X106804819Y-79299047D01*
X106804819Y-79299047D02*
X106757200Y-79394285D01*
X106757200Y-79394285D02*
X106709580Y-79441904D01*
X106709580Y-79441904D02*
X106614342Y-79489523D01*
X106614342Y-79489523D02*
X105804819Y-79489523D01*
X105900057Y-79918095D02*
X105852438Y-79965714D01*
X105852438Y-79965714D02*
X105804819Y-80060952D01*
X105804819Y-80060952D02*
X105804819Y-80299047D01*
X105804819Y-80299047D02*
X105852438Y-80394285D01*
X105852438Y-80394285D02*
X105900057Y-80441904D01*
X105900057Y-80441904D02*
X105995295Y-80489523D01*
X105995295Y-80489523D02*
X106090533Y-80489523D01*
X106090533Y-80489523D02*
X106233390Y-80441904D01*
X106233390Y-80441904D02*
X106804819Y-79870476D01*
X106804819Y-79870476D02*
X106804819Y-80489523D01*
X142491819Y-89736905D02*
X141491819Y-89736905D01*
X141491819Y-89736905D02*
X141491819Y-89975000D01*
X141491819Y-89975000D02*
X141539438Y-90117857D01*
X141539438Y-90117857D02*
X141634676Y-90213095D01*
X141634676Y-90213095D02*
X141729914Y-90260714D01*
X141729914Y-90260714D02*
X141920390Y-90308333D01*
X141920390Y-90308333D02*
X142063247Y-90308333D01*
X142063247Y-90308333D02*
X142253723Y-90260714D01*
X142253723Y-90260714D02*
X142348961Y-90213095D01*
X142348961Y-90213095D02*
X142444200Y-90117857D01*
X142444200Y-90117857D02*
X142491819Y-89975000D01*
X142491819Y-89975000D02*
X142491819Y-89736905D01*
X141825152Y-91165476D02*
X142491819Y-91165476D01*
X141444200Y-90927381D02*
X142158485Y-90689286D01*
X142158485Y-90689286D02*
X142158485Y-91308333D01*
X118530819Y-89832142D02*
X118054628Y-89498809D01*
X118530819Y-89260714D02*
X117530819Y-89260714D01*
X117530819Y-89260714D02*
X117530819Y-89641666D01*
X117530819Y-89641666D02*
X117578438Y-89736904D01*
X117578438Y-89736904D02*
X117626057Y-89784523D01*
X117626057Y-89784523D02*
X117721295Y-89832142D01*
X117721295Y-89832142D02*
X117864152Y-89832142D01*
X117864152Y-89832142D02*
X117959390Y-89784523D01*
X117959390Y-89784523D02*
X118007009Y-89736904D01*
X118007009Y-89736904D02*
X118054628Y-89641666D01*
X118054628Y-89641666D02*
X118054628Y-89260714D01*
X118530819Y-90784523D02*
X118530819Y-90213095D01*
X118530819Y-90498809D02*
X117530819Y-90498809D01*
X117530819Y-90498809D02*
X117673676Y-90403571D01*
X117673676Y-90403571D02*
X117768914Y-90308333D01*
X117768914Y-90308333D02*
X117816533Y-90213095D01*
X117959390Y-91355952D02*
X117911771Y-91260714D01*
X117911771Y-91260714D02*
X117864152Y-91213095D01*
X117864152Y-91213095D02*
X117768914Y-91165476D01*
X117768914Y-91165476D02*
X117721295Y-91165476D01*
X117721295Y-91165476D02*
X117626057Y-91213095D01*
X117626057Y-91213095D02*
X117578438Y-91260714D01*
X117578438Y-91260714D02*
X117530819Y-91355952D01*
X117530819Y-91355952D02*
X117530819Y-91546428D01*
X117530819Y-91546428D02*
X117578438Y-91641666D01*
X117578438Y-91641666D02*
X117626057Y-91689285D01*
X117626057Y-91689285D02*
X117721295Y-91736904D01*
X117721295Y-91736904D02*
X117768914Y-91736904D01*
X117768914Y-91736904D02*
X117864152Y-91689285D01*
X117864152Y-91689285D02*
X117911771Y-91641666D01*
X117911771Y-91641666D02*
X117959390Y-91546428D01*
X117959390Y-91546428D02*
X117959390Y-91355952D01*
X117959390Y-91355952D02*
X118007009Y-91260714D01*
X118007009Y-91260714D02*
X118054628Y-91213095D01*
X118054628Y-91213095D02*
X118149866Y-91165476D01*
X118149866Y-91165476D02*
X118340342Y-91165476D01*
X118340342Y-91165476D02*
X118435580Y-91213095D01*
X118435580Y-91213095D02*
X118483200Y-91260714D01*
X118483200Y-91260714D02*
X118530819Y-91355952D01*
X118530819Y-91355952D02*
X118530819Y-91546428D01*
X118530819Y-91546428D02*
X118483200Y-91641666D01*
X118483200Y-91641666D02*
X118435580Y-91689285D01*
X118435580Y-91689285D02*
X118340342Y-91736904D01*
X118340342Y-91736904D02*
X118149866Y-91736904D01*
X118149866Y-91736904D02*
X118054628Y-91689285D01*
X118054628Y-91689285D02*
X118007009Y-91641666D01*
X118007009Y-91641666D02*
X117959390Y-91546428D01*
X108878819Y-89832142D02*
X108402628Y-89498809D01*
X108878819Y-89260714D02*
X107878819Y-89260714D01*
X107878819Y-89260714D02*
X107878819Y-89641666D01*
X107878819Y-89641666D02*
X107926438Y-89736904D01*
X107926438Y-89736904D02*
X107974057Y-89784523D01*
X107974057Y-89784523D02*
X108069295Y-89832142D01*
X108069295Y-89832142D02*
X108212152Y-89832142D01*
X108212152Y-89832142D02*
X108307390Y-89784523D01*
X108307390Y-89784523D02*
X108355009Y-89736904D01*
X108355009Y-89736904D02*
X108402628Y-89641666D01*
X108402628Y-89641666D02*
X108402628Y-89260714D01*
X108878819Y-90784523D02*
X108878819Y-90213095D01*
X108878819Y-90498809D02*
X107878819Y-90498809D01*
X107878819Y-90498809D02*
X108021676Y-90403571D01*
X108021676Y-90403571D02*
X108116914Y-90308333D01*
X108116914Y-90308333D02*
X108164533Y-90213095D01*
X107878819Y-91117857D02*
X107878819Y-91784523D01*
X107878819Y-91784523D02*
X108878819Y-91355952D01*
X125820666Y-54014819D02*
X126153999Y-53538628D01*
X126392094Y-54014819D02*
X126392094Y-53014819D01*
X126392094Y-53014819D02*
X126011142Y-53014819D01*
X126011142Y-53014819D02*
X125915904Y-53062438D01*
X125915904Y-53062438D02*
X125868285Y-53110057D01*
X125868285Y-53110057D02*
X125820666Y-53205295D01*
X125820666Y-53205295D02*
X125820666Y-53348152D01*
X125820666Y-53348152D02*
X125868285Y-53443390D01*
X125868285Y-53443390D02*
X125915904Y-53491009D01*
X125915904Y-53491009D02*
X126011142Y-53538628D01*
X126011142Y-53538628D02*
X126392094Y-53538628D01*
X124963523Y-53348152D02*
X124963523Y-54014819D01*
X125201618Y-52967200D02*
X125439713Y-53681485D01*
X125439713Y-53681485D02*
X124820666Y-53681485D01*
X123187819Y-89736905D02*
X122187819Y-89736905D01*
X122187819Y-89736905D02*
X122187819Y-89975000D01*
X122187819Y-89975000D02*
X122235438Y-90117857D01*
X122235438Y-90117857D02*
X122330676Y-90213095D01*
X122330676Y-90213095D02*
X122425914Y-90260714D01*
X122425914Y-90260714D02*
X122616390Y-90308333D01*
X122616390Y-90308333D02*
X122759247Y-90308333D01*
X122759247Y-90308333D02*
X122949723Y-90260714D01*
X122949723Y-90260714D02*
X123044961Y-90213095D01*
X123044961Y-90213095D02*
X123140200Y-90117857D01*
X123140200Y-90117857D02*
X123187819Y-89975000D01*
X123187819Y-89975000D02*
X123187819Y-89736905D01*
X122283057Y-90689286D02*
X122235438Y-90736905D01*
X122235438Y-90736905D02*
X122187819Y-90832143D01*
X122187819Y-90832143D02*
X122187819Y-91070238D01*
X122187819Y-91070238D02*
X122235438Y-91165476D01*
X122235438Y-91165476D02*
X122283057Y-91213095D01*
X122283057Y-91213095D02*
X122378295Y-91260714D01*
X122378295Y-91260714D02*
X122473533Y-91260714D01*
X122473533Y-91260714D02*
X122616390Y-91213095D01*
X122616390Y-91213095D02*
X123187819Y-90641667D01*
X123187819Y-90641667D02*
X123187819Y-91260714D01*
X127384057Y-95292761D02*
X127336438Y-95197523D01*
X127336438Y-95197523D02*
X127241200Y-95102285D01*
X127241200Y-95102285D02*
X127098342Y-94959428D01*
X127098342Y-94959428D02*
X127050723Y-94864190D01*
X127050723Y-94864190D02*
X127050723Y-94768952D01*
X127288819Y-94816571D02*
X127241200Y-94721333D01*
X127241200Y-94721333D02*
X127145961Y-94626095D01*
X127145961Y-94626095D02*
X126955485Y-94578476D01*
X126955485Y-94578476D02*
X126622152Y-94578476D01*
X126622152Y-94578476D02*
X126431676Y-94626095D01*
X126431676Y-94626095D02*
X126336438Y-94721333D01*
X126336438Y-94721333D02*
X126288819Y-94816571D01*
X126288819Y-94816571D02*
X126288819Y-95007047D01*
X126288819Y-95007047D02*
X126336438Y-95102285D01*
X126336438Y-95102285D02*
X126431676Y-95197523D01*
X126431676Y-95197523D02*
X126622152Y-95245142D01*
X126622152Y-95245142D02*
X126955485Y-95245142D01*
X126955485Y-95245142D02*
X127145961Y-95197523D01*
X127145961Y-95197523D02*
X127241200Y-95102285D01*
X127241200Y-95102285D02*
X127288819Y-95007047D01*
X127288819Y-95007047D02*
X127288819Y-94816571D01*
X126288819Y-95578476D02*
X126288819Y-96197523D01*
X126288819Y-96197523D02*
X126669771Y-95864190D01*
X126669771Y-95864190D02*
X126669771Y-96007047D01*
X126669771Y-96007047D02*
X126717390Y-96102285D01*
X126717390Y-96102285D02*
X126765009Y-96149904D01*
X126765009Y-96149904D02*
X126860247Y-96197523D01*
X126860247Y-96197523D02*
X127098342Y-96197523D01*
X127098342Y-96197523D02*
X127193580Y-96149904D01*
X127193580Y-96149904D02*
X127241200Y-96102285D01*
X127241200Y-96102285D02*
X127288819Y-96007047D01*
X127288819Y-96007047D02*
X127288819Y-95721333D01*
X127288819Y-95721333D02*
X127241200Y-95626095D01*
X127241200Y-95626095D02*
X127193580Y-95578476D01*
X145854857Y-71540819D02*
X146188190Y-71064628D01*
X146426285Y-71540819D02*
X146426285Y-70540819D01*
X146426285Y-70540819D02*
X146045333Y-70540819D01*
X146045333Y-70540819D02*
X145950095Y-70588438D01*
X145950095Y-70588438D02*
X145902476Y-70636057D01*
X145902476Y-70636057D02*
X145854857Y-70731295D01*
X145854857Y-70731295D02*
X145854857Y-70874152D01*
X145854857Y-70874152D02*
X145902476Y-70969390D01*
X145902476Y-70969390D02*
X145950095Y-71017009D01*
X145950095Y-71017009D02*
X146045333Y-71064628D01*
X146045333Y-71064628D02*
X146426285Y-71064628D01*
X144902476Y-71540819D02*
X145473904Y-71540819D01*
X145188190Y-71540819D02*
X145188190Y-70540819D01*
X145188190Y-70540819D02*
X145283428Y-70683676D01*
X145283428Y-70683676D02*
X145378666Y-70778914D01*
X145378666Y-70778914D02*
X145473904Y-70826533D01*
X144045333Y-70540819D02*
X144235809Y-70540819D01*
X144235809Y-70540819D02*
X144331047Y-70588438D01*
X144331047Y-70588438D02*
X144378666Y-70636057D01*
X144378666Y-70636057D02*
X144473904Y-70778914D01*
X144473904Y-70778914D02*
X144521523Y-70969390D01*
X144521523Y-70969390D02*
X144521523Y-71350342D01*
X144521523Y-71350342D02*
X144473904Y-71445580D01*
X144473904Y-71445580D02*
X144426285Y-71493200D01*
X144426285Y-71493200D02*
X144331047Y-71540819D01*
X144331047Y-71540819D02*
X144140571Y-71540819D01*
X144140571Y-71540819D02*
X144045333Y-71493200D01*
X144045333Y-71493200D02*
X143997714Y-71445580D01*
X143997714Y-71445580D02*
X143950095Y-71350342D01*
X143950095Y-71350342D02*
X143950095Y-71112247D01*
X143950095Y-71112247D02*
X143997714Y-71017009D01*
X143997714Y-71017009D02*
X144045333Y-70969390D01*
X144045333Y-70969390D02*
X144140571Y-70921771D01*
X144140571Y-70921771D02*
X144331047Y-70921771D01*
X144331047Y-70921771D02*
X144426285Y-70969390D01*
X144426285Y-70969390D02*
X144473904Y-71017009D01*
X144473904Y-71017009D02*
X144521523Y-71112247D01*
X105754666Y-55981580D02*
X105802285Y-56029200D01*
X105802285Y-56029200D02*
X105945142Y-56076819D01*
X105945142Y-56076819D02*
X106040380Y-56076819D01*
X106040380Y-56076819D02*
X106183237Y-56029200D01*
X106183237Y-56029200D02*
X106278475Y-55933961D01*
X106278475Y-55933961D02*
X106326094Y-55838723D01*
X106326094Y-55838723D02*
X106373713Y-55648247D01*
X106373713Y-55648247D02*
X106373713Y-55505390D01*
X106373713Y-55505390D02*
X106326094Y-55314914D01*
X106326094Y-55314914D02*
X106278475Y-55219676D01*
X106278475Y-55219676D02*
X106183237Y-55124438D01*
X106183237Y-55124438D02*
X106040380Y-55076819D01*
X106040380Y-55076819D02*
X105945142Y-55076819D01*
X105945142Y-55076819D02*
X105802285Y-55124438D01*
X105802285Y-55124438D02*
X105754666Y-55172057D01*
X104802285Y-56076819D02*
X105373713Y-56076819D01*
X105087999Y-56076819D02*
X105087999Y-55076819D01*
X105087999Y-55076819D02*
X105183237Y-55219676D01*
X105183237Y-55219676D02*
X105278475Y-55314914D01*
X105278475Y-55314914D02*
X105373713Y-55362533D01*
X141505094Y-63828019D02*
X141505094Y-62828019D01*
X141505094Y-62828019D02*
X141266999Y-62828019D01*
X141266999Y-62828019D02*
X141124142Y-62875638D01*
X141124142Y-62875638D02*
X141028904Y-62970876D01*
X141028904Y-62970876D02*
X140981285Y-63066114D01*
X140981285Y-63066114D02*
X140933666Y-63256590D01*
X140933666Y-63256590D02*
X140933666Y-63399447D01*
X140933666Y-63399447D02*
X140981285Y-63589923D01*
X140981285Y-63589923D02*
X141028904Y-63685161D01*
X141028904Y-63685161D02*
X141124142Y-63780400D01*
X141124142Y-63780400D02*
X141266999Y-63828019D01*
X141266999Y-63828019D02*
X141505094Y-63828019D01*
X140076523Y-62828019D02*
X140266999Y-62828019D01*
X140266999Y-62828019D02*
X140362237Y-62875638D01*
X140362237Y-62875638D02*
X140409856Y-62923257D01*
X140409856Y-62923257D02*
X140505094Y-63066114D01*
X140505094Y-63066114D02*
X140552713Y-63256590D01*
X140552713Y-63256590D02*
X140552713Y-63637542D01*
X140552713Y-63637542D02*
X140505094Y-63732780D01*
X140505094Y-63732780D02*
X140457475Y-63780400D01*
X140457475Y-63780400D02*
X140362237Y-63828019D01*
X140362237Y-63828019D02*
X140171761Y-63828019D01*
X140171761Y-63828019D02*
X140076523Y-63780400D01*
X140076523Y-63780400D02*
X140028904Y-63732780D01*
X140028904Y-63732780D02*
X139981285Y-63637542D01*
X139981285Y-63637542D02*
X139981285Y-63399447D01*
X139981285Y-63399447D02*
X140028904Y-63304209D01*
X140028904Y-63304209D02*
X140076523Y-63256590D01*
X140076523Y-63256590D02*
X140171761Y-63208971D01*
X140171761Y-63208971D02*
X140362237Y-63208971D01*
X140362237Y-63208971D02*
X140457475Y-63256590D01*
X140457475Y-63256590D02*
X140505094Y-63304209D01*
X140505094Y-63304209D02*
X140552713Y-63399447D01*
X147958057Y-77552761D02*
X147910438Y-77457523D01*
X147910438Y-77457523D02*
X147815200Y-77362285D01*
X147815200Y-77362285D02*
X147672342Y-77219428D01*
X147672342Y-77219428D02*
X147624723Y-77124190D01*
X147624723Y-77124190D02*
X147624723Y-77028952D01*
X147862819Y-77076571D02*
X147815200Y-76981333D01*
X147815200Y-76981333D02*
X147719961Y-76886095D01*
X147719961Y-76886095D02*
X147529485Y-76838476D01*
X147529485Y-76838476D02*
X147196152Y-76838476D01*
X147196152Y-76838476D02*
X147005676Y-76886095D01*
X147005676Y-76886095D02*
X146910438Y-76981333D01*
X146910438Y-76981333D02*
X146862819Y-77076571D01*
X146862819Y-77076571D02*
X146862819Y-77267047D01*
X146862819Y-77267047D02*
X146910438Y-77362285D01*
X146910438Y-77362285D02*
X147005676Y-77457523D01*
X147005676Y-77457523D02*
X147196152Y-77505142D01*
X147196152Y-77505142D02*
X147529485Y-77505142D01*
X147529485Y-77505142D02*
X147719961Y-77457523D01*
X147719961Y-77457523D02*
X147815200Y-77362285D01*
X147815200Y-77362285D02*
X147862819Y-77267047D01*
X147862819Y-77267047D02*
X147862819Y-77076571D01*
X146862819Y-78409904D02*
X146862819Y-77933714D01*
X146862819Y-77933714D02*
X147339009Y-77886095D01*
X147339009Y-77886095D02*
X147291390Y-77933714D01*
X147291390Y-77933714D02*
X147243771Y-78028952D01*
X147243771Y-78028952D02*
X147243771Y-78267047D01*
X147243771Y-78267047D02*
X147291390Y-78362285D01*
X147291390Y-78362285D02*
X147339009Y-78409904D01*
X147339009Y-78409904D02*
X147434247Y-78457523D01*
X147434247Y-78457523D02*
X147672342Y-78457523D01*
X147672342Y-78457523D02*
X147767580Y-78409904D01*
X147767580Y-78409904D02*
X147815200Y-78362285D01*
X147815200Y-78362285D02*
X147862819Y-78267047D01*
X147862819Y-78267047D02*
X147862819Y-78028952D01*
X147862819Y-78028952D02*
X147815200Y-77933714D01*
X147815200Y-77933714D02*
X147767580Y-77886095D01*
X137834819Y-89832142D02*
X137358628Y-89498809D01*
X137834819Y-89260714D02*
X136834819Y-89260714D01*
X136834819Y-89260714D02*
X136834819Y-89641666D01*
X136834819Y-89641666D02*
X136882438Y-89736904D01*
X136882438Y-89736904D02*
X136930057Y-89784523D01*
X136930057Y-89784523D02*
X137025295Y-89832142D01*
X137025295Y-89832142D02*
X137168152Y-89832142D01*
X137168152Y-89832142D02*
X137263390Y-89784523D01*
X137263390Y-89784523D02*
X137311009Y-89736904D01*
X137311009Y-89736904D02*
X137358628Y-89641666D01*
X137358628Y-89641666D02*
X137358628Y-89260714D01*
X136930057Y-90213095D02*
X136882438Y-90260714D01*
X136882438Y-90260714D02*
X136834819Y-90355952D01*
X136834819Y-90355952D02*
X136834819Y-90594047D01*
X136834819Y-90594047D02*
X136882438Y-90689285D01*
X136882438Y-90689285D02*
X136930057Y-90736904D01*
X136930057Y-90736904D02*
X137025295Y-90784523D01*
X137025295Y-90784523D02*
X137120533Y-90784523D01*
X137120533Y-90784523D02*
X137263390Y-90736904D01*
X137263390Y-90736904D02*
X137834819Y-90165476D01*
X137834819Y-90165476D02*
X137834819Y-90784523D01*
X136834819Y-91403571D02*
X136834819Y-91498809D01*
X136834819Y-91498809D02*
X136882438Y-91594047D01*
X136882438Y-91594047D02*
X136930057Y-91641666D01*
X136930057Y-91641666D02*
X137025295Y-91689285D01*
X137025295Y-91689285D02*
X137215771Y-91736904D01*
X137215771Y-91736904D02*
X137453866Y-91736904D01*
X137453866Y-91736904D02*
X137644342Y-91689285D01*
X137644342Y-91689285D02*
X137739580Y-91641666D01*
X137739580Y-91641666D02*
X137787200Y-91594047D01*
X137787200Y-91594047D02*
X137834819Y-91498809D01*
X137834819Y-91498809D02*
X137834819Y-91403571D01*
X137834819Y-91403571D02*
X137787200Y-91308333D01*
X137787200Y-91308333D02*
X137739580Y-91260714D01*
X137739580Y-91260714D02*
X137644342Y-91213095D01*
X137644342Y-91213095D02*
X137453866Y-91165476D01*
X137453866Y-91165476D02*
X137215771Y-91165476D01*
X137215771Y-91165476D02*
X137025295Y-91213095D01*
X137025295Y-91213095D02*
X136930057Y-91260714D01*
X136930057Y-91260714D02*
X136882438Y-91308333D01*
X136882438Y-91308333D02*
X136834819Y-91403571D01*
X137036057Y-95332761D02*
X136988438Y-95237523D01*
X136988438Y-95237523D02*
X136893200Y-95142285D01*
X136893200Y-95142285D02*
X136750342Y-94999428D01*
X136750342Y-94999428D02*
X136702723Y-94904190D01*
X136702723Y-94904190D02*
X136702723Y-94808952D01*
X136940819Y-94856571D02*
X136893200Y-94761333D01*
X136893200Y-94761333D02*
X136797961Y-94666095D01*
X136797961Y-94666095D02*
X136607485Y-94618476D01*
X136607485Y-94618476D02*
X136274152Y-94618476D01*
X136274152Y-94618476D02*
X136083676Y-94666095D01*
X136083676Y-94666095D02*
X135988438Y-94761333D01*
X135988438Y-94761333D02*
X135940819Y-94856571D01*
X135940819Y-94856571D02*
X135940819Y-95047047D01*
X135940819Y-95047047D02*
X135988438Y-95142285D01*
X135988438Y-95142285D02*
X136083676Y-95237523D01*
X136083676Y-95237523D02*
X136274152Y-95285142D01*
X136274152Y-95285142D02*
X136607485Y-95285142D01*
X136607485Y-95285142D02*
X136797961Y-95237523D01*
X136797961Y-95237523D02*
X136893200Y-95142285D01*
X136893200Y-95142285D02*
X136940819Y-95047047D01*
X136940819Y-95047047D02*
X136940819Y-94856571D01*
X136274152Y-96142285D02*
X136940819Y-96142285D01*
X135893200Y-95904190D02*
X136607485Y-95666095D01*
X136607485Y-95666095D02*
X136607485Y-96285142D01*
X117666057Y-95332761D02*
X117618438Y-95237523D01*
X117618438Y-95237523D02*
X117523200Y-95142285D01*
X117523200Y-95142285D02*
X117380342Y-94999428D01*
X117380342Y-94999428D02*
X117332723Y-94904190D01*
X117332723Y-94904190D02*
X117332723Y-94808952D01*
X117570819Y-94856571D02*
X117523200Y-94761333D01*
X117523200Y-94761333D02*
X117427961Y-94666095D01*
X117427961Y-94666095D02*
X117237485Y-94618476D01*
X117237485Y-94618476D02*
X116904152Y-94618476D01*
X116904152Y-94618476D02*
X116713676Y-94666095D01*
X116713676Y-94666095D02*
X116618438Y-94761333D01*
X116618438Y-94761333D02*
X116570819Y-94856571D01*
X116570819Y-94856571D02*
X116570819Y-95047047D01*
X116570819Y-95047047D02*
X116618438Y-95142285D01*
X116618438Y-95142285D02*
X116713676Y-95237523D01*
X116713676Y-95237523D02*
X116904152Y-95285142D01*
X116904152Y-95285142D02*
X117237485Y-95285142D01*
X117237485Y-95285142D02*
X117427961Y-95237523D01*
X117427961Y-95237523D02*
X117523200Y-95142285D01*
X117523200Y-95142285D02*
X117570819Y-95047047D01*
X117570819Y-95047047D02*
X117570819Y-94856571D01*
X116666057Y-95666095D02*
X116618438Y-95713714D01*
X116618438Y-95713714D02*
X116570819Y-95808952D01*
X116570819Y-95808952D02*
X116570819Y-96047047D01*
X116570819Y-96047047D02*
X116618438Y-96142285D01*
X116618438Y-96142285D02*
X116666057Y-96189904D01*
X116666057Y-96189904D02*
X116761295Y-96237523D01*
X116761295Y-96237523D02*
X116856533Y-96237523D01*
X116856533Y-96237523D02*
X116999390Y-96189904D01*
X116999390Y-96189904D02*
X117570819Y-95618476D01*
X117570819Y-95618476D02*
X117570819Y-96237523D01*
X128182819Y-89832142D02*
X127706628Y-89498809D01*
X128182819Y-89260714D02*
X127182819Y-89260714D01*
X127182819Y-89260714D02*
X127182819Y-89641666D01*
X127182819Y-89641666D02*
X127230438Y-89736904D01*
X127230438Y-89736904D02*
X127278057Y-89784523D01*
X127278057Y-89784523D02*
X127373295Y-89832142D01*
X127373295Y-89832142D02*
X127516152Y-89832142D01*
X127516152Y-89832142D02*
X127611390Y-89784523D01*
X127611390Y-89784523D02*
X127659009Y-89736904D01*
X127659009Y-89736904D02*
X127706628Y-89641666D01*
X127706628Y-89641666D02*
X127706628Y-89260714D01*
X128182819Y-90784523D02*
X128182819Y-90213095D01*
X128182819Y-90498809D02*
X127182819Y-90498809D01*
X127182819Y-90498809D02*
X127325676Y-90403571D01*
X127325676Y-90403571D02*
X127420914Y-90308333D01*
X127420914Y-90308333D02*
X127468533Y-90213095D01*
X128182819Y-91260714D02*
X128182819Y-91451190D01*
X128182819Y-91451190D02*
X128135200Y-91546428D01*
X128135200Y-91546428D02*
X128087580Y-91594047D01*
X128087580Y-91594047D02*
X127944723Y-91689285D01*
X127944723Y-91689285D02*
X127754247Y-91736904D01*
X127754247Y-91736904D02*
X127373295Y-91736904D01*
X127373295Y-91736904D02*
X127278057Y-91689285D01*
X127278057Y-91689285D02*
X127230438Y-91641666D01*
X127230438Y-91641666D02*
X127182819Y-91546428D01*
X127182819Y-91546428D02*
X127182819Y-91355952D01*
X127182819Y-91355952D02*
X127230438Y-91260714D01*
X127230438Y-91260714D02*
X127278057Y-91213095D01*
X127278057Y-91213095D02*
X127373295Y-91165476D01*
X127373295Y-91165476D02*
X127611390Y-91165476D01*
X127611390Y-91165476D02*
X127706628Y-91213095D01*
X127706628Y-91213095D02*
X127754247Y-91260714D01*
X127754247Y-91260714D02*
X127801866Y-91355952D01*
X127801866Y-91355952D02*
X127801866Y-91546428D01*
X127801866Y-91546428D02*
X127754247Y-91641666D01*
X127754247Y-91641666D02*
X127706628Y-91689285D01*
X127706628Y-91689285D02*
X127611390Y-91736904D01*
X145854857Y-75350819D02*
X146188190Y-74874628D01*
X146426285Y-75350819D02*
X146426285Y-74350819D01*
X146426285Y-74350819D02*
X146045333Y-74350819D01*
X146045333Y-74350819D02*
X145950095Y-74398438D01*
X145950095Y-74398438D02*
X145902476Y-74446057D01*
X145902476Y-74446057D02*
X145854857Y-74541295D01*
X145854857Y-74541295D02*
X145854857Y-74684152D01*
X145854857Y-74684152D02*
X145902476Y-74779390D01*
X145902476Y-74779390D02*
X145950095Y-74827009D01*
X145950095Y-74827009D02*
X146045333Y-74874628D01*
X146045333Y-74874628D02*
X146426285Y-74874628D01*
X144902476Y-75350819D02*
X145473904Y-75350819D01*
X145188190Y-75350819D02*
X145188190Y-74350819D01*
X145188190Y-74350819D02*
X145283428Y-74493676D01*
X145283428Y-74493676D02*
X145378666Y-74588914D01*
X145378666Y-74588914D02*
X145473904Y-74636533D01*
X143997714Y-74350819D02*
X144473904Y-74350819D01*
X144473904Y-74350819D02*
X144521523Y-74827009D01*
X144521523Y-74827009D02*
X144473904Y-74779390D01*
X144473904Y-74779390D02*
X144378666Y-74731771D01*
X144378666Y-74731771D02*
X144140571Y-74731771D01*
X144140571Y-74731771D02*
X144045333Y-74779390D01*
X144045333Y-74779390D02*
X143997714Y-74827009D01*
X143997714Y-74827009D02*
X143950095Y-74922247D01*
X143950095Y-74922247D02*
X143950095Y-75160342D01*
X143950095Y-75160342D02*
X143997714Y-75255580D01*
X143997714Y-75255580D02*
X144045333Y-75303200D01*
X144045333Y-75303200D02*
X144140571Y-75350819D01*
X144140571Y-75350819D02*
X144378666Y-75350819D01*
X144378666Y-75350819D02*
X144473904Y-75303200D01*
X144473904Y-75303200D02*
X144521523Y-75255580D01*
X141505094Y-68196819D02*
X141505094Y-67196819D01*
X141505094Y-67196819D02*
X141266999Y-67196819D01*
X141266999Y-67196819D02*
X141124142Y-67244438D01*
X141124142Y-67244438D02*
X141028904Y-67339676D01*
X141028904Y-67339676D02*
X140981285Y-67434914D01*
X140981285Y-67434914D02*
X140933666Y-67625390D01*
X140933666Y-67625390D02*
X140933666Y-67768247D01*
X140933666Y-67768247D02*
X140981285Y-67958723D01*
X140981285Y-67958723D02*
X141028904Y-68053961D01*
X141028904Y-68053961D02*
X141124142Y-68149200D01*
X141124142Y-68149200D02*
X141266999Y-68196819D01*
X141266999Y-68196819D02*
X141505094Y-68196819D01*
X140028904Y-67196819D02*
X140505094Y-67196819D01*
X140505094Y-67196819D02*
X140552713Y-67673009D01*
X140552713Y-67673009D02*
X140505094Y-67625390D01*
X140505094Y-67625390D02*
X140409856Y-67577771D01*
X140409856Y-67577771D02*
X140171761Y-67577771D01*
X140171761Y-67577771D02*
X140076523Y-67625390D01*
X140076523Y-67625390D02*
X140028904Y-67673009D01*
X140028904Y-67673009D02*
X139981285Y-67768247D01*
X139981285Y-67768247D02*
X139981285Y-68006342D01*
X139981285Y-68006342D02*
X140028904Y-68101580D01*
X140028904Y-68101580D02*
X140076523Y-68149200D01*
X140076523Y-68149200D02*
X140171761Y-68196819D01*
X140171761Y-68196819D02*
X140409856Y-68196819D01*
X140409856Y-68196819D02*
X140505094Y-68149200D01*
X140505094Y-68149200D02*
X140552713Y-68101580D01*
X103024094Y-83182819D02*
X103024094Y-82182819D01*
X103024094Y-82182819D02*
X102785999Y-82182819D01*
X102785999Y-82182819D02*
X102643142Y-82230438D01*
X102643142Y-82230438D02*
X102547904Y-82325676D01*
X102547904Y-82325676D02*
X102500285Y-82420914D01*
X102500285Y-82420914D02*
X102452666Y-82611390D01*
X102452666Y-82611390D02*
X102452666Y-82754247D01*
X102452666Y-82754247D02*
X102500285Y-82944723D01*
X102500285Y-82944723D02*
X102547904Y-83039961D01*
X102547904Y-83039961D02*
X102643142Y-83135200D01*
X102643142Y-83135200D02*
X102785999Y-83182819D01*
X102785999Y-83182819D02*
X103024094Y-83182819D01*
X102119332Y-82182819D02*
X101452666Y-82182819D01*
X101452666Y-82182819D02*
X101881237Y-83182819D01*
X141536857Y-57570819D02*
X141870190Y-57094628D01*
X142108285Y-57570819D02*
X142108285Y-56570819D01*
X142108285Y-56570819D02*
X141727333Y-56570819D01*
X141727333Y-56570819D02*
X141632095Y-56618438D01*
X141632095Y-56618438D02*
X141584476Y-56666057D01*
X141584476Y-56666057D02*
X141536857Y-56761295D01*
X141536857Y-56761295D02*
X141536857Y-56904152D01*
X141536857Y-56904152D02*
X141584476Y-56999390D01*
X141584476Y-56999390D02*
X141632095Y-57047009D01*
X141632095Y-57047009D02*
X141727333Y-57094628D01*
X141727333Y-57094628D02*
X142108285Y-57094628D01*
X141155904Y-56666057D02*
X141108285Y-56618438D01*
X141108285Y-56618438D02*
X141013047Y-56570819D01*
X141013047Y-56570819D02*
X140774952Y-56570819D01*
X140774952Y-56570819D02*
X140679714Y-56618438D01*
X140679714Y-56618438D02*
X140632095Y-56666057D01*
X140632095Y-56666057D02*
X140584476Y-56761295D01*
X140584476Y-56761295D02*
X140584476Y-56856533D01*
X140584476Y-56856533D02*
X140632095Y-56999390D01*
X140632095Y-56999390D02*
X141203523Y-57570819D01*
X141203523Y-57570819D02*
X140584476Y-57570819D01*
X139632095Y-57570819D02*
X140203523Y-57570819D01*
X139917809Y-57570819D02*
X139917809Y-56570819D01*
X139917809Y-56570819D02*
X140013047Y-56713676D01*
X140013047Y-56713676D02*
X140108285Y-56808914D01*
X140108285Y-56808914D02*
X140203523Y-56856533D01*
X130900666Y-53972819D02*
X131233999Y-53496628D01*
X131472094Y-53972819D02*
X131472094Y-52972819D01*
X131472094Y-52972819D02*
X131091142Y-52972819D01*
X131091142Y-52972819D02*
X130995904Y-53020438D01*
X130995904Y-53020438D02*
X130948285Y-53068057D01*
X130948285Y-53068057D02*
X130900666Y-53163295D01*
X130900666Y-53163295D02*
X130900666Y-53306152D01*
X130900666Y-53306152D02*
X130948285Y-53401390D01*
X130948285Y-53401390D02*
X130995904Y-53449009D01*
X130995904Y-53449009D02*
X131091142Y-53496628D01*
X131091142Y-53496628D02*
X131472094Y-53496628D01*
X130567332Y-52972819D02*
X129948285Y-52972819D01*
X129948285Y-52972819D02*
X130281618Y-53353771D01*
X130281618Y-53353771D02*
X130138761Y-53353771D01*
X130138761Y-53353771D02*
X130043523Y-53401390D01*
X130043523Y-53401390D02*
X129995904Y-53449009D01*
X129995904Y-53449009D02*
X129948285Y-53544247D01*
X129948285Y-53544247D02*
X129948285Y-53782342D01*
X129948285Y-53782342D02*
X129995904Y-53877580D01*
X129995904Y-53877580D02*
X130043523Y-53925200D01*
X130043523Y-53925200D02*
X130138761Y-53972819D01*
X130138761Y-53972819D02*
X130424475Y-53972819D01*
X130424475Y-53972819D02*
X130519713Y-53925200D01*
X130519713Y-53925200D02*
X130567332Y-53877580D01*
X135980666Y-54014819D02*
X136313999Y-53538628D01*
X136552094Y-54014819D02*
X136552094Y-53014819D01*
X136552094Y-53014819D02*
X136171142Y-53014819D01*
X136171142Y-53014819D02*
X136075904Y-53062438D01*
X136075904Y-53062438D02*
X136028285Y-53110057D01*
X136028285Y-53110057D02*
X135980666Y-53205295D01*
X135980666Y-53205295D02*
X135980666Y-53348152D01*
X135980666Y-53348152D02*
X136028285Y-53443390D01*
X136028285Y-53443390D02*
X136075904Y-53491009D01*
X136075904Y-53491009D02*
X136171142Y-53538628D01*
X136171142Y-53538628D02*
X136552094Y-53538628D01*
X135599713Y-53110057D02*
X135552094Y-53062438D01*
X135552094Y-53062438D02*
X135456856Y-53014819D01*
X135456856Y-53014819D02*
X135218761Y-53014819D01*
X135218761Y-53014819D02*
X135123523Y-53062438D01*
X135123523Y-53062438D02*
X135075904Y-53110057D01*
X135075904Y-53110057D02*
X135028285Y-53205295D01*
X135028285Y-53205295D02*
X135028285Y-53300533D01*
X135028285Y-53300533D02*
X135075904Y-53443390D01*
X135075904Y-53443390D02*
X135647332Y-54014819D01*
X135647332Y-54014819D02*
X135028285Y-54014819D01*
X132712819Y-89736905D02*
X131712819Y-89736905D01*
X131712819Y-89736905D02*
X131712819Y-89975000D01*
X131712819Y-89975000D02*
X131760438Y-90117857D01*
X131760438Y-90117857D02*
X131855676Y-90213095D01*
X131855676Y-90213095D02*
X131950914Y-90260714D01*
X131950914Y-90260714D02*
X132141390Y-90308333D01*
X132141390Y-90308333D02*
X132284247Y-90308333D01*
X132284247Y-90308333D02*
X132474723Y-90260714D01*
X132474723Y-90260714D02*
X132569961Y-90213095D01*
X132569961Y-90213095D02*
X132665200Y-90117857D01*
X132665200Y-90117857D02*
X132712819Y-89975000D01*
X132712819Y-89975000D02*
X132712819Y-89736905D01*
X131712819Y-90641667D02*
X131712819Y-91260714D01*
X131712819Y-91260714D02*
X132093771Y-90927381D01*
X132093771Y-90927381D02*
X132093771Y-91070238D01*
X132093771Y-91070238D02*
X132141390Y-91165476D01*
X132141390Y-91165476D02*
X132189009Y-91213095D01*
X132189009Y-91213095D02*
X132284247Y-91260714D01*
X132284247Y-91260714D02*
X132522342Y-91260714D01*
X132522342Y-91260714D02*
X132617580Y-91213095D01*
X132617580Y-91213095D02*
X132665200Y-91165476D01*
X132665200Y-91165476D02*
X132712819Y-91070238D01*
X132712819Y-91070238D02*
X132712819Y-90784524D01*
X132712819Y-90784524D02*
X132665200Y-90689286D01*
X132665200Y-90689286D02*
X132617580Y-90641667D01*
D10*
X157960000Y-44900000D02*
X157960000Y-50100000D01*
X107040000Y-44900000D02*
X157960000Y-44900000D01*
X107040000Y-44900000D02*
X107040000Y-47500000D01*
X109640000Y-47500000D02*
X109640000Y-50100000D01*
X107040000Y-47500000D02*
X109640000Y-47500000D01*
X107040000Y-48770000D02*
X107040000Y-50100000D01*
X109640000Y-50100000D02*
X157960000Y-50100000D01*
X107040000Y-50100000D02*
X108370000Y-50100000D01*
X104050000Y-89672000D02*
X104050000Y-92102000D01*
X100990000Y-89652000D02*
X100990000Y-91502000D01*
X102040000Y-89652000D02*
X100990000Y-89652000D01*
X104040000Y-89652000D02*
X103040000Y-89652000D01*
X140166936Y-50830000D02*
X141621064Y-50830000D01*
X140166936Y-52650000D02*
X141621064Y-52650000D01*
X109208000Y-92760000D02*
X109208000Y-88875000D01*
X112128000Y-92760000D02*
X109208000Y-92760000D01*
X112128000Y-88875000D02*
X112128000Y-92760000D01*
G36*
X155971708Y-84973784D02*
G01*
X156054667Y-84973977D01*
X156132037Y-84974452D01*
X156201491Y-84975173D01*
X156260704Y-84976104D01*
X156307350Y-84977207D01*
X156339102Y-84978448D01*
X156353634Y-84979790D01*
X156355427Y-84980269D01*
X156361948Y-84982405D01*
X156367649Y-84986182D01*
X156372967Y-84993360D01*
X156378339Y-85005695D01*
X156384203Y-85024946D01*
X156390995Y-85052870D01*
X156399153Y-85091225D01*
X156409114Y-85141769D01*
X156421315Y-85206260D01*
X156436193Y-85286456D01*
X156454186Y-85384115D01*
X156460122Y-85416207D01*
X156477978Y-85510537D01*
X156493128Y-85586695D01*
X156505769Y-85645564D01*
X156516095Y-85688024D01*
X156524305Y-85714959D01*
X156530594Y-85727250D01*
X156530658Y-85727311D01*
X156544091Y-85735086D01*
X156572981Y-85748646D01*
X156614542Y-85766877D01*
X156665987Y-85788663D01*
X156724531Y-85812889D01*
X156787386Y-85838441D01*
X156851767Y-85864202D01*
X156914887Y-85889059D01*
X156973960Y-85911895D01*
X157026199Y-85931597D01*
X157068818Y-85947048D01*
X157099030Y-85957134D01*
X157114050Y-85960740D01*
X157125686Y-85955787D01*
X157151680Y-85940870D01*
X157189903Y-85917227D01*
X157238409Y-85886107D01*
X157295254Y-85848759D01*
X157358491Y-85806432D01*
X157426175Y-85760375D01*
X157491123Y-85716167D01*
X157554589Y-85673661D01*
X157611744Y-85636083D01*
X157660644Y-85604683D01*
X157699343Y-85580707D01*
X157725895Y-85565407D01*
X157738354Y-85560029D01*
X157739543Y-85560208D01*
X157754724Y-85569596D01*
X157783045Y-85593147D01*
X157824360Y-85630724D01*
X157878524Y-85682195D01*
X157945394Y-85747423D01*
X158024825Y-85826276D01*
X158048033Y-85849512D01*
X158123128Y-85925362D01*
X158184142Y-85988173D01*
X158231267Y-86038150D01*
X158264692Y-86075497D01*
X158284608Y-86100420D01*
X158291204Y-86113123D01*
X158286937Y-86123596D01*
X158272671Y-86148793D01*
X158249598Y-86186292D01*
X158218984Y-86234123D01*
X158182090Y-86290314D01*
X158140182Y-86352893D01*
X158094523Y-86419891D01*
X158053811Y-86479577D01*
X158011429Y-86542756D01*
X157973925Y-86599771D01*
X157942563Y-86648650D01*
X157918606Y-86687421D01*
X157903317Y-86714112D01*
X157897958Y-86726752D01*
X157898927Y-86731907D01*
X157907227Y-86754045D01*
X157922644Y-86788040D01*
X157943506Y-86830311D01*
X157968143Y-86877275D01*
X157972955Y-86886240D01*
X157999312Y-86937413D01*
X158018771Y-86979004D01*
X158030277Y-87008620D01*
X158032776Y-87023870D01*
X158025017Y-87030240D01*
X158000828Y-87043304D01*
X157960004Y-87062760D01*
X157902283Y-87088725D01*
X157827401Y-87121314D01*
X157735095Y-87160644D01*
X157625100Y-87206830D01*
X157497153Y-87259990D01*
X157389541Y-87304511D01*
X157271148Y-87353481D01*
X157168691Y-87395824D01*
X157080993Y-87432007D01*
X157006877Y-87462497D01*
X156945163Y-87487762D01*
X156894675Y-87508267D01*
X156854234Y-87524480D01*
X156822662Y-87536867D01*
X156798781Y-87545895D01*
X156781414Y-87552032D01*
X156769381Y-87555744D01*
X156761506Y-87557498D01*
X156756610Y-87557760D01*
X156753516Y-87556998D01*
X156751045Y-87555678D01*
X156750376Y-87555229D01*
X156739215Y-87543275D01*
X156719780Y-87518932D01*
X156694617Y-87485485D01*
X156666267Y-87446216D01*
X156596457Y-87356552D01*
X156507958Y-87266186D01*
X156412862Y-87193470D01*
X156309963Y-87137645D01*
X156198055Y-87097948D01*
X156075933Y-87073620D01*
X155978933Y-87067152D01*
X155862148Y-87076062D01*
X155749018Y-87102383D01*
X155641242Y-87144946D01*
X155540517Y-87202580D01*
X155448541Y-87274116D01*
X155367010Y-87358384D01*
X155297623Y-87454214D01*
X155242077Y-87560437D01*
X155202069Y-87675881D01*
X155191633Y-87725231D01*
X155182282Y-87810406D01*
X155180863Y-87900813D01*
X155187378Y-87988822D01*
X155201833Y-88066801D01*
X155237125Y-88172610D01*
X155292647Y-88283545D01*
X155363448Y-88383625D01*
X155448289Y-88471590D01*
X155545931Y-88546177D01*
X155655134Y-88606125D01*
X155774659Y-88650170D01*
X155803624Y-88657919D01*
X155839668Y-88665224D01*
X155878061Y-88669631D01*
X155924523Y-88671739D01*
X155984778Y-88672145D01*
X156034377Y-88671413D01*
X156102079Y-88667323D01*
X156160818Y-88658346D01*
X156216907Y-88642999D01*
X156276657Y-88619803D01*
X156346379Y-88587275D01*
X156355286Y-88582884D01*
X156398993Y-88560220D01*
X156434148Y-88538924D01*
X156466167Y-88515029D01*
X156500461Y-88484568D01*
X156542446Y-88443572D01*
X156580351Y-88403721D01*
X156622207Y-88355864D01*
X156659846Y-88309133D01*
X156688192Y-88269590D01*
X156702083Y-88248634D01*
X156727287Y-88214309D01*
X156746242Y-88195006D01*
X156760529Y-88188963D01*
X156772304Y-88192349D01*
X156800496Y-88202619D01*
X156843149Y-88219033D01*
X156898453Y-88240841D01*
X156964598Y-88267296D01*
X157039775Y-88297649D01*
X157122175Y-88331152D01*
X157209988Y-88367057D01*
X157301405Y-88404615D01*
X157394616Y-88443078D01*
X157487812Y-88481697D01*
X157579183Y-88519725D01*
X157666920Y-88556413D01*
X157749214Y-88591013D01*
X157824255Y-88622777D01*
X157890233Y-88650955D01*
X157945339Y-88674801D01*
X157987765Y-88693565D01*
X158015699Y-88706499D01*
X158027333Y-88712855D01*
X158028808Y-88714431D01*
X158032396Y-88722027D01*
X158031648Y-88733754D01*
X158025559Y-88752219D01*
X158013124Y-88780026D01*
X157993341Y-88819783D01*
X157965204Y-88874095D01*
X157888416Y-89020998D01*
X157951618Y-89115619D01*
X157962184Y-89131368D01*
X157990826Y-89173716D01*
X158026787Y-89226557D01*
X158067507Y-89286147D01*
X158110431Y-89348739D01*
X158152999Y-89410587D01*
X158182101Y-89453222D01*
X158217311Y-89506099D01*
X158247347Y-89552693D01*
X158270687Y-89590580D01*
X158285809Y-89617338D01*
X158291190Y-89630544D01*
X158290849Y-89632069D01*
X158281296Y-89646495D01*
X158259965Y-89671977D01*
X158228658Y-89706714D01*
X158189179Y-89748903D01*
X158143332Y-89796745D01*
X158092919Y-89848436D01*
X158039746Y-89902177D01*
X157985614Y-89956165D01*
X157932328Y-90008600D01*
X157881691Y-90057679D01*
X157835507Y-90101602D01*
X157795578Y-90138567D01*
X157763710Y-90166772D01*
X157741704Y-90184418D01*
X157731366Y-90189701D01*
X157720671Y-90183345D01*
X157695658Y-90167115D01*
X157658311Y-90142319D01*
X157610535Y-90110236D01*
X157554234Y-90072145D01*
X157491312Y-90029324D01*
X157423674Y-89983053D01*
X157357381Y-89937865D01*
X157294284Y-89895402D01*
X157237702Y-89857875D01*
X157189544Y-89826525D01*
X157151718Y-89802595D01*
X157126133Y-89787326D01*
X157114696Y-89781960D01*
X157111180Y-89782563D01*
X157091119Y-89788852D01*
X157057011Y-89801105D01*
X157011546Y-89818238D01*
X156957414Y-89839169D01*
X156897306Y-89862815D01*
X156833912Y-89888092D01*
X156769922Y-89913918D01*
X156708026Y-89939208D01*
X156650915Y-89962881D01*
X156601280Y-89983852D01*
X156561810Y-90001039D01*
X156535196Y-90013359D01*
X156524129Y-90019727D01*
X156524017Y-90019888D01*
X156520079Y-90032731D01*
X156513146Y-90062493D01*
X156503669Y-90106969D01*
X156492095Y-90163952D01*
X156478873Y-90231236D01*
X156464452Y-90306616D01*
X156449279Y-90387886D01*
X156433527Y-90472392D01*
X156416646Y-90560242D01*
X156402438Y-90630587D01*
X156390684Y-90684422D01*
X156381163Y-90722742D01*
X156373658Y-90746542D01*
X156367947Y-90756816D01*
X156355012Y-90760117D01*
X156325045Y-90763069D01*
X156280837Y-90765509D01*
X156224985Y-90767440D01*
X156160090Y-90768866D01*
X156088748Y-90769788D01*
X156013559Y-90770210D01*
X155937122Y-90770135D01*
X155862035Y-90769566D01*
X155790896Y-90768506D01*
X155726305Y-90766957D01*
X155670859Y-90764922D01*
X155627158Y-90762405D01*
X155597799Y-90759409D01*
X155585383Y-90755936D01*
X155585036Y-90755398D01*
X155580445Y-90740834D01*
X155572885Y-90709507D01*
X155562813Y-90663609D01*
X155550688Y-90605330D01*
X155536965Y-90536864D01*
X155522102Y-90460403D01*
X155506558Y-90378137D01*
X155490853Y-90295219D01*
X155475316Y-90215991D01*
X155461068Y-90146163D01*
X155448530Y-90087706D01*
X155438127Y-90042588D01*
X155430281Y-90012778D01*
X155425414Y-90000246D01*
X155415579Y-89994209D01*
X155389755Y-89981342D01*
X155351097Y-89963309D01*
X155302394Y-89941310D01*
X155246432Y-89916540D01*
X155185999Y-89890199D01*
X155123883Y-89863484D01*
X155062871Y-89837592D01*
X155005750Y-89813722D01*
X154955309Y-89793072D01*
X154914334Y-89776838D01*
X154885613Y-89766220D01*
X154871933Y-89762414D01*
X154870802Y-89762649D01*
X154856156Y-89770178D01*
X154827694Y-89787418D01*
X154787263Y-89813165D01*
X154736711Y-89846213D01*
X154677884Y-89885358D01*
X154612632Y-89929394D01*
X154542800Y-89977116D01*
X154527864Y-89987374D01*
X154458971Y-90034407D01*
X154395155Y-90077521D01*
X154338246Y-90115509D01*
X154290075Y-90147168D01*
X154252470Y-90171293D01*
X154227260Y-90186679D01*
X154216277Y-90192122D01*
X154206385Y-90185510D01*
X154184683Y-90166717D01*
X154153009Y-90137566D01*
X154113198Y-90099878D01*
X154067084Y-90055475D01*
X154016503Y-90006176D01*
X153963288Y-89953806D01*
X153909275Y-89900184D01*
X153856299Y-89847132D01*
X153806193Y-89796472D01*
X153760794Y-89750025D01*
X153721935Y-89709613D01*
X153691452Y-89677056D01*
X153671179Y-89654178D01*
X153662951Y-89642798D01*
X153663841Y-89636710D01*
X153673311Y-89616458D01*
X153692888Y-89582709D01*
X153722858Y-89535009D01*
X153763511Y-89472902D01*
X153815135Y-89395933D01*
X153878017Y-89303649D01*
X153893697Y-89280741D01*
X153940965Y-89211253D01*
X153984203Y-89147061D01*
X154022231Y-89089959D01*
X154053866Y-89041745D01*
X154077925Y-89004215D01*
X154093228Y-88979166D01*
X154098591Y-88968395D01*
X154097314Y-88962196D01*
X154089607Y-88938992D01*
X154075959Y-88902409D01*
X154057565Y-88855316D01*
X154035617Y-88800583D01*
X154011310Y-88741076D01*
X153985837Y-88679666D01*
X153960391Y-88619219D01*
X153936165Y-88562606D01*
X153914355Y-88512694D01*
X153896152Y-88472352D01*
X153882751Y-88444449D01*
X153875345Y-88431852D01*
X153867766Y-88427622D01*
X153844783Y-88420118D01*
X153806450Y-88410423D01*
X153751978Y-88398363D01*
X153680575Y-88383766D01*
X153591449Y-88366458D01*
X153483809Y-88346267D01*
X153464207Y-88342627D01*
X153381862Y-88327077D01*
X153305803Y-88312311D01*
X153238187Y-88298777D01*
X153181174Y-88286919D01*
X153136921Y-88277186D01*
X153107588Y-88270024D01*
X153095332Y-88265879D01*
X153092000Y-88254404D01*
X153088975Y-88225751D01*
X153086430Y-88182637D01*
X153084368Y-88127662D01*
X153082792Y-88063424D01*
X153081705Y-87992521D01*
X153081110Y-87917554D01*
X153081009Y-87841119D01*
X153081406Y-87765817D01*
X153082304Y-87694246D01*
X153083706Y-87629004D01*
X153085615Y-87572690D01*
X153088035Y-87527903D01*
X153090968Y-87497242D01*
X153094417Y-87483305D01*
X153101006Y-87479127D01*
X153121477Y-87472075D01*
X153156257Y-87463080D01*
X153206345Y-87451925D01*
X153272742Y-87438388D01*
X153356447Y-87422251D01*
X153458461Y-87403293D01*
X153508417Y-87394124D01*
X153601259Y-87376990D01*
X153677353Y-87362742D01*
X153738393Y-87350998D01*
X153786072Y-87341378D01*
X153822086Y-87333499D01*
X153848128Y-87326979D01*
X153865892Y-87321437D01*
X153877073Y-87316491D01*
X153883364Y-87311760D01*
X153886461Y-87306861D01*
X153886690Y-87306298D01*
X153892436Y-87292265D01*
X153904491Y-87262894D01*
X153921855Y-87220616D01*
X153943530Y-87167861D01*
X153968519Y-87107058D01*
X153995824Y-87040637D01*
X154010516Y-87004813D01*
X154038723Y-86935248D01*
X154060206Y-86880708D01*
X154075661Y-86839155D01*
X154085786Y-86808554D01*
X154091276Y-86786870D01*
X154092829Y-86772066D01*
X154091142Y-86762107D01*
X154090972Y-86761683D01*
X154082773Y-86747256D01*
X154064814Y-86718846D01*
X154038386Y-86678397D01*
X154004782Y-86627855D01*
X153965295Y-86569165D01*
X153921217Y-86504271D01*
X153873840Y-86435119D01*
X153869440Y-86428722D01*
X153822623Y-86360381D01*
X153779448Y-86296883D01*
X153741164Y-86240097D01*
X153709018Y-86191895D01*
X153684259Y-86154147D01*
X153668136Y-86128724D01*
X153661897Y-86117497D01*
X153663683Y-86112661D01*
X153677590Y-86094138D01*
X153704627Y-86063246D01*
X153744142Y-86020680D01*
X153795487Y-85967136D01*
X153858010Y-85903308D01*
X153931061Y-85829891D01*
X153933481Y-85827475D01*
X154003245Y-85758005D01*
X154060679Y-85701283D01*
X154107088Y-85656129D01*
X154143776Y-85621362D01*
X154172047Y-85595803D01*
X154193205Y-85578270D01*
X154208554Y-85567585D01*
X154219399Y-85562565D01*
X154227043Y-85562033D01*
X154227359Y-85562108D01*
X154241259Y-85569142D01*
X154269161Y-85586006D01*
X154309128Y-85611434D01*
X154359223Y-85644161D01*
X154417507Y-85682923D01*
X154482044Y-85726454D01*
X154550896Y-85773490D01*
X154618307Y-85819476D01*
X154684392Y-85863821D01*
X154743439Y-85902681D01*
X154793655Y-85934907D01*
X154833250Y-85959349D01*
X154860430Y-85974859D01*
X154873405Y-85980287D01*
X154879818Y-85979096D01*
X154903702Y-85971333D01*
X154940958Y-85957384D01*
X154988732Y-85938468D01*
X155044171Y-85915807D01*
X155104422Y-85890619D01*
X155166633Y-85864125D01*
X155227949Y-85837544D01*
X155285518Y-85812097D01*
X155336486Y-85789003D01*
X155378001Y-85769483D01*
X155407209Y-85754756D01*
X155421257Y-85746042D01*
X155425293Y-85740275D01*
X155431676Y-85724645D01*
X155439263Y-85698797D01*
X155448392Y-85661219D01*
X155459402Y-85610403D01*
X155472631Y-85544839D01*
X155488418Y-85463017D01*
X155507102Y-85363429D01*
X155514173Y-85325507D01*
X155532122Y-85230825D01*
X155547276Y-85153682D01*
X155559922Y-85092786D01*
X155570347Y-85046847D01*
X155578839Y-85014574D01*
X155585685Y-84994677D01*
X155591172Y-84985866D01*
X155594753Y-84984082D01*
X155608932Y-84981031D01*
X155633762Y-84978585D01*
X155670725Y-84976698D01*
X155721302Y-84975321D01*
X155786976Y-84974408D01*
X155869229Y-84973911D01*
X155969544Y-84973783D01*
X155971708Y-84973784D01*
G37*
X104297000Y-86376064D02*
X104297000Y-84921936D01*
X106117000Y-86376064D02*
X106117000Y-84921936D01*
X111354000Y-80166000D02*
X111354000Y-83766000D01*
X111342478Y-80127522D02*
G75*
G03*
X106904000Y-81966000I-1838478J-1838478D01*
G01*
X106904000Y-81966000D02*
G75*
G03*
X111342478Y-83804478I2600000J0D01*
G01*
X138164000Y-92760000D02*
X138164000Y-88875000D01*
X141084000Y-92760000D02*
X138164000Y-92760000D01*
X141084000Y-88875000D02*
X141084000Y-92760000D01*
X115346000Y-91202064D02*
X115346000Y-89747936D01*
X117166000Y-91202064D02*
X117166000Y-89747936D01*
X105694000Y-91202064D02*
X105694000Y-89747936D01*
X107514000Y-91202064D02*
X107514000Y-89747936D01*
X124926936Y-50830000D02*
X126381064Y-50830000D01*
X124926936Y-52650000D02*
X126381064Y-52650000D01*
X118860000Y-92760000D02*
X118860000Y-88875000D01*
X121780000Y-92760000D02*
X118860000Y-92760000D01*
X121780000Y-88875000D02*
X121780000Y-92760000D01*
X125894000Y-94458000D02*
X125894000Y-96888000D01*
X122834000Y-94438000D02*
X122834000Y-96288000D01*
X123884000Y-94438000D02*
X122834000Y-94438000D01*
X125884000Y-94438000D02*
X124884000Y-94438000D01*
X144484936Y-68356000D02*
X145939064Y-68356000D01*
X144484936Y-70176000D02*
X145939064Y-70176000D01*
X104876748Y-52862000D02*
X106299252Y-52862000D01*
X104876748Y-54682000D02*
X106299252Y-54682000D01*
X138482000Y-59678000D02*
X142367000Y-59678000D01*
X138482000Y-62598000D02*
X138482000Y-59678000D01*
X142367000Y-62598000D02*
X138482000Y-62598000D01*
X146468000Y-76718000D02*
X146468000Y-79148000D01*
X143408000Y-76698000D02*
X143408000Y-78548000D01*
X144458000Y-76698000D02*
X143408000Y-76698000D01*
X146458000Y-76698000D02*
X145458000Y-76698000D01*
X134650000Y-91202064D02*
X134650000Y-89747936D01*
X136470000Y-91202064D02*
X136470000Y-89747936D01*
X135546000Y-94498000D02*
X135546000Y-96928000D01*
X132486000Y-94478000D02*
X132486000Y-96328000D01*
X133536000Y-94478000D02*
X132486000Y-94478000D01*
X135536000Y-94478000D02*
X134536000Y-94478000D01*
X116176000Y-94498000D02*
X116176000Y-96928000D01*
X113116000Y-94478000D02*
X113116000Y-96328000D01*
X114166000Y-94478000D02*
X113116000Y-94478000D01*
X116166000Y-94478000D02*
X115166000Y-94478000D01*
X124998000Y-91202064D02*
X124998000Y-89747936D01*
X126818000Y-91202064D02*
X126818000Y-89747936D01*
X144484936Y-72166000D02*
X145939064Y-72166000D01*
X144484936Y-73986000D02*
X145939064Y-73986000D01*
X138482000Y-63996000D02*
X142367000Y-63996000D01*
X138482000Y-66916000D02*
X138482000Y-63996000D01*
X142367000Y-66916000D02*
X138482000Y-66916000D01*
X100826000Y-87934000D02*
X100826000Y-84049000D01*
X103746000Y-87934000D02*
X100826000Y-87934000D01*
X103746000Y-84049000D02*
X103746000Y-87934000D01*
X140166936Y-54386000D02*
X141621064Y-54386000D01*
X140166936Y-56206000D02*
X141621064Y-56206000D01*
X130006936Y-50830000D02*
X131461064Y-50830000D01*
X130006936Y-52650000D02*
X131461064Y-52650000D01*
X135086936Y-50830000D02*
X136541064Y-50830000D01*
X135086936Y-52650000D02*
X136541064Y-52650000D01*
X128385000Y-92760000D02*
X128385000Y-88875000D01*
X131305000Y-92760000D02*
X128385000Y-92760000D01*
X131305000Y-88875000D02*
X131305000Y-92760000D01*
M02*
