G04 #@! TF.GenerationSoftware,KiCad,Pcbnew,7.0.6-0*
G04 #@! TF.CreationDate,2023-08-09T22:44:51+01:00*
G04 #@! TF.ProjectId,Klipper Fan Hat,4b6c6970-7065-4722-9046-616e20486174,V2*
G04 #@! TF.SameCoordinates,Original*
G04 #@! TF.FileFunction,Copper,L1,Top*
G04 #@! TF.FilePolarity,Positive*
%FSLAX46Y46*%
G04 Gerber Fmt 4.6, Leading zero omitted, Abs format (unit mm)*
G04 Created by KiCad (PCBNEW 7.0.6-0) date 2023-08-09 22:44:51*
%MOMM*%
%LPD*%
G01*
G04 APERTURE LIST*
G04 Aperture macros list*
%AMRoundRect*
0 Rectangle with rounded corners*
0 $1 Rounding radius*
0 $2 $3 $4 $5 $6 $7 $8 $9 X,Y pos of 4 corners*
0 Add a 4 corners polygon primitive as box body*
4,1,4,$2,$3,$4,$5,$6,$7,$8,$9,$2,$3,0*
0 Add four circle primitives for the rounded corners*
1,1,$1+$1,$2,$3*
1,1,$1+$1,$4,$5*
1,1,$1+$1,$6,$7*
1,1,$1+$1,$8,$9*
0 Add four rect primitives between the rounded corners*
20,1,$1+$1,$2,$3,$4,$5,0*
20,1,$1+$1,$4,$5,$6,$7,0*
20,1,$1+$1,$6,$7,$8,$9,0*
20,1,$1+$1,$8,$9,$2,$3,0*%
G04 Aperture macros list end*
G04 #@! TA.AperFunction,SMDPad,CuDef*
%ADD10RoundRect,0.250000X0.312500X0.625000X-0.312500X0.625000X-0.312500X-0.625000X0.312500X-0.625000X0*%
G04 #@! TD*
G04 #@! TA.AperFunction,ComponentPad*
%ADD11C,2.780000*%
G04 #@! TD*
G04 #@! TA.AperFunction,ComponentPad*
%ADD12RoundRect,0.250000X0.725000X-0.600000X0.725000X0.600000X-0.725000X0.600000X-0.725000X-0.600000X0*%
G04 #@! TD*
G04 #@! TA.AperFunction,ComponentPad*
%ADD13O,1.950000X1.700000*%
G04 #@! TD*
G04 #@! TA.AperFunction,ComponentPad*
%ADD14R,1.700000X1.700000*%
G04 #@! TD*
G04 #@! TA.AperFunction,ComponentPad*
%ADD15O,1.700000X1.700000*%
G04 #@! TD*
G04 #@! TA.AperFunction,ComponentPad*
%ADD16R,3.000000X3.000000*%
G04 #@! TD*
G04 #@! TA.AperFunction,ComponentPad*
%ADD17C,3.000000*%
G04 #@! TD*
G04 #@! TA.AperFunction,ComponentPad*
%ADD18RoundRect,0.250000X-0.600000X-0.725000X0.600000X-0.725000X0.600000X0.725000X-0.600000X0.725000X0*%
G04 #@! TD*
G04 #@! TA.AperFunction,ComponentPad*
%ADD19O,1.700000X1.950000*%
G04 #@! TD*
G04 #@! TA.AperFunction,ComponentPad*
%ADD20RoundRect,0.250000X-0.750000X0.600000X-0.750000X-0.600000X0.750000X-0.600000X0.750000X0.600000X0*%
G04 #@! TD*
G04 #@! TA.AperFunction,ComponentPad*
%ADD21O,2.000000X1.700000*%
G04 #@! TD*
G04 #@! TA.AperFunction,ComponentPad*
%ADD22RoundRect,0.250000X0.600000X0.750000X-0.600000X0.750000X-0.600000X-0.750000X0.600000X-0.750000X0*%
G04 #@! TD*
G04 #@! TA.AperFunction,ComponentPad*
%ADD23O,1.700000X2.000000*%
G04 #@! TD*
G04 #@! TA.AperFunction,ComponentPad*
%ADD24R,1.600000X1.600000*%
G04 #@! TD*
G04 #@! TA.AperFunction,ComponentPad*
%ADD25O,1.600000X1.600000*%
G04 #@! TD*
G04 #@! TA.AperFunction,ComponentPad*
%ADD26R,1.500000X1.050000*%
G04 #@! TD*
G04 #@! TA.AperFunction,ComponentPad*
%ADD27O,1.500000X1.050000*%
G04 #@! TD*
G04 #@! TA.AperFunction,ViaPad*
%ADD28C,0.900000*%
G04 #@! TD*
G04 #@! TA.AperFunction,Conductor*
%ADD29C,0.400000*%
G04 #@! TD*
G04 #@! TA.AperFunction,Conductor*
%ADD30C,0.200000*%
G04 #@! TD*
G04 #@! TA.AperFunction,Conductor*
%ADD31C,1.000000*%
G04 #@! TD*
G04 #@! TA.AperFunction,Conductor*
%ADD32C,0.800000*%
G04 #@! TD*
G04 #@! TA.AperFunction,Conductor*
%ADD33C,0.600000*%
G04 #@! TD*
G04 APERTURE END LIST*
D10*
X163184500Y-81712000D03*
X160259500Y-81712000D03*
D11*
X150800000Y-86186000D03*
X150800000Y-89586000D03*
X160720000Y-86186000D03*
X160720000Y-89586000D03*
D12*
X107857000Y-77060000D03*
D13*
X107857000Y-74560000D03*
X107857000Y-72060000D03*
X107857000Y-69560000D03*
X107857000Y-67060000D03*
D14*
X151054000Y-63678000D03*
D15*
X153594000Y-63678000D03*
X156134000Y-63678000D03*
D10*
X158612500Y-77902000D03*
X155687500Y-77902000D03*
D16*
X155372000Y-95936000D03*
D17*
X150292000Y-95936000D03*
D14*
X127432000Y-86792000D03*
D15*
X129972000Y-86792000D03*
X132512000Y-86792000D03*
D18*
X117780000Y-55042000D03*
D19*
X120280000Y-55042000D03*
X122780000Y-55042000D03*
X125280000Y-55042000D03*
D10*
X163184500Y-70282000D03*
X160259500Y-70282000D03*
X163184500Y-74092000D03*
X160259500Y-74092000D03*
D14*
X139116000Y-82982000D03*
D15*
X139116000Y-80442000D03*
X139116000Y-77902000D03*
D14*
X151054000Y-61138000D03*
D15*
X153594000Y-61138000D03*
X156134000Y-61138000D03*
D14*
X112700000Y-54026000D03*
D15*
X112700000Y-56566000D03*
D20*
X141148000Y-70576000D03*
D21*
X141148000Y-73076000D03*
D14*
X151054000Y-66218000D03*
D15*
X153594000Y-66218000D03*
X156134000Y-66218000D03*
D14*
X117780000Y-86792000D03*
D15*
X120320000Y-86792000D03*
X122860000Y-86792000D03*
D22*
X111918000Y-95445000D03*
D23*
X109418000Y-95445000D03*
D14*
X108143000Y-86792000D03*
D15*
X110683000Y-86792000D03*
X113223000Y-86792000D03*
D18*
X131242000Y-55042000D03*
D19*
X133742000Y-55042000D03*
X136242000Y-55042000D03*
D14*
X151054000Y-56058000D03*
D15*
X153594000Y-56058000D03*
X156134000Y-56058000D03*
D24*
X101788000Y-53782000D03*
D25*
X101788000Y-56322000D03*
X101788000Y-58862000D03*
X101788000Y-61402000D03*
X109408000Y-61402000D03*
X109408000Y-58862000D03*
X109408000Y-56322000D03*
X109408000Y-53782000D03*
D10*
X163184500Y-77902000D03*
X160259500Y-77902000D03*
D14*
X137084000Y-86792000D03*
D15*
X139624000Y-86792000D03*
X142164000Y-86792000D03*
D22*
X121570000Y-95445000D03*
D23*
X119070000Y-95445000D03*
D14*
X145974000Y-53645000D03*
D15*
X145974000Y-56185000D03*
X145974000Y-58725000D03*
X145974000Y-61265000D03*
X145974000Y-63805000D03*
X145974000Y-66345000D03*
D22*
X131222000Y-95445000D03*
D23*
X128722000Y-95445000D03*
D14*
X151054000Y-53518000D03*
D15*
X153594000Y-53518000D03*
X156134000Y-53518000D03*
D10*
X158612500Y-70282000D03*
X155687500Y-70282000D03*
X158612500Y-74092000D03*
X155687500Y-74092000D03*
X158612500Y-81712000D03*
X155687500Y-81712000D03*
D22*
X140874000Y-95445000D03*
D23*
X138374000Y-95445000D03*
D14*
X151054000Y-58598000D03*
D15*
X153594000Y-58598000D03*
X156134000Y-58598000D03*
D14*
X108370000Y-48770000D03*
D15*
X108370000Y-46230000D03*
X110910000Y-48770000D03*
X110910000Y-46230000D03*
X113450000Y-48770000D03*
X113450000Y-46230000D03*
X115990000Y-48770000D03*
X115990000Y-46230000D03*
X118530000Y-48770000D03*
X118530000Y-46230000D03*
X121070000Y-48770000D03*
X121070000Y-46230000D03*
X123610000Y-48770000D03*
X123610000Y-46230000D03*
X126150000Y-48770000D03*
X126150000Y-46230000D03*
X128690000Y-48770000D03*
X128690000Y-46230000D03*
X131230000Y-48770000D03*
X131230000Y-46230000D03*
X133770000Y-48770000D03*
X133770000Y-46230000D03*
X136310000Y-48770000D03*
X136310000Y-46230000D03*
X138850000Y-48770000D03*
X138850000Y-46230000D03*
X141390000Y-48770000D03*
X141390000Y-46230000D03*
X143930000Y-48770000D03*
X143930000Y-46230000D03*
X146470000Y-48770000D03*
X146470000Y-46230000D03*
X149010000Y-48770000D03*
X149010000Y-46230000D03*
X151550000Y-48770000D03*
X151550000Y-46230000D03*
X154090000Y-48770000D03*
X154090000Y-46230000D03*
X156630000Y-48770000D03*
X156630000Y-46230000D03*
D26*
X109504000Y-80696000D03*
D27*
X109504000Y-81966000D03*
X109504000Y-83236000D03*
D28*
X105207000Y-85649000D03*
X140894000Y-51740000D03*
X153340000Y-79680000D03*
X153340000Y-75870000D03*
X153340000Y-72060000D03*
X153340000Y-68250000D03*
D29*
X140140000Y-47480000D02*
X142680000Y-47480000D01*
X123610000Y-45027919D02*
X122956081Y-44374000D01*
X138850000Y-48770000D02*
X140140000Y-47480000D01*
X122956081Y-44374000D02*
X115306000Y-44374000D01*
X142680000Y-47480000D02*
X143930000Y-46230000D01*
X115306000Y-44374000D02*
X113450000Y-46230000D01*
X123610000Y-46230000D02*
X123610000Y-45027919D01*
D30*
X118664000Y-53426000D02*
X120280000Y-55042000D01*
X110910000Y-48770000D02*
X115566000Y-53426000D01*
X115566000Y-53426000D02*
X118664000Y-53426000D01*
X117706000Y-53026000D02*
X120764000Y-53026000D01*
X120764000Y-53026000D02*
X122780000Y-55042000D01*
X113450000Y-48770000D02*
X117706000Y-53026000D01*
X115990000Y-48770000D02*
X119846000Y-52626000D01*
X131326000Y-52626000D02*
X133742000Y-55042000D01*
X119846000Y-52626000D02*
X131326000Y-52626000D01*
X125272000Y-52120000D02*
X122352000Y-49200000D01*
X157404000Y-81712000D02*
X154610000Y-78918000D01*
D29*
X160259500Y-81712000D02*
X158612500Y-81712000D01*
D30*
X122352000Y-49200000D02*
X122352000Y-47512000D01*
X143275157Y-59460743D02*
X135934414Y-52120000D01*
X154610000Y-78918000D02*
X151308000Y-78918000D01*
X135934414Y-52120000D02*
X125272000Y-52120000D01*
X122352000Y-47512000D02*
X121070000Y-46230000D01*
X147523400Y-75133400D02*
X147523400Y-69520746D01*
X151308000Y-78918000D02*
X147523400Y-75133400D01*
X143275157Y-65272503D02*
X143275157Y-59460743D01*
X147523400Y-69520746D02*
X143275157Y-65272503D01*
X158612500Y-81712000D02*
X157404000Y-81712000D01*
X126150000Y-48770000D02*
X125000000Y-47620000D01*
X149547670Y-52011670D02*
X149547670Y-57091670D01*
X128702000Y-44280000D02*
X153766346Y-44280000D01*
X154124346Y-50362000D02*
X151197340Y-50362000D01*
X155240000Y-49246346D02*
X154567173Y-49919173D01*
X153766346Y-44280000D02*
X155240000Y-45753654D01*
X151197340Y-50362000D02*
X149547670Y-52011670D01*
X125000000Y-47620000D02*
X125000000Y-45282000D01*
X126002000Y-44280000D02*
X128702000Y-44280000D01*
X154567173Y-49919173D02*
X154124346Y-50362000D01*
X155240000Y-45753654D02*
X155240000Y-49246346D01*
X125000000Y-45282000D02*
X126002000Y-44280000D01*
X149547670Y-57091670D02*
X151054000Y-58598000D01*
X152700000Y-45753654D02*
X151626346Y-44680000D01*
X149123400Y-59207400D02*
X149123400Y-51870254D01*
X151054000Y-61138000D02*
X149123400Y-59207400D01*
X149123400Y-51870254D02*
X151031654Y-49962000D01*
X151031654Y-49962000D02*
X152070000Y-49962000D01*
X127700000Y-44680000D02*
X126150000Y-46230000D01*
X151626346Y-44680000D02*
X127700000Y-44680000D01*
X152700000Y-49332000D02*
X152700000Y-45753654D01*
X152070000Y-49962000D02*
X152700000Y-49332000D01*
X135160000Y-49246346D02*
X135833654Y-49920000D01*
X143159314Y-56185000D02*
X145974000Y-56185000D01*
X136894314Y-49920000D02*
X143159314Y-56185000D01*
X135833654Y-49920000D02*
X136894314Y-49920000D01*
X135160000Y-48293654D02*
X135160000Y-49246346D01*
X132380000Y-47620000D02*
X134486346Y-47620000D01*
X131230000Y-48770000D02*
X132380000Y-47620000D01*
X134486346Y-47620000D02*
X135160000Y-48293654D01*
X145974000Y-58725000D02*
X145085000Y-58725000D01*
X136680000Y-50320000D02*
X135320000Y-50320000D01*
X135320000Y-50320000D02*
X136728628Y-50320000D01*
X135320000Y-50320000D02*
X133770000Y-48770000D01*
X142291000Y-55931000D02*
X136680000Y-50320000D01*
X136728628Y-50320000D02*
X145133629Y-58725000D01*
X145085000Y-58725000D02*
X142291000Y-55931000D01*
X136310000Y-48770000D02*
X141185000Y-53645000D01*
X141185000Y-53645000D02*
X145974000Y-53645000D01*
X129840000Y-48327106D02*
X130607000Y-47560106D01*
X133293654Y-45080000D02*
X135160000Y-45080000D01*
X144675157Y-59966157D02*
X144675157Y-58880843D01*
X132512000Y-45861654D02*
X133293654Y-45080000D01*
X131750000Y-47549000D02*
X132512000Y-46787000D01*
X132512000Y-46787000D02*
X132512000Y-45861654D01*
X129840000Y-49212894D02*
X129840000Y-48327106D01*
X135160000Y-45080000D02*
X136310000Y-46230000D01*
X130607000Y-47549000D02*
X131750000Y-47549000D01*
X131347106Y-50720000D02*
X129840000Y-49212894D01*
X144675157Y-58880843D02*
X136514314Y-50720000D01*
X136514314Y-50720000D02*
X131347106Y-50720000D01*
X130607000Y-47560106D02*
X130607000Y-47549000D01*
X145974000Y-61265000D02*
X144675157Y-59966157D01*
X157402817Y-77902000D02*
X158612500Y-77902000D01*
X151377686Y-75120000D02*
X154620816Y-75120000D01*
X145320000Y-47380000D02*
X145320000Y-49358000D01*
X147923400Y-51961400D02*
X147923400Y-71665714D01*
X145320000Y-49358000D02*
X147923400Y-51961400D01*
D29*
X160259500Y-77902000D02*
X158612500Y-77902000D01*
D30*
X146470000Y-46230000D02*
X145320000Y-47380000D01*
X147923400Y-71665714D02*
X151377686Y-75120000D01*
X154620816Y-75120000D02*
X157402817Y-77902000D01*
X149010000Y-48770000D02*
X148723400Y-49056600D01*
X154609408Y-67488592D02*
X157402817Y-70282000D01*
X150024592Y-67488592D02*
X154609408Y-67488592D01*
X157402817Y-70282000D02*
X158612500Y-70282000D01*
X148723400Y-66187400D02*
X150024592Y-67488592D01*
D29*
X160259500Y-70282000D02*
X158612500Y-70282000D01*
D30*
X148723400Y-49056600D02*
X148723400Y-66187400D01*
X151162000Y-71310000D02*
X154620816Y-71310000D01*
X148323400Y-68471400D02*
X151162000Y-71310000D01*
D29*
X160259500Y-74092000D02*
X158612500Y-74092000D01*
D30*
X147752000Y-48401654D02*
X147752000Y-49200000D01*
X148533654Y-47620000D02*
X147752000Y-48401654D01*
X154620816Y-71310000D02*
X157402817Y-74092000D01*
X147752000Y-49200000D02*
X148323400Y-49771400D01*
X151550000Y-48770000D02*
X150400000Y-47620000D01*
X148323400Y-49771400D02*
X148323400Y-68471400D01*
X150400000Y-47620000D02*
X148533654Y-47620000D01*
X157402817Y-74092000D02*
X158612500Y-74092000D01*
X145080000Y-45993654D02*
X145080000Y-46736000D01*
X145080000Y-46736000D02*
X144196000Y-47620000D01*
X145993654Y-45080000D02*
X145080000Y-45993654D01*
X150400000Y-45080000D02*
X145993654Y-45080000D01*
X144196000Y-47620000D02*
X143453654Y-47620000D01*
X142672000Y-49962000D02*
X140894000Y-51740000D01*
X143453654Y-47620000D02*
X142672000Y-48401654D01*
X151550000Y-46230000D02*
X150400000Y-45080000D01*
X142672000Y-48401654D02*
X142672000Y-49962000D01*
D31*
X107167919Y-46230000D02*
X106820000Y-46577919D01*
X108370000Y-46230000D02*
X107167919Y-46230000D01*
X111353800Y-85242000D02*
X117780000Y-85242000D01*
X111353800Y-83581200D02*
X111353800Y-85242000D01*
X127432000Y-85242000D02*
X135534000Y-85242000D01*
X137642800Y-84455200D02*
X139116000Y-82982000D01*
X137642800Y-85242600D02*
X137642800Y-84455200D01*
X107857000Y-69560000D02*
X107857000Y-67060000D01*
X111353800Y-71323400D02*
X111353800Y-83581200D01*
X109693000Y-85242000D02*
X108143000Y-86792000D01*
X135534000Y-85242000D02*
X135534600Y-85242600D01*
X107857000Y-69560000D02*
X109590400Y-69560000D01*
X111353800Y-85242000D02*
X109693000Y-85242000D01*
X106820000Y-64148000D02*
X107857000Y-65185000D01*
X135534600Y-85242600D02*
X137084000Y-85242600D01*
X107857000Y-65185000D02*
X107857000Y-67060000D01*
X127432000Y-86792000D02*
X127432000Y-85242000D01*
D32*
X137084000Y-86792000D02*
X137084000Y-85242600D01*
D31*
X106820000Y-46577919D02*
X106820000Y-64148000D01*
X109590400Y-69560000D02*
X111353800Y-71323400D01*
X117780000Y-86792000D02*
X117780000Y-85242000D01*
X110910000Y-46230000D02*
X108370000Y-46230000D01*
X137084000Y-85242600D02*
X137642800Y-85242600D01*
X117780000Y-85242000D02*
X127432000Y-85242000D01*
D32*
X128690000Y-49052844D02*
X128690000Y-48770000D01*
D33*
X108370000Y-52693200D02*
X108370000Y-48770000D01*
D29*
X124892000Y-48284233D02*
X124892000Y-49279767D01*
D33*
X112700000Y-54026000D02*
X116764000Y-54026000D01*
D32*
X145974000Y-66345000D02*
X143975157Y-64346157D01*
D33*
X109408000Y-53782000D02*
X108483600Y-52857600D01*
D29*
X109620000Y-47520000D02*
X119007767Y-47520000D01*
X124087767Y-47480000D02*
X124892000Y-48284233D01*
X120552233Y-44980000D02*
X121587767Y-44980000D01*
X127440000Y-50020000D02*
X128690000Y-48770000D01*
X125632233Y-50020000D02*
X127440000Y-50020000D01*
X108370000Y-48770000D02*
X109620000Y-47520000D01*
D32*
X143975157Y-64346157D02*
X143975157Y-59170793D01*
D33*
X116764000Y-54026000D02*
X117780000Y-55042000D01*
D32*
X131057156Y-51420000D02*
X128690000Y-49052844D01*
D33*
X128690000Y-48770000D02*
X128690000Y-48911422D01*
D29*
X124892000Y-49279767D02*
X125632233Y-50020000D01*
X122320000Y-46747767D02*
X123052233Y-47480000D01*
X123052233Y-47480000D02*
X124087767Y-47480000D01*
X122320000Y-45712233D02*
X122320000Y-46747767D01*
D32*
X143975157Y-59170793D02*
X136224364Y-51420000D01*
D29*
X119780000Y-46747767D02*
X119780000Y-45752233D01*
D33*
X117780000Y-55042000D02*
X119255000Y-56517000D01*
X109652000Y-54026000D02*
X109408000Y-53782000D01*
D29*
X121587767Y-44980000D02*
X122320000Y-45712233D01*
X119007767Y-47520000D02*
X119780000Y-46747767D01*
D33*
X112700000Y-54026000D02*
X109652000Y-54026000D01*
D29*
X119780000Y-45752233D02*
X120552233Y-44980000D01*
D33*
X119255000Y-56517000D02*
X129767000Y-56517000D01*
X129767000Y-56517000D02*
X131242000Y-55042000D01*
X108483600Y-52806800D02*
X108370000Y-52693200D01*
D32*
X136224364Y-51420000D02*
X131057156Y-51420000D01*
D33*
X108483600Y-52857600D02*
X108483600Y-52806800D01*
D31*
X139116000Y-80442000D02*
X137566000Y-78892000D01*
X137566000Y-74158000D02*
X141148000Y-70576000D01*
X137566000Y-78892000D02*
X137566000Y-74158000D01*
D30*
X109408000Y-56322000D02*
X112456000Y-56322000D01*
X112456000Y-56322000D02*
X112700000Y-56566000D01*
X155372000Y-81712000D02*
X153340000Y-79680000D01*
X155687500Y-81712000D02*
X155372000Y-81712000D01*
X155372000Y-77902000D02*
X155687500Y-77902000D01*
X153340000Y-75870000D02*
X155372000Y-77902000D01*
X153340000Y-72060000D02*
X155372000Y-74092000D01*
X155372000Y-74092000D02*
X155687500Y-74092000D01*
X155372000Y-70282000D02*
X155687500Y-70282000D01*
X153340000Y-68250000D02*
X155372000Y-70282000D01*
G04 #@! TA.AperFunction,Conductor*
G36*
X138926568Y-85795685D02*
G01*
X138972323Y-85848489D01*
X138982267Y-85917647D01*
X138953242Y-85981203D01*
X138938194Y-85995853D01*
X138877590Y-86045589D01*
X138746317Y-86205547D01*
X138648769Y-86388043D01*
X138588699Y-86586067D01*
X138568417Y-86791999D01*
X138588699Y-86997932D01*
X138610867Y-87071010D01*
X138648768Y-87195954D01*
X138746315Y-87378450D01*
X138746317Y-87378452D01*
X138877589Y-87538410D01*
X138974209Y-87617702D01*
X139037550Y-87669685D01*
X139220046Y-87767232D01*
X139418066Y-87827300D01*
X139418065Y-87827300D01*
X139436529Y-87829118D01*
X139624000Y-87847583D01*
X139829934Y-87827300D01*
X140027954Y-87767232D01*
X140210450Y-87669685D01*
X140370410Y-87538410D01*
X140501685Y-87378450D01*
X140599232Y-87195954D01*
X140619406Y-87129446D01*
X140657702Y-87071010D01*
X140721514Y-87042553D01*
X140790581Y-87053112D01*
X140842975Y-87099336D01*
X140857841Y-87133349D01*
X140890567Y-87255486D01*
X140890570Y-87255492D01*
X140990399Y-87469578D01*
X141125894Y-87663082D01*
X141292917Y-87830105D01*
X141486421Y-87965600D01*
X141700507Y-88065429D01*
X141700516Y-88065433D01*
X141914000Y-88122634D01*
X141914000Y-87227501D01*
X142021685Y-87276680D01*
X142128237Y-87292000D01*
X142199763Y-87292000D01*
X142306315Y-87276680D01*
X142414000Y-87227501D01*
X142414000Y-88122633D01*
X142627483Y-88065433D01*
X142627492Y-88065429D01*
X142841578Y-87965600D01*
X143035082Y-87830105D01*
X143202105Y-87663082D01*
X143337600Y-87469578D01*
X143437429Y-87255492D01*
X143437432Y-87255486D01*
X143494636Y-87042000D01*
X142597686Y-87042000D01*
X142623493Y-87001844D01*
X142664000Y-86863889D01*
X142664000Y-86720111D01*
X142623493Y-86582156D01*
X142597686Y-86542000D01*
X143494636Y-86542000D01*
X143494635Y-86541999D01*
X143437432Y-86328513D01*
X143437429Y-86328507D01*
X143337601Y-86114424D01*
X143237261Y-85971124D01*
X143214934Y-85904918D01*
X143231944Y-85837150D01*
X143282892Y-85789337D01*
X143338836Y-85776000D01*
X143825500Y-85776000D01*
X143892539Y-85795685D01*
X143938294Y-85848489D01*
X143949500Y-85900000D01*
X143949500Y-95983592D01*
X143949500Y-96000000D01*
X143949500Y-96097343D01*
X143985274Y-96288714D01*
X143985275Y-96288716D01*
X144055600Y-96470248D01*
X144055604Y-96470257D01*
X144158090Y-96635778D01*
X144158092Y-96635780D01*
X144289248Y-96779652D01*
X144370076Y-96840690D01*
X144444614Y-96896979D01*
X144513452Y-96931256D01*
X144618879Y-96983753D01*
X144618883Y-96983754D01*
X144618890Y-96983758D01*
X144806144Y-97037037D01*
X144999999Y-97055000D01*
X145000000Y-97055000D01*
X145000001Y-97055000D01*
X145096928Y-97046018D01*
X145193856Y-97037037D01*
X145381110Y-96983758D01*
X145555386Y-96896979D01*
X145710749Y-96779654D01*
X145841908Y-96635780D01*
X145944397Y-96470254D01*
X146014726Y-96288714D01*
X146050500Y-96097343D01*
X146050500Y-96000000D01*
X146050500Y-95983592D01*
X146050500Y-95936004D01*
X148586732Y-95936004D01*
X148605777Y-96190154D01*
X148640300Y-96341410D01*
X148662492Y-96438637D01*
X148755607Y-96675888D01*
X148883041Y-96896612D01*
X149041950Y-97095877D01*
X149228783Y-97269232D01*
X149439366Y-97412805D01*
X149439371Y-97412807D01*
X149439372Y-97412808D01*
X149439373Y-97412809D01*
X149561328Y-97471538D01*
X149668992Y-97523387D01*
X149668993Y-97523387D01*
X149668996Y-97523389D01*
X149912542Y-97598513D01*
X150164565Y-97636500D01*
X150419435Y-97636500D01*
X150671458Y-97598513D01*
X150915004Y-97523389D01*
X151144634Y-97412805D01*
X151355217Y-97269232D01*
X151542050Y-97095877D01*
X151700959Y-96896612D01*
X151828393Y-96675888D01*
X151921508Y-96438637D01*
X151978222Y-96190157D01*
X151992550Y-95998956D01*
X151997268Y-95936004D01*
X151997268Y-95935995D01*
X151978222Y-95681845D01*
X151970179Y-95646608D01*
X151921508Y-95433363D01*
X151828393Y-95196112D01*
X151700959Y-94975388D01*
X151542050Y-94776123D01*
X151355217Y-94602768D01*
X151144634Y-94459195D01*
X151144630Y-94459193D01*
X151144627Y-94459191D01*
X151144626Y-94459190D01*
X150915006Y-94348612D01*
X150915008Y-94348612D01*
X150671466Y-94273489D01*
X150671462Y-94273488D01*
X150671458Y-94273487D01*
X150550231Y-94255214D01*
X150419440Y-94235500D01*
X150419435Y-94235500D01*
X150164565Y-94235500D01*
X150164559Y-94235500D01*
X150007609Y-94259157D01*
X149912542Y-94273487D01*
X149912538Y-94273488D01*
X149912539Y-94273488D01*
X149912533Y-94273489D01*
X149668992Y-94348612D01*
X149439373Y-94459190D01*
X149439372Y-94459191D01*
X149228782Y-94602768D01*
X149041952Y-94776121D01*
X149041950Y-94776123D01*
X148883041Y-94975388D01*
X148755608Y-95196109D01*
X148662492Y-95433362D01*
X148662490Y-95433369D01*
X148605777Y-95681845D01*
X148586732Y-95935995D01*
X148586732Y-95936004D01*
X146050500Y-95936004D01*
X146050500Y-85900000D01*
X146070185Y-85832961D01*
X146122989Y-85787206D01*
X146174500Y-85776000D01*
X148801533Y-85776000D01*
X148868572Y-85795685D01*
X148914327Y-85848489D01*
X148923435Y-85911825D01*
X148924775Y-85911921D01*
X148905172Y-86185998D01*
X148905172Y-86186001D01*
X148924459Y-86455663D01*
X148924460Y-86455670D01*
X148981924Y-86719830D01*
X149076404Y-86973141D01*
X149076406Y-86973145D01*
X149205965Y-87210415D01*
X149205966Y-87210416D01*
X149298465Y-87333980D01*
X150016982Y-86615462D01*
X150024992Y-86633451D01*
X150134958Y-86784806D01*
X150273990Y-86909991D01*
X150372618Y-86966934D01*
X149652018Y-87687533D01*
X149652019Y-87687534D01*
X149775574Y-87780029D01*
X149778150Y-87781684D01*
X149778823Y-87782460D01*
X149779124Y-87782686D01*
X149779074Y-87782751D01*
X149823906Y-87834487D01*
X149833850Y-87903645D01*
X149804826Y-87967201D01*
X149778158Y-87990312D01*
X149775570Y-87991975D01*
X149652019Y-88084464D01*
X149652018Y-88084465D01*
X150372619Y-88805065D01*
X150273990Y-88862009D01*
X150134958Y-88987194D01*
X150024992Y-89138549D01*
X150016983Y-89156536D01*
X149298465Y-88438018D01*
X149298464Y-88438019D01*
X149205970Y-88561576D01*
X149205965Y-88561584D01*
X149076406Y-88798854D01*
X149076404Y-88798858D01*
X148981924Y-89052169D01*
X148924460Y-89316329D01*
X148924459Y-89316336D01*
X148905172Y-89585998D01*
X148905172Y-89586001D01*
X148924459Y-89855663D01*
X148924460Y-89855670D01*
X148981924Y-90119830D01*
X149076404Y-90373141D01*
X149076406Y-90373145D01*
X149205965Y-90610415D01*
X149205966Y-90610416D01*
X149298465Y-90733980D01*
X150016983Y-90015462D01*
X150024992Y-90033451D01*
X150134958Y-90184806D01*
X150273990Y-90309991D01*
X150372618Y-90366934D01*
X149652018Y-91087533D01*
X149652019Y-91087534D01*
X149775575Y-91180029D01*
X150012854Y-91309593D01*
X150012858Y-91309595D01*
X150266169Y-91404075D01*
X150530329Y-91461539D01*
X150530336Y-91461540D01*
X150799999Y-91480828D01*
X150800001Y-91480828D01*
X151069663Y-91461540D01*
X151069670Y-91461539D01*
X151333830Y-91404075D01*
X151587141Y-91309595D01*
X151587145Y-91309593D01*
X151824424Y-91180029D01*
X151947980Y-91087534D01*
X151947980Y-91087533D01*
X151227381Y-90366934D01*
X151326010Y-90309991D01*
X151465042Y-90184806D01*
X151575008Y-90033451D01*
X151583016Y-90015463D01*
X152301533Y-90733980D01*
X152301534Y-90733980D01*
X152394029Y-90610424D01*
X152523593Y-90373145D01*
X152523595Y-90373141D01*
X152618075Y-90119830D01*
X152675539Y-89855670D01*
X152675540Y-89855663D01*
X152694828Y-89586001D01*
X152694828Y-89585998D01*
X152675540Y-89316336D01*
X152675539Y-89316329D01*
X152618075Y-89052169D01*
X152523595Y-88798858D01*
X152523593Y-88798854D01*
X152394029Y-88561575D01*
X152301534Y-88438019D01*
X152301533Y-88438018D01*
X151583016Y-89156535D01*
X151575008Y-89138549D01*
X151465042Y-88987194D01*
X151326010Y-88862009D01*
X151227380Y-88805065D01*
X151947980Y-88084465D01*
X151824414Y-87991964D01*
X151821849Y-87990316D01*
X151821178Y-87989542D01*
X151820875Y-87989315D01*
X151820924Y-87989249D01*
X151776093Y-87937513D01*
X151766149Y-87868355D01*
X151795173Y-87804799D01*
X151821856Y-87781679D01*
X151824433Y-87780022D01*
X151947980Y-87687534D01*
X151947980Y-87687533D01*
X151227381Y-86966934D01*
X151326010Y-86909991D01*
X151465042Y-86784806D01*
X151575008Y-86633451D01*
X151583016Y-86615463D01*
X152301533Y-87333980D01*
X152301534Y-87333980D01*
X152394029Y-87210424D01*
X152523593Y-86973145D01*
X152523595Y-86973141D01*
X152618075Y-86719830D01*
X152675539Y-86455670D01*
X152675540Y-86455663D01*
X152694828Y-86186001D01*
X152694828Y-86185998D01*
X152675225Y-85911921D01*
X152676564Y-85911825D01*
X152685675Y-85848484D01*
X152731431Y-85795682D01*
X152798467Y-85776000D01*
X153216000Y-85776000D01*
X153283039Y-85795685D01*
X153328794Y-85848489D01*
X153340000Y-85900000D01*
X153340000Y-99825500D01*
X153320315Y-99892539D01*
X153267511Y-99938294D01*
X153216000Y-99949500D01*
X106982000Y-99949500D01*
X106914961Y-99929815D01*
X106869206Y-99877011D01*
X106858000Y-99825500D01*
X106858000Y-95646608D01*
X108367500Y-95646608D01*
X108370971Y-95681845D01*
X108382699Y-95800932D01*
X108382700Y-95800934D01*
X108442768Y-95998954D01*
X108540315Y-96181450D01*
X108540317Y-96181452D01*
X108671589Y-96341410D01*
X108752584Y-96407880D01*
X108831550Y-96472685D01*
X109014046Y-96570232D01*
X109212066Y-96630300D01*
X109212065Y-96630300D01*
X109232348Y-96632297D01*
X109418000Y-96650583D01*
X109623934Y-96630300D01*
X109821954Y-96570232D01*
X110004450Y-96472685D01*
X110164410Y-96341410D01*
X110240028Y-96249269D01*
X110867500Y-96249269D01*
X110870353Y-96279699D01*
X110870353Y-96279701D01*
X110899627Y-96363358D01*
X110915207Y-96407882D01*
X110995850Y-96517150D01*
X111105118Y-96597793D01*
X111147845Y-96612744D01*
X111233299Y-96642646D01*
X111263730Y-96645500D01*
X111263734Y-96645500D01*
X112572270Y-96645500D01*
X112602699Y-96642646D01*
X112602701Y-96642646D01*
X112666790Y-96620219D01*
X112730882Y-96597793D01*
X112840150Y-96517150D01*
X112920793Y-96407882D01*
X112962493Y-96288711D01*
X112965646Y-96279701D01*
X112965646Y-96279699D01*
X112968500Y-96249269D01*
X112968500Y-95646608D01*
X118019500Y-95646608D01*
X118022971Y-95681845D01*
X118034699Y-95800932D01*
X118034700Y-95800934D01*
X118094768Y-95998954D01*
X118192315Y-96181450D01*
X118192317Y-96181452D01*
X118323589Y-96341410D01*
X118404584Y-96407880D01*
X118483550Y-96472685D01*
X118666046Y-96570232D01*
X118864066Y-96630300D01*
X118864065Y-96630300D01*
X118884347Y-96632297D01*
X119070000Y-96650583D01*
X119275934Y-96630300D01*
X119473954Y-96570232D01*
X119656450Y-96472685D01*
X119816410Y-96341410D01*
X119892028Y-96249269D01*
X120519500Y-96249269D01*
X120522353Y-96279699D01*
X120522353Y-96279701D01*
X120551627Y-96363358D01*
X120567207Y-96407882D01*
X120647850Y-96517150D01*
X120757118Y-96597793D01*
X120799845Y-96612744D01*
X120885299Y-96642646D01*
X120915730Y-96645500D01*
X120915734Y-96645500D01*
X122224270Y-96645500D01*
X122254699Y-96642646D01*
X122254701Y-96642646D01*
X122318790Y-96620219D01*
X122382882Y-96597793D01*
X122492150Y-96517150D01*
X122572793Y-96407882D01*
X122614493Y-96288711D01*
X122617646Y-96279701D01*
X122617646Y-96279699D01*
X122620500Y-96249269D01*
X122620500Y-95646608D01*
X127671500Y-95646608D01*
X127674971Y-95681845D01*
X127686699Y-95800932D01*
X127686700Y-95800934D01*
X127746768Y-95998954D01*
X127844315Y-96181450D01*
X127844317Y-96181452D01*
X127975589Y-96341410D01*
X128056584Y-96407880D01*
X128135550Y-96472685D01*
X128318046Y-96570232D01*
X128516066Y-96630300D01*
X128516065Y-96630300D01*
X128536347Y-96632297D01*
X128722000Y-96650583D01*
X128927934Y-96630300D01*
X129125954Y-96570232D01*
X129308450Y-96472685D01*
X129468410Y-96341410D01*
X129544028Y-96249269D01*
X130171500Y-96249269D01*
X130174353Y-96279699D01*
X130174353Y-96279701D01*
X130203627Y-96363358D01*
X130219207Y-96407882D01*
X130299850Y-96517150D01*
X130409118Y-96597793D01*
X130451845Y-96612744D01*
X130537299Y-96642646D01*
X130567730Y-96645500D01*
X130567734Y-96645500D01*
X131876270Y-96645500D01*
X131906699Y-96642646D01*
X131906701Y-96642646D01*
X131970790Y-96620219D01*
X132034882Y-96597793D01*
X132144150Y-96517150D01*
X132224793Y-96407882D01*
X132266493Y-96288711D01*
X132269646Y-96279701D01*
X132269646Y-96279699D01*
X132272500Y-96249269D01*
X132272500Y-95646608D01*
X137323500Y-95646608D01*
X137326971Y-95681845D01*
X137338699Y-95800932D01*
X137338700Y-95800934D01*
X137398768Y-95998954D01*
X137496315Y-96181450D01*
X137496317Y-96181452D01*
X137627589Y-96341410D01*
X137708584Y-96407880D01*
X137787550Y-96472685D01*
X137970046Y-96570232D01*
X138168066Y-96630300D01*
X138168065Y-96630300D01*
X138186529Y-96632118D01*
X138374000Y-96650583D01*
X138579934Y-96630300D01*
X138777954Y-96570232D01*
X138960450Y-96472685D01*
X139120410Y-96341410D01*
X139196028Y-96249269D01*
X139823500Y-96249269D01*
X139826353Y-96279699D01*
X139826353Y-96279701D01*
X139855627Y-96363358D01*
X139871207Y-96407882D01*
X139951850Y-96517150D01*
X140061118Y-96597793D01*
X140103845Y-96612744D01*
X140189299Y-96642646D01*
X140219730Y-96645500D01*
X140219734Y-96645500D01*
X141528270Y-96645500D01*
X141558699Y-96642646D01*
X141558701Y-96642646D01*
X141622790Y-96620219D01*
X141686882Y-96597793D01*
X141796150Y-96517150D01*
X141876793Y-96407882D01*
X141918493Y-96288711D01*
X141921646Y-96279701D01*
X141921646Y-96279699D01*
X141924500Y-96249269D01*
X141924500Y-94640730D01*
X141921646Y-94610300D01*
X141921646Y-94610298D01*
X141876793Y-94482119D01*
X141876792Y-94482117D01*
X141859871Y-94459190D01*
X141796150Y-94372850D01*
X141686882Y-94292207D01*
X141686880Y-94292206D01*
X141558700Y-94247353D01*
X141528270Y-94244500D01*
X141528266Y-94244500D01*
X140219734Y-94244500D01*
X140219730Y-94244500D01*
X140189300Y-94247353D01*
X140189298Y-94247353D01*
X140061119Y-94292206D01*
X140061117Y-94292207D01*
X139951850Y-94372850D01*
X139871207Y-94482117D01*
X139871206Y-94482119D01*
X139826353Y-94610298D01*
X139826353Y-94610300D01*
X139823500Y-94640730D01*
X139823500Y-96249269D01*
X139196028Y-96249269D01*
X139251685Y-96181450D01*
X139349232Y-95998954D01*
X139409300Y-95800934D01*
X139424500Y-95646608D01*
X139424500Y-95243392D01*
X139409300Y-95089066D01*
X139349232Y-94891046D01*
X139251685Y-94708550D01*
X139171052Y-94610298D01*
X139120410Y-94548589D01*
X138960452Y-94417317D01*
X138960453Y-94417317D01*
X138960450Y-94417315D01*
X138777954Y-94319768D01*
X138579934Y-94259700D01*
X138579932Y-94259699D01*
X138579934Y-94259699D01*
X138392463Y-94241235D01*
X138374000Y-94239417D01*
X138373999Y-94239417D01*
X138168067Y-94259699D01*
X137970043Y-94319769D01*
X137916083Y-94348612D01*
X137787550Y-94417315D01*
X137787548Y-94417316D01*
X137787547Y-94417317D01*
X137627589Y-94548589D01*
X137496317Y-94708547D01*
X137398769Y-94891043D01*
X137338699Y-95089067D01*
X137328157Y-95196109D01*
X137323500Y-95243392D01*
X137323500Y-95646608D01*
X132272500Y-95646608D01*
X132272500Y-94640730D01*
X132269646Y-94610300D01*
X132269646Y-94610298D01*
X132224793Y-94482119D01*
X132224792Y-94482117D01*
X132207871Y-94459190D01*
X132144150Y-94372850D01*
X132034882Y-94292207D01*
X132034880Y-94292206D01*
X131906700Y-94247353D01*
X131876270Y-94244500D01*
X131876266Y-94244500D01*
X130567734Y-94244500D01*
X130567730Y-94244500D01*
X130537300Y-94247353D01*
X130537298Y-94247353D01*
X130409119Y-94292206D01*
X130409117Y-94292207D01*
X130299850Y-94372850D01*
X130219207Y-94482117D01*
X130219206Y-94482119D01*
X130174353Y-94610298D01*
X130174353Y-94610300D01*
X130171500Y-94640730D01*
X130171500Y-96249269D01*
X129544028Y-96249269D01*
X129599685Y-96181450D01*
X129697232Y-95998954D01*
X129757300Y-95800934D01*
X129772500Y-95646608D01*
X129772500Y-95243392D01*
X129757300Y-95089066D01*
X129697232Y-94891046D01*
X129599685Y-94708550D01*
X129519052Y-94610298D01*
X129468410Y-94548589D01*
X129308452Y-94417317D01*
X129308453Y-94417317D01*
X129308450Y-94417315D01*
X129125954Y-94319768D01*
X128927934Y-94259700D01*
X128927932Y-94259699D01*
X128927934Y-94259699D01*
X128722000Y-94239417D01*
X128516067Y-94259699D01*
X128318043Y-94319769D01*
X128264083Y-94348612D01*
X128135550Y-94417315D01*
X128135548Y-94417316D01*
X128135547Y-94417317D01*
X127975589Y-94548589D01*
X127844317Y-94708547D01*
X127746769Y-94891043D01*
X127686699Y-95089067D01*
X127676157Y-95196109D01*
X127671500Y-95243392D01*
X127671500Y-95646608D01*
X122620500Y-95646608D01*
X122620500Y-94640730D01*
X122617646Y-94610300D01*
X122617646Y-94610298D01*
X122572793Y-94482119D01*
X122572792Y-94482117D01*
X122555871Y-94459190D01*
X122492150Y-94372850D01*
X122382882Y-94292207D01*
X122382880Y-94292206D01*
X122254700Y-94247353D01*
X122224270Y-94244500D01*
X122224266Y-94244500D01*
X120915734Y-94244500D01*
X120915730Y-94244500D01*
X120885300Y-94247353D01*
X120885298Y-94247353D01*
X120757119Y-94292206D01*
X120757117Y-94292207D01*
X120647850Y-94372850D01*
X120567207Y-94482117D01*
X120567206Y-94482119D01*
X120522353Y-94610298D01*
X120522353Y-94610300D01*
X120519500Y-94640730D01*
X120519500Y-96249269D01*
X119892028Y-96249269D01*
X119947685Y-96181450D01*
X120045232Y-95998954D01*
X120105300Y-95800934D01*
X120120500Y-95646608D01*
X120120500Y-95243392D01*
X120105300Y-95089066D01*
X120045232Y-94891046D01*
X119947685Y-94708550D01*
X119867052Y-94610298D01*
X119816410Y-94548589D01*
X119656452Y-94417317D01*
X119656453Y-94417317D01*
X119656450Y-94417315D01*
X119473954Y-94319768D01*
X119275934Y-94259700D01*
X119275932Y-94259699D01*
X119275934Y-94259699D01*
X119070000Y-94239417D01*
X118864067Y-94259699D01*
X118666043Y-94319769D01*
X118612083Y-94348612D01*
X118483550Y-94417315D01*
X118483548Y-94417316D01*
X118483547Y-94417317D01*
X118323589Y-94548589D01*
X118192317Y-94708547D01*
X118094769Y-94891043D01*
X118034699Y-95089067D01*
X118024157Y-95196109D01*
X118019500Y-95243392D01*
X118019500Y-95646608D01*
X112968500Y-95646608D01*
X112968500Y-94640730D01*
X112965646Y-94610300D01*
X112965646Y-94610298D01*
X112920793Y-94482119D01*
X112920792Y-94482117D01*
X112903871Y-94459190D01*
X112840150Y-94372850D01*
X112730882Y-94292207D01*
X112730880Y-94292206D01*
X112602700Y-94247353D01*
X112572270Y-94244500D01*
X112572266Y-94244500D01*
X111263734Y-94244500D01*
X111263730Y-94244500D01*
X111233300Y-94247353D01*
X111233298Y-94247353D01*
X111105119Y-94292206D01*
X111105117Y-94292207D01*
X110995850Y-94372850D01*
X110915207Y-94482117D01*
X110915206Y-94482119D01*
X110870353Y-94610298D01*
X110870353Y-94610300D01*
X110867500Y-94640730D01*
X110867500Y-96249269D01*
X110240028Y-96249269D01*
X110295685Y-96181450D01*
X110393232Y-95998954D01*
X110453300Y-95800934D01*
X110468500Y-95646608D01*
X110468500Y-95243392D01*
X110453300Y-95089066D01*
X110393232Y-94891046D01*
X110295685Y-94708550D01*
X110215052Y-94610298D01*
X110164410Y-94548589D01*
X110004452Y-94417317D01*
X110004453Y-94417317D01*
X110004450Y-94417315D01*
X109821954Y-94319768D01*
X109623934Y-94259700D01*
X109623932Y-94259699D01*
X109623934Y-94259699D01*
X109418000Y-94239417D01*
X109212067Y-94259699D01*
X109014043Y-94319769D01*
X108960083Y-94348612D01*
X108831550Y-94417315D01*
X108831548Y-94417316D01*
X108831547Y-94417317D01*
X108671589Y-94548589D01*
X108540317Y-94708547D01*
X108442769Y-94891043D01*
X108382699Y-95089067D01*
X108372157Y-95196109D01*
X108367500Y-95243392D01*
X108367500Y-95646608D01*
X106858000Y-95646608D01*
X106858000Y-87741831D01*
X106877685Y-87674792D01*
X106930489Y-87629037D01*
X106999647Y-87619093D01*
X107063203Y-87648118D01*
X107100977Y-87706896D01*
X107103618Y-87717641D01*
X107104133Y-87720231D01*
X107148447Y-87786552D01*
X107214769Y-87830867D01*
X107214770Y-87830868D01*
X107273247Y-87842499D01*
X107273250Y-87842500D01*
X107273252Y-87842500D01*
X109012750Y-87842500D01*
X109012751Y-87842499D01*
X109027568Y-87839552D01*
X109071229Y-87830868D01*
X109071229Y-87830867D01*
X109071231Y-87830867D01*
X109137552Y-87786552D01*
X109181867Y-87720231D01*
X109181867Y-87720229D01*
X109181868Y-87720229D01*
X109191922Y-87669682D01*
X109193500Y-87661748D01*
X109193500Y-86783518D01*
X109213185Y-86716479D01*
X109229814Y-86695842D01*
X109436310Y-86489346D01*
X109497631Y-86455863D01*
X109567323Y-86460847D01*
X109623256Y-86502719D01*
X109647673Y-86568183D01*
X109647392Y-86589183D01*
X109627417Y-86791999D01*
X109647699Y-86997932D01*
X109669867Y-87071010D01*
X109707768Y-87195954D01*
X109805315Y-87378450D01*
X109805317Y-87378452D01*
X109936589Y-87538410D01*
X110033209Y-87617702D01*
X110096550Y-87669685D01*
X110279046Y-87767232D01*
X110477066Y-87827300D01*
X110477065Y-87827300D01*
X110495529Y-87829118D01*
X110683000Y-87847583D01*
X110888934Y-87827300D01*
X111086954Y-87767232D01*
X111269450Y-87669685D01*
X111429410Y-87538410D01*
X111560685Y-87378450D01*
X111658232Y-87195954D01*
X111678406Y-87129446D01*
X111716702Y-87071010D01*
X111780514Y-87042553D01*
X111849581Y-87053112D01*
X111901975Y-87099336D01*
X111916841Y-87133349D01*
X111949567Y-87255486D01*
X111949570Y-87255492D01*
X112049399Y-87469578D01*
X112184894Y-87663082D01*
X112351917Y-87830105D01*
X112545421Y-87965600D01*
X112759507Y-88065429D01*
X112759516Y-88065433D01*
X112973000Y-88122634D01*
X112973000Y-87227501D01*
X113080685Y-87276680D01*
X113187237Y-87292000D01*
X113258763Y-87292000D01*
X113365315Y-87276680D01*
X113473000Y-87227501D01*
X113473000Y-88122633D01*
X113686483Y-88065433D01*
X113686492Y-88065429D01*
X113900578Y-87965600D01*
X114094082Y-87830105D01*
X114261105Y-87663082D01*
X114396600Y-87469578D01*
X114496429Y-87255492D01*
X114496432Y-87255486D01*
X114553636Y-87042000D01*
X113656686Y-87042000D01*
X113682493Y-87001844D01*
X113723000Y-86863889D01*
X113723000Y-86720111D01*
X113682493Y-86582156D01*
X113656686Y-86542000D01*
X114553636Y-86542000D01*
X114553635Y-86541999D01*
X114496432Y-86328513D01*
X114496429Y-86328507D01*
X114398691Y-86118905D01*
X114388199Y-86049827D01*
X114416719Y-85986043D01*
X114475195Y-85947804D01*
X114511073Y-85942500D01*
X116605500Y-85942500D01*
X116672539Y-85962185D01*
X116718294Y-86014989D01*
X116729500Y-86066500D01*
X116729500Y-87661752D01*
X116741131Y-87720229D01*
X116741132Y-87720230D01*
X116785447Y-87786552D01*
X116851769Y-87830867D01*
X116851770Y-87830868D01*
X116910247Y-87842499D01*
X116910250Y-87842500D01*
X116910252Y-87842500D01*
X118649750Y-87842500D01*
X118649751Y-87842499D01*
X118664568Y-87839552D01*
X118708229Y-87830868D01*
X118708229Y-87830867D01*
X118708231Y-87830867D01*
X118774552Y-87786552D01*
X118818867Y-87720231D01*
X118818867Y-87720229D01*
X118818868Y-87720229D01*
X118828922Y-87669682D01*
X118830500Y-87661748D01*
X118830500Y-86066500D01*
X118850185Y-85999461D01*
X118902989Y-85953706D01*
X118954500Y-85942500D01*
X119396018Y-85942500D01*
X119463057Y-85962185D01*
X119508812Y-86014989D01*
X119518756Y-86084147D01*
X119491871Y-86145165D01*
X119442317Y-86205546D01*
X119344769Y-86388043D01*
X119284699Y-86586067D01*
X119264417Y-86791999D01*
X119284699Y-86997932D01*
X119306867Y-87071010D01*
X119344768Y-87195954D01*
X119442315Y-87378450D01*
X119442317Y-87378452D01*
X119573589Y-87538410D01*
X119670209Y-87617702D01*
X119733550Y-87669685D01*
X119916046Y-87767232D01*
X120114066Y-87827300D01*
X120114065Y-87827300D01*
X120132529Y-87829118D01*
X120320000Y-87847583D01*
X120525934Y-87827300D01*
X120723954Y-87767232D01*
X120906450Y-87669685D01*
X121066410Y-87538410D01*
X121197685Y-87378450D01*
X121295232Y-87195954D01*
X121315406Y-87129446D01*
X121353702Y-87071010D01*
X121417514Y-87042553D01*
X121486581Y-87053112D01*
X121538975Y-87099336D01*
X121553841Y-87133349D01*
X121586567Y-87255486D01*
X121586570Y-87255492D01*
X121686399Y-87469578D01*
X121821894Y-87663082D01*
X121988917Y-87830105D01*
X122182421Y-87965600D01*
X122396507Y-88065429D01*
X122396516Y-88065433D01*
X122610000Y-88122634D01*
X122610000Y-87227501D01*
X122717685Y-87276680D01*
X122824237Y-87292000D01*
X122895763Y-87292000D01*
X123002315Y-87276680D01*
X123110000Y-87227501D01*
X123110000Y-88122633D01*
X123323483Y-88065433D01*
X123323492Y-88065429D01*
X123537578Y-87965600D01*
X123731082Y-87830105D01*
X123898105Y-87663082D01*
X124033600Y-87469578D01*
X124133429Y-87255492D01*
X124133432Y-87255486D01*
X124190636Y-87042000D01*
X123293686Y-87042000D01*
X123319493Y-87001844D01*
X123360000Y-86863889D01*
X123360000Y-86720111D01*
X123319493Y-86582156D01*
X123293686Y-86542000D01*
X124190636Y-86542000D01*
X124190635Y-86541999D01*
X124133432Y-86328513D01*
X124133429Y-86328507D01*
X124035691Y-86118905D01*
X124025199Y-86049827D01*
X124053719Y-85986043D01*
X124112195Y-85947804D01*
X124148073Y-85942500D01*
X126257500Y-85942500D01*
X126324539Y-85962185D01*
X126370294Y-86014989D01*
X126381500Y-86066500D01*
X126381500Y-87661752D01*
X126393131Y-87720229D01*
X126393132Y-87720230D01*
X126437447Y-87786552D01*
X126503769Y-87830867D01*
X126503770Y-87830868D01*
X126562247Y-87842499D01*
X126562250Y-87842500D01*
X126562252Y-87842500D01*
X128301750Y-87842500D01*
X128301751Y-87842499D01*
X128316568Y-87839552D01*
X128360229Y-87830868D01*
X128360229Y-87830867D01*
X128360231Y-87830867D01*
X128426552Y-87786552D01*
X128470867Y-87720231D01*
X128470867Y-87720229D01*
X128470868Y-87720229D01*
X128480922Y-87669682D01*
X128482500Y-87661748D01*
X128482500Y-86066500D01*
X128502185Y-85999461D01*
X128554989Y-85953706D01*
X128606500Y-85942500D01*
X129048018Y-85942500D01*
X129115057Y-85962185D01*
X129160812Y-86014989D01*
X129170756Y-86084147D01*
X129143871Y-86145165D01*
X129094317Y-86205546D01*
X128996769Y-86388043D01*
X128936699Y-86586067D01*
X128916417Y-86792000D01*
X128936699Y-86997932D01*
X128958867Y-87071010D01*
X128996768Y-87195954D01*
X129094315Y-87378450D01*
X129094317Y-87378452D01*
X129225589Y-87538410D01*
X129322209Y-87617702D01*
X129385550Y-87669685D01*
X129568046Y-87767232D01*
X129766066Y-87827300D01*
X129766065Y-87827300D01*
X129784529Y-87829118D01*
X129972000Y-87847583D01*
X130177934Y-87827300D01*
X130375954Y-87767232D01*
X130558450Y-87669685D01*
X130718410Y-87538410D01*
X130849685Y-87378450D01*
X130947232Y-87195954D01*
X130967406Y-87129446D01*
X131005702Y-87071010D01*
X131069514Y-87042553D01*
X131138581Y-87053112D01*
X131190975Y-87099336D01*
X131205841Y-87133349D01*
X131238567Y-87255486D01*
X131238570Y-87255492D01*
X131338399Y-87469578D01*
X131473894Y-87663082D01*
X131640917Y-87830105D01*
X131834421Y-87965600D01*
X132048507Y-88065429D01*
X132048516Y-88065433D01*
X132262000Y-88122634D01*
X132262000Y-87227501D01*
X132369685Y-87276680D01*
X132476237Y-87292000D01*
X132547763Y-87292000D01*
X132654315Y-87276680D01*
X132762000Y-87227501D01*
X132762000Y-88122633D01*
X132975483Y-88065433D01*
X132975492Y-88065429D01*
X133189578Y-87965600D01*
X133383082Y-87830105D01*
X133550105Y-87663082D01*
X133685600Y-87469578D01*
X133785429Y-87255492D01*
X133785432Y-87255486D01*
X133842636Y-87042000D01*
X132945686Y-87042000D01*
X132971493Y-87001844D01*
X133012000Y-86863889D01*
X133012000Y-86720111D01*
X132971493Y-86582156D01*
X132945686Y-86542000D01*
X133842636Y-86542000D01*
X133842635Y-86541999D01*
X133785432Y-86328513D01*
X133785429Y-86328507D01*
X133687691Y-86118905D01*
X133677199Y-86049827D01*
X133705719Y-85986043D01*
X133764195Y-85947804D01*
X133800073Y-85942500D01*
X135456399Y-85942500D01*
X135478750Y-85944531D01*
X135491994Y-85946958D01*
X135546557Y-85943657D01*
X135553903Y-85943213D01*
X135557648Y-85943100D01*
X135909500Y-85943100D01*
X135976539Y-85962785D01*
X136022294Y-86015589D01*
X136033500Y-86067100D01*
X136033500Y-87661752D01*
X136045131Y-87720229D01*
X136045132Y-87720230D01*
X136089447Y-87786552D01*
X136155769Y-87830867D01*
X136155770Y-87830868D01*
X136214247Y-87842499D01*
X136214250Y-87842500D01*
X136214252Y-87842500D01*
X137953750Y-87842500D01*
X137953751Y-87842499D01*
X137968568Y-87839552D01*
X138012229Y-87830868D01*
X138012229Y-87830867D01*
X138012231Y-87830867D01*
X138078552Y-87786552D01*
X138122867Y-87720231D01*
X138122867Y-87720229D01*
X138122868Y-87720229D01*
X138132922Y-87669682D01*
X138134500Y-87661748D01*
X138134500Y-85922252D01*
X138134500Y-85922249D01*
X138133903Y-85916187D01*
X138135619Y-85916017D01*
X138141109Y-85854610D01*
X138183967Y-85799429D01*
X138249855Y-85776178D01*
X138256503Y-85776000D01*
X138859529Y-85776000D01*
X138926568Y-85795685D01*
G37*
G04 #@! TD.AperFunction*
G04 #@! TA.AperFunction,Conductor*
G36*
X106547039Y-85795685D02*
G01*
X106592794Y-85848489D01*
X106604000Y-85900000D01*
X106604000Y-99825500D01*
X106584315Y-99892539D01*
X106531511Y-99938294D01*
X106480000Y-99949500D01*
X103001742Y-99949500D01*
X102998265Y-99949402D01*
X102673238Y-99931149D01*
X102666324Y-99930370D01*
X102347112Y-99876133D01*
X102340328Y-99874585D01*
X102029187Y-99784947D01*
X102022620Y-99782649D01*
X101832992Y-99704103D01*
X101723476Y-99658740D01*
X101717211Y-99655723D01*
X101433815Y-99499095D01*
X101427932Y-99495398D01*
X101163853Y-99308024D01*
X101158426Y-99303696D01*
X100997618Y-99159989D01*
X100916987Y-99087932D01*
X100912067Y-99083012D01*
X100820064Y-98980061D01*
X100696301Y-98841571D01*
X100691977Y-98836148D01*
X100504597Y-98572062D01*
X100500904Y-98566184D01*
X100401761Y-98386798D01*
X100344272Y-98282779D01*
X100341262Y-98276531D01*
X100217349Y-97977376D01*
X100215052Y-97970812D01*
X100125414Y-97659671D01*
X100123866Y-97652887D01*
X100094127Y-97477858D01*
X100069627Y-97333661D01*
X100068851Y-97326771D01*
X100059276Y-97156276D01*
X100050598Y-97001735D01*
X100050500Y-96998258D01*
X100050500Y-85900000D01*
X100070185Y-85832961D01*
X100122989Y-85787206D01*
X100174500Y-85776000D01*
X106480000Y-85776000D01*
X106547039Y-85795685D01*
G37*
G04 #@! TD.AperFunction*
G04 #@! TA.AperFunction,Conductor*
G36*
X158788572Y-85795685D02*
G01*
X158834327Y-85848489D01*
X158843435Y-85911825D01*
X158844775Y-85911921D01*
X158825172Y-86185998D01*
X158825172Y-86186001D01*
X158844459Y-86455663D01*
X158844460Y-86455670D01*
X158901924Y-86719830D01*
X158996404Y-86973141D01*
X158996406Y-86973145D01*
X159125965Y-87210415D01*
X159125966Y-87210416D01*
X159218465Y-87333980D01*
X159936982Y-86615462D01*
X159944992Y-86633451D01*
X160054958Y-86784806D01*
X160193990Y-86909991D01*
X160292618Y-86966934D01*
X159572018Y-87687533D01*
X159572019Y-87687534D01*
X159695574Y-87780029D01*
X159698150Y-87781684D01*
X159698823Y-87782460D01*
X159699124Y-87782686D01*
X159699074Y-87782751D01*
X159743906Y-87834487D01*
X159753850Y-87903645D01*
X159724826Y-87967201D01*
X159698158Y-87990312D01*
X159695570Y-87991975D01*
X159572019Y-88084464D01*
X159572018Y-88084465D01*
X160292618Y-88805065D01*
X160193990Y-88862009D01*
X160054958Y-88987194D01*
X159944992Y-89138549D01*
X159936983Y-89156536D01*
X159218465Y-88438018D01*
X159218464Y-88438019D01*
X159125970Y-88561576D01*
X159125965Y-88561584D01*
X158996406Y-88798854D01*
X158996404Y-88798858D01*
X158901924Y-89052169D01*
X158844460Y-89316329D01*
X158844459Y-89316336D01*
X158825172Y-89585998D01*
X158825172Y-89586001D01*
X158844459Y-89855663D01*
X158844460Y-89855670D01*
X158901924Y-90119830D01*
X158996404Y-90373141D01*
X158996406Y-90373145D01*
X159125965Y-90610415D01*
X159125966Y-90610416D01*
X159218465Y-90733980D01*
X159936982Y-90015462D01*
X159944992Y-90033451D01*
X160054958Y-90184806D01*
X160193990Y-90309991D01*
X160292618Y-90366934D01*
X159572018Y-91087533D01*
X159572019Y-91087534D01*
X159695575Y-91180029D01*
X159932854Y-91309593D01*
X159932858Y-91309595D01*
X160186169Y-91404075D01*
X160450329Y-91461539D01*
X160450336Y-91461540D01*
X160719999Y-91480828D01*
X160720001Y-91480828D01*
X160989663Y-91461540D01*
X160989670Y-91461539D01*
X161253830Y-91404075D01*
X161507141Y-91309595D01*
X161507145Y-91309593D01*
X161744424Y-91180029D01*
X161867980Y-91087534D01*
X161867980Y-91087533D01*
X161147381Y-90366934D01*
X161246010Y-90309991D01*
X161385042Y-90184806D01*
X161495008Y-90033451D01*
X161503016Y-90015463D01*
X162221533Y-90733980D01*
X162221534Y-90733980D01*
X162314029Y-90610424D01*
X162443593Y-90373145D01*
X162443595Y-90373141D01*
X162538075Y-90119830D01*
X162595539Y-89855670D01*
X162595540Y-89855663D01*
X162614828Y-89586001D01*
X162614828Y-89585998D01*
X162595540Y-89316336D01*
X162595539Y-89316329D01*
X162538075Y-89052169D01*
X162443595Y-88798858D01*
X162443593Y-88798854D01*
X162314029Y-88561575D01*
X162221534Y-88438019D01*
X162221533Y-88438018D01*
X161503015Y-89156535D01*
X161495008Y-89138549D01*
X161385042Y-88987194D01*
X161246010Y-88862009D01*
X161147380Y-88805064D01*
X161867980Y-88084465D01*
X161744414Y-87991964D01*
X161741849Y-87990316D01*
X161741178Y-87989542D01*
X161740875Y-87989315D01*
X161740924Y-87989249D01*
X161696093Y-87937513D01*
X161686149Y-87868355D01*
X161715173Y-87804799D01*
X161741856Y-87781679D01*
X161744433Y-87780022D01*
X161867980Y-87687534D01*
X161867980Y-87687533D01*
X161147381Y-86966934D01*
X161246010Y-86909991D01*
X161385042Y-86784806D01*
X161495008Y-86633451D01*
X161503016Y-86615463D01*
X162221533Y-87333980D01*
X162221534Y-87333980D01*
X162314029Y-87210424D01*
X162443593Y-86973145D01*
X162443595Y-86973141D01*
X162538075Y-86719830D01*
X162595539Y-86455670D01*
X162595540Y-86455663D01*
X162614828Y-86186001D01*
X162614828Y-86185998D01*
X162595225Y-85911921D01*
X162596564Y-85911825D01*
X162605675Y-85848484D01*
X162651431Y-85795682D01*
X162718467Y-85776000D01*
X164825500Y-85776000D01*
X164892539Y-85795685D01*
X164938294Y-85848489D01*
X164949500Y-85900000D01*
X164949500Y-96998258D01*
X164949402Y-97001735D01*
X164931149Y-97326761D01*
X164930370Y-97333675D01*
X164876133Y-97652887D01*
X164874585Y-97659671D01*
X164784947Y-97970812D01*
X164782649Y-97977379D01*
X164658742Y-98276519D01*
X164655723Y-98282788D01*
X164499095Y-98566184D01*
X164495393Y-98572076D01*
X164308029Y-98836140D01*
X164303691Y-98841580D01*
X164087932Y-99083012D01*
X164083012Y-99087932D01*
X163841580Y-99303691D01*
X163836140Y-99308029D01*
X163572076Y-99495393D01*
X163566184Y-99499095D01*
X163282788Y-99655723D01*
X163276519Y-99658742D01*
X162977379Y-99782649D01*
X162970812Y-99784947D01*
X162659671Y-99874585D01*
X162652887Y-99876133D01*
X162333675Y-99930370D01*
X162326761Y-99931149D01*
X162001735Y-99949402D01*
X161998258Y-99949500D01*
X153845000Y-99949500D01*
X153777961Y-99929815D01*
X153732206Y-99877011D01*
X153721000Y-99825500D01*
X153721000Y-98060000D01*
X153740685Y-97992961D01*
X153793489Y-97947206D01*
X153845000Y-97936000D01*
X155122000Y-97936000D01*
X155122000Y-96657802D01*
X155283169Y-96696000D01*
X155416267Y-96696000D01*
X155548461Y-96680549D01*
X155622000Y-96653782D01*
X155622000Y-97936000D01*
X156919828Y-97936000D01*
X156919844Y-97935999D01*
X156979372Y-97929598D01*
X156979379Y-97929596D01*
X157114086Y-97879354D01*
X157114093Y-97879350D01*
X157229187Y-97793190D01*
X157229190Y-97793187D01*
X157315350Y-97678093D01*
X157315354Y-97678086D01*
X157365596Y-97543379D01*
X157365598Y-97543372D01*
X157371999Y-97483844D01*
X157372000Y-97483827D01*
X157372000Y-96186000D01*
X156090483Y-96186000D01*
X156125549Y-96068871D01*
X156135879Y-95891509D01*
X156105029Y-95716546D01*
X156091853Y-95686000D01*
X157372000Y-95686000D01*
X157372000Y-94388172D01*
X157371999Y-94388155D01*
X157365598Y-94328627D01*
X157365596Y-94328620D01*
X157315354Y-94193913D01*
X157315350Y-94193906D01*
X157229190Y-94078812D01*
X157229187Y-94078809D01*
X157114093Y-93992649D01*
X157114086Y-93992645D01*
X156979379Y-93942403D01*
X156979372Y-93942401D01*
X156919844Y-93936000D01*
X155622000Y-93936000D01*
X155622000Y-95214197D01*
X155460831Y-95176000D01*
X155327733Y-95176000D01*
X155195539Y-95191451D01*
X155122000Y-95218217D01*
X155122000Y-93936000D01*
X153845000Y-93936000D01*
X153777961Y-93916315D01*
X153732206Y-93863511D01*
X153721000Y-93812000D01*
X153721000Y-85900000D01*
X153740685Y-85832961D01*
X153793489Y-85787206D01*
X153845000Y-85776000D01*
X158721533Y-85776000D01*
X158788572Y-85795685D01*
G37*
G04 #@! TD.AperFunction*
G04 #@! TA.AperFunction,Conductor*
G36*
X162001735Y-43550598D02*
G01*
X162156276Y-43559276D01*
X162326771Y-43568851D01*
X162333661Y-43569627D01*
X162606033Y-43615905D01*
X162652887Y-43623866D01*
X162659671Y-43625414D01*
X162970812Y-43715052D01*
X162977376Y-43717349D01*
X163276531Y-43841262D01*
X163282779Y-43844272D01*
X163530138Y-43980982D01*
X163566184Y-44000904D01*
X163572062Y-44004597D01*
X163836148Y-44191977D01*
X163841571Y-44196301D01*
X163980061Y-44320064D01*
X164083012Y-44412067D01*
X164087932Y-44416987D01*
X164195811Y-44537703D01*
X164303696Y-44658426D01*
X164308024Y-44663853D01*
X164495398Y-44927932D01*
X164499095Y-44933815D01*
X164566845Y-45056399D01*
X164643281Y-45194700D01*
X164655723Y-45217211D01*
X164658740Y-45223476D01*
X164679745Y-45274186D01*
X164782649Y-45522620D01*
X164784947Y-45529187D01*
X164874585Y-45840328D01*
X164876133Y-45847112D01*
X164930370Y-46166324D01*
X164931149Y-46173238D01*
X164949402Y-46498264D01*
X164949500Y-46501741D01*
X164949500Y-85398000D01*
X164929815Y-85465039D01*
X164877011Y-85510794D01*
X164825500Y-85522000D01*
X162247926Y-85522000D01*
X162180887Y-85502315D01*
X162142199Y-85462790D01*
X162010723Y-85248242D01*
X162010717Y-85248233D01*
X161848133Y-85057871D01*
X161848128Y-85057866D01*
X161657766Y-84895282D01*
X161657757Y-84895276D01*
X161444305Y-84764471D01*
X161213011Y-84668666D01*
X160969574Y-84610223D01*
X160969575Y-84610223D01*
X160720000Y-84590582D01*
X160470424Y-84610223D01*
X160226988Y-84668666D01*
X159995694Y-84764471D01*
X159782242Y-84895276D01*
X159782233Y-84895282D01*
X159591871Y-85057866D01*
X159591866Y-85057871D01*
X159429282Y-85248233D01*
X159429276Y-85248242D01*
X159297801Y-85462790D01*
X159245989Y-85509665D01*
X159192074Y-85522000D01*
X152327926Y-85522000D01*
X152260887Y-85502315D01*
X152222199Y-85462790D01*
X152090723Y-85248242D01*
X152090717Y-85248233D01*
X151928133Y-85057871D01*
X151928128Y-85057866D01*
X151737766Y-84895282D01*
X151737757Y-84895276D01*
X151524305Y-84764471D01*
X151293011Y-84668666D01*
X151049574Y-84610223D01*
X151049575Y-84610223D01*
X150800000Y-84590582D01*
X150550424Y-84610223D01*
X150306988Y-84668666D01*
X150075694Y-84764471D01*
X149862242Y-84895276D01*
X149862233Y-84895282D01*
X149671871Y-85057866D01*
X149671866Y-85057871D01*
X149509282Y-85248233D01*
X149509276Y-85248242D01*
X149377801Y-85462790D01*
X149325989Y-85509665D01*
X149272074Y-85522000D01*
X146174500Y-85522000D01*
X146107461Y-85502315D01*
X146061706Y-85449511D01*
X146050500Y-85398000D01*
X146050500Y-80902659D01*
X146047954Y-80889039D01*
X146014726Y-80711286D01*
X145944397Y-80529746D01*
X145940155Y-80522895D01*
X145841909Y-80364221D01*
X145841907Y-80364219D01*
X145710751Y-80220347D01*
X145555386Y-80103021D01*
X145381120Y-80016246D01*
X145381107Y-80016241D01*
X145193854Y-79962962D01*
X145193855Y-79962962D01*
X145000001Y-79945000D01*
X144999999Y-79945000D01*
X144806144Y-79962962D01*
X144618892Y-80016241D01*
X144618879Y-80016246D01*
X144444613Y-80103021D01*
X144289248Y-80220347D01*
X144158092Y-80364219D01*
X144158090Y-80364221D01*
X144055604Y-80529742D01*
X144055600Y-80529751D01*
X143996090Y-80683367D01*
X143985274Y-80711286D01*
X143953019Y-80883835D01*
X143949500Y-80902659D01*
X143949500Y-85398000D01*
X143929815Y-85465039D01*
X143877011Y-85510794D01*
X143825500Y-85522000D01*
X138454486Y-85522000D01*
X138387447Y-85502315D01*
X138341692Y-85449511D01*
X138331388Y-85383074D01*
X138331588Y-85381422D01*
X138332633Y-85372809D01*
X138333976Y-85365479D01*
X138343300Y-85327656D01*
X138343300Y-85157544D01*
X138343300Y-85157543D01*
X138343300Y-84796718D01*
X138362985Y-84729680D01*
X138379619Y-84709038D01*
X139019838Y-84068819D01*
X139081161Y-84035334D01*
X139107519Y-84032500D01*
X139985750Y-84032500D01*
X139985751Y-84032499D01*
X140000568Y-84029552D01*
X140044229Y-84020868D01*
X140044229Y-84020867D01*
X140044231Y-84020867D01*
X140110552Y-83976552D01*
X140154867Y-83910231D01*
X140154867Y-83910229D01*
X140154868Y-83910229D01*
X140166499Y-83851752D01*
X140166500Y-83851750D01*
X140166500Y-82112249D01*
X140166499Y-82112247D01*
X140154868Y-82053770D01*
X140154867Y-82053769D01*
X140110552Y-81987447D01*
X140044230Y-81943132D01*
X140044229Y-81943131D01*
X139985752Y-81931500D01*
X139985748Y-81931500D01*
X138246252Y-81931500D01*
X138246247Y-81931500D01*
X138187770Y-81943131D01*
X138187769Y-81943132D01*
X138121447Y-81987447D01*
X138077132Y-82053769D01*
X138077131Y-82053770D01*
X138065500Y-82112247D01*
X138065500Y-82990480D01*
X138045815Y-83057519D01*
X138029181Y-83078161D01*
X137163766Y-83943575D01*
X137161040Y-83946142D01*
X137114618Y-83987268D01*
X137079386Y-84038309D01*
X137077168Y-84041324D01*
X137038924Y-84090139D01*
X137038919Y-84090148D01*
X137034760Y-84099388D01*
X137023742Y-84118923D01*
X137017987Y-84127261D01*
X137017983Y-84127267D01*
X137017982Y-84127270D01*
X137017980Y-84127274D01*
X137017979Y-84127277D01*
X136995989Y-84185255D01*
X136994557Y-84188713D01*
X136969105Y-84245268D01*
X136967277Y-84255242D01*
X136961253Y-84276853D01*
X136957660Y-84286327D01*
X136957659Y-84286328D01*
X136950184Y-84347885D01*
X136949621Y-84351586D01*
X136938442Y-84412590D01*
X136937989Y-84420084D01*
X136936177Y-84419974D01*
X136922721Y-84478719D01*
X136872776Y-84527578D01*
X136814548Y-84542100D01*
X135612201Y-84542100D01*
X135589850Y-84540069D01*
X135576607Y-84537642D01*
X135576603Y-84537642D01*
X135514697Y-84541387D01*
X135510952Y-84541500D01*
X112178300Y-84541500D01*
X112111261Y-84521815D01*
X112065506Y-84469011D01*
X112054300Y-84417500D01*
X112054300Y-82114006D01*
X113094700Y-82114006D01*
X113113864Y-82345297D01*
X113113866Y-82345308D01*
X113170842Y-82570300D01*
X113264075Y-82782848D01*
X113391016Y-82977147D01*
X113391019Y-82977151D01*
X113391021Y-82977153D01*
X113548216Y-83147913D01*
X113548219Y-83147915D01*
X113548222Y-83147918D01*
X113731365Y-83290464D01*
X113731371Y-83290468D01*
X113731374Y-83290470D01*
X113935497Y-83400936D01*
X113972095Y-83413500D01*
X114155015Y-83476297D01*
X114155017Y-83476297D01*
X114155019Y-83476298D01*
X114383951Y-83514500D01*
X114383952Y-83514500D01*
X114616048Y-83514500D01*
X114616049Y-83514500D01*
X114844981Y-83476298D01*
X115064503Y-83400936D01*
X115268626Y-83290470D01*
X115284043Y-83278471D01*
X115393176Y-83193529D01*
X115451784Y-83147913D01*
X115608979Y-82977153D01*
X115735924Y-82782849D01*
X115829157Y-82570300D01*
X115886134Y-82345305D01*
X115886602Y-82339656D01*
X115905300Y-82114006D01*
X115905300Y-82113993D01*
X115886135Y-81882702D01*
X115886133Y-81882691D01*
X115829157Y-81657699D01*
X115735924Y-81445151D01*
X115608983Y-81250852D01*
X115608980Y-81250849D01*
X115608979Y-81250847D01*
X115451784Y-81080087D01*
X115451779Y-81080083D01*
X115451777Y-81080081D01*
X115268634Y-80937535D01*
X115268628Y-80937531D01*
X115064504Y-80827064D01*
X115064495Y-80827061D01*
X114844984Y-80751702D01*
X114673282Y-80723050D01*
X114616049Y-80713500D01*
X114383951Y-80713500D01*
X114338164Y-80721140D01*
X114155015Y-80751702D01*
X113935504Y-80827061D01*
X113935495Y-80827064D01*
X113731371Y-80937531D01*
X113731365Y-80937535D01*
X113548222Y-81080081D01*
X113548219Y-81080084D01*
X113548216Y-81080086D01*
X113548216Y-81080087D01*
X113489267Y-81144121D01*
X113391016Y-81250852D01*
X113264075Y-81445151D01*
X113170842Y-81657699D01*
X113113866Y-81882691D01*
X113113864Y-81882702D01*
X113094700Y-82113993D01*
X113094700Y-82114006D01*
X112054300Y-82114006D01*
X112054300Y-72114000D01*
X112444584Y-72114000D01*
X112464245Y-72802232D01*
X112523163Y-73488208D01*
X112621150Y-74169716D01*
X112757877Y-74844497D01*
X112757880Y-74844509D01*
X112757881Y-74844513D01*
X112932913Y-75510403D01*
X112998800Y-75713182D01*
X113145675Y-76165219D01*
X113395470Y-76806812D01*
X113395471Y-76806813D01*
X113681489Y-77433104D01*
X113681489Y-77433105D01*
X113770342Y-77601500D01*
X114002794Y-78042045D01*
X114102494Y-78207379D01*
X114358335Y-78631644D01*
X114746960Y-79199991D01*
X115167395Y-79745221D01*
X115167394Y-79745220D01*
X115167401Y-79745228D01*
X115618279Y-80265570D01*
X116042511Y-80702094D01*
X116090722Y-80751702D01*
X116098128Y-80759322D01*
X116605381Y-81224876D01*
X116681967Y-81287500D01*
X117138375Y-81660703D01*
X117695397Y-82065404D01*
X117695398Y-82065404D01*
X117695402Y-82065407D01*
X118202453Y-82391269D01*
X118274614Y-82437644D01*
X118874136Y-82776210D01*
X119066485Y-82870781D01*
X119491999Y-83079992D01*
X120126205Y-83348011D01*
X120126205Y-83348010D01*
X120774672Y-83579382D01*
X121435283Y-83773355D01*
X121435284Y-83773356D01*
X121435289Y-83773357D01*
X121435292Y-83773358D01*
X121530721Y-83795549D01*
X122105904Y-83929302D01*
X122105903Y-83929302D01*
X122784333Y-84046709D01*
X122784334Y-84046709D01*
X123468356Y-84125193D01*
X124155743Y-84164500D01*
X124155745Y-84164500D01*
X124844257Y-84164500D01*
X125531644Y-84125193D01*
X126215666Y-84046709D01*
X126215667Y-84046709D01*
X126894097Y-83929302D01*
X126894096Y-83929302D01*
X127469279Y-83795549D01*
X127564708Y-83773358D01*
X127564710Y-83773357D01*
X127564716Y-83773356D01*
X127564716Y-83773355D01*
X128225328Y-83579382D01*
X128873795Y-83348010D01*
X128873795Y-83348011D01*
X129508001Y-83079992D01*
X129933515Y-82870781D01*
X130125864Y-82776210D01*
X130725386Y-82437644D01*
X130797547Y-82391269D01*
X131228977Y-82114006D01*
X133094700Y-82114006D01*
X133113864Y-82345297D01*
X133113866Y-82345308D01*
X133170842Y-82570300D01*
X133264075Y-82782848D01*
X133391016Y-82977147D01*
X133391019Y-82977151D01*
X133391021Y-82977153D01*
X133548216Y-83147913D01*
X133548219Y-83147915D01*
X133548222Y-83147918D01*
X133731365Y-83290464D01*
X133731371Y-83290468D01*
X133731374Y-83290470D01*
X133935497Y-83400936D01*
X133972095Y-83413500D01*
X134155015Y-83476297D01*
X134155017Y-83476297D01*
X134155019Y-83476298D01*
X134383951Y-83514500D01*
X134383952Y-83514500D01*
X134616048Y-83514500D01*
X134616049Y-83514500D01*
X134844981Y-83476298D01*
X135064503Y-83400936D01*
X135268626Y-83290470D01*
X135284043Y-83278471D01*
X135393176Y-83193529D01*
X135451784Y-83147913D01*
X135608979Y-82977153D01*
X135735924Y-82782849D01*
X135829157Y-82570300D01*
X135886134Y-82345305D01*
X135886602Y-82339656D01*
X135905300Y-82114006D01*
X135905300Y-82113993D01*
X135886135Y-81882702D01*
X135886133Y-81882691D01*
X135829157Y-81657699D01*
X135735924Y-81445151D01*
X135608983Y-81250852D01*
X135608980Y-81250849D01*
X135608979Y-81250847D01*
X135451784Y-81080087D01*
X135451779Y-81080083D01*
X135451777Y-81080081D01*
X135268634Y-80937535D01*
X135268628Y-80937531D01*
X135064504Y-80827064D01*
X135064495Y-80827061D01*
X134844984Y-80751702D01*
X134673282Y-80723050D01*
X134616049Y-80713500D01*
X134383951Y-80713500D01*
X134338164Y-80721140D01*
X134155015Y-80751702D01*
X133935504Y-80827061D01*
X133935495Y-80827064D01*
X133731371Y-80937531D01*
X133731365Y-80937535D01*
X133548222Y-81080081D01*
X133548219Y-81080084D01*
X133548216Y-81080086D01*
X133548216Y-81080087D01*
X133489267Y-81144121D01*
X133391016Y-81250852D01*
X133264075Y-81445151D01*
X133170842Y-81657699D01*
X133113866Y-81882691D01*
X133113864Y-81882702D01*
X133094700Y-82113993D01*
X133094700Y-82114006D01*
X131228977Y-82114006D01*
X131304598Y-82065407D01*
X131304602Y-82065404D01*
X131304603Y-82065404D01*
X131861625Y-81660703D01*
X132318033Y-81287500D01*
X132394619Y-81224876D01*
X132901872Y-80759322D01*
X132909278Y-80751702D01*
X132957487Y-80702094D01*
X133381721Y-80265570D01*
X133832599Y-79745228D01*
X133832598Y-79745228D01*
X133832605Y-79745221D01*
X134253040Y-79199991D01*
X134434505Y-78934606D01*
X136861642Y-78934606D01*
X136866615Y-78961743D01*
X136872821Y-78995612D01*
X136873384Y-78999313D01*
X136880859Y-79060870D01*
X136880860Y-79060874D01*
X136884451Y-79070343D01*
X136890474Y-79091946D01*
X136892304Y-79101930D01*
X136917759Y-79158490D01*
X136919189Y-79161941D01*
X136941182Y-79219930D01*
X136941183Y-79219931D01*
X136946936Y-79228266D01*
X136957961Y-79247813D01*
X136962120Y-79257055D01*
X136962124Y-79257060D01*
X137000371Y-79305878D01*
X137002591Y-79308896D01*
X137037812Y-79359924D01*
X137037816Y-79359928D01*
X137037817Y-79359929D01*
X137084250Y-79401064D01*
X137086941Y-79403598D01*
X137559637Y-79876294D01*
X138024767Y-80341424D01*
X138058252Y-80402747D01*
X138060181Y-80435909D01*
X138060417Y-80435909D01*
X138060417Y-80439966D01*
X138060491Y-80441239D01*
X138060417Y-80441991D01*
X138060417Y-80441999D01*
X138080699Y-80647932D01*
X138080700Y-80647934D01*
X138140768Y-80845954D01*
X138238315Y-81028450D01*
X138245355Y-81037028D01*
X138369589Y-81188410D01*
X138433062Y-81240500D01*
X138529550Y-81319685D01*
X138712046Y-81417232D01*
X138910066Y-81477300D01*
X138910065Y-81477300D01*
X138928529Y-81479118D01*
X139116000Y-81497583D01*
X139321934Y-81477300D01*
X139519954Y-81417232D01*
X139702450Y-81319685D01*
X139862410Y-81188410D01*
X139993685Y-81028450D01*
X140091232Y-80845954D01*
X140151300Y-80647934D01*
X140171583Y-80442000D01*
X140151300Y-80236066D01*
X140091232Y-80038046D01*
X139993685Y-79855550D01*
X139891000Y-79730427D01*
X139862410Y-79695589D01*
X139702452Y-79564317D01*
X139702453Y-79564317D01*
X139702450Y-79564315D01*
X139519954Y-79466768D01*
X139321934Y-79406700D01*
X139321932Y-79406699D01*
X139321934Y-79406699D01*
X139134463Y-79388235D01*
X139116000Y-79386417D01*
X139115999Y-79386417D01*
X139115992Y-79386417D01*
X139115239Y-79386491D01*
X139114849Y-79386417D01*
X139109909Y-79386417D01*
X139109909Y-79385479D01*
X139046595Y-79373461D01*
X139015424Y-79350767D01*
X138813348Y-79148691D01*
X138779863Y-79087368D01*
X138784847Y-79017676D01*
X138826719Y-78961743D01*
X138892183Y-78937326D01*
X138913182Y-78937606D01*
X139116000Y-78957583D01*
X139321934Y-78937300D01*
X139519954Y-78877232D01*
X139702450Y-78779685D01*
X139862410Y-78648410D01*
X139993685Y-78488450D01*
X140091232Y-78305954D01*
X140151300Y-78107934D01*
X140171583Y-77902000D01*
X140151300Y-77696066D01*
X140091232Y-77498046D01*
X139993685Y-77315550D01*
X139941702Y-77252209D01*
X139862410Y-77155589D01*
X139702452Y-77024317D01*
X139702453Y-77024317D01*
X139702450Y-77024315D01*
X139519954Y-76926768D01*
X139321934Y-76866700D01*
X139321932Y-76866699D01*
X139321934Y-76866699D01*
X139116000Y-76846417D01*
X138910067Y-76866699D01*
X138712043Y-76926769D01*
X138529546Y-77024317D01*
X138469164Y-77073871D01*
X138404853Y-77101183D01*
X138335986Y-77089391D01*
X138284426Y-77042238D01*
X138266500Y-76978017D01*
X138266500Y-74499518D01*
X138286185Y-74432479D01*
X138302814Y-74411842D01*
X139730736Y-72983919D01*
X139792059Y-72950435D01*
X139861751Y-72955419D01*
X139917684Y-72997291D01*
X139942101Y-73062755D01*
X139942417Y-73071601D01*
X139942417Y-73075999D01*
X139962699Y-73281932D01*
X139978322Y-73333434D01*
X140022768Y-73479954D01*
X140120315Y-73662450D01*
X140142980Y-73690068D01*
X140251589Y-73822410D01*
X140302287Y-73864016D01*
X140411550Y-73953685D01*
X140594046Y-74051232D01*
X140792066Y-74111300D01*
X140792065Y-74111300D01*
X140830647Y-74115100D01*
X140946392Y-74126500D01*
X140946395Y-74126500D01*
X141349605Y-74126500D01*
X141349608Y-74126500D01*
X141503934Y-74111300D01*
X141701954Y-74051232D01*
X141884450Y-73953685D01*
X142044410Y-73822410D01*
X142175685Y-73662450D01*
X142273232Y-73479954D01*
X142333300Y-73281934D01*
X142353583Y-73076000D01*
X142333300Y-72870066D01*
X142273232Y-72672046D01*
X142175685Y-72489550D01*
X142081068Y-72374258D01*
X142044410Y-72329589D01*
X141884452Y-72198317D01*
X141884453Y-72198317D01*
X141884450Y-72198315D01*
X141701954Y-72100768D01*
X141503934Y-72040700D01*
X141503932Y-72040699D01*
X141503934Y-72040699D01*
X141384805Y-72028966D01*
X141349608Y-72025500D01*
X140988519Y-72025500D01*
X140921480Y-72005815D01*
X140875725Y-71953011D01*
X140865781Y-71883853D01*
X140894806Y-71820297D01*
X140900838Y-71813819D01*
X141051838Y-71662819D01*
X141113161Y-71629334D01*
X141139519Y-71626500D01*
X141952270Y-71626500D01*
X141982699Y-71623646D01*
X141982701Y-71623646D01*
X142052282Y-71599298D01*
X142110882Y-71578793D01*
X142220150Y-71498150D01*
X142300793Y-71388882D01*
X142328468Y-71309792D01*
X142345646Y-71260701D01*
X142345646Y-71260699D01*
X142348500Y-71230269D01*
X142348500Y-69921730D01*
X142345646Y-69891300D01*
X142345646Y-69891298D01*
X142301778Y-69765934D01*
X142300793Y-69763118D01*
X142220150Y-69653850D01*
X142110882Y-69573207D01*
X142110880Y-69573206D01*
X141982700Y-69528353D01*
X141952270Y-69525500D01*
X141952266Y-69525500D01*
X140343734Y-69525500D01*
X140343730Y-69525500D01*
X140313300Y-69528353D01*
X140313298Y-69528353D01*
X140185119Y-69573206D01*
X140185117Y-69573207D01*
X140075850Y-69653850D01*
X139995207Y-69763117D01*
X139995206Y-69763119D01*
X139950353Y-69891298D01*
X139950353Y-69891300D01*
X139947500Y-69921730D01*
X139947500Y-70734480D01*
X139927815Y-70801519D01*
X139911181Y-70822161D01*
X137086966Y-73646375D01*
X137084240Y-73648942D01*
X137037818Y-73690068D01*
X137002586Y-73741109D01*
X137000368Y-73744124D01*
X136962124Y-73792939D01*
X136962119Y-73792948D01*
X136957960Y-73802188D01*
X136946942Y-73821723D01*
X136941187Y-73830061D01*
X136941183Y-73830067D01*
X136941182Y-73830070D01*
X136941180Y-73830074D01*
X136941179Y-73830077D01*
X136919189Y-73888055D01*
X136917757Y-73891513D01*
X136892305Y-73948068D01*
X136890477Y-73958042D01*
X136884453Y-73979653D01*
X136880860Y-73989127D01*
X136880859Y-73989128D01*
X136873384Y-74050685D01*
X136872821Y-74054386D01*
X136861642Y-74115390D01*
X136861642Y-74115395D01*
X136865387Y-74177302D01*
X136865500Y-74181047D01*
X136865500Y-78868951D01*
X136865387Y-78872696D01*
X136861642Y-78934606D01*
X134434505Y-78934606D01*
X134641665Y-78631644D01*
X134897506Y-78207379D01*
X134997206Y-78042045D01*
X135229658Y-77601500D01*
X135318511Y-77433105D01*
X135318511Y-77433104D01*
X135604529Y-76806813D01*
X135604530Y-76806812D01*
X135854325Y-76165219D01*
X136001200Y-75713182D01*
X136067087Y-75510403D01*
X136242119Y-74844513D01*
X136242119Y-74844509D01*
X136242123Y-74844497D01*
X136378850Y-74169716D01*
X136476837Y-73488208D01*
X136535755Y-72802232D01*
X136555416Y-72114000D01*
X136535755Y-71425768D01*
X136476837Y-70739792D01*
X136378850Y-70058284D01*
X136242123Y-69383503D01*
X136234385Y-69354066D01*
X136067087Y-68717597D01*
X135915156Y-68250000D01*
X135854325Y-68062781D01*
X135604530Y-67421188D01*
X135604529Y-67421187D01*
X135318511Y-66794896D01*
X135318511Y-66794895D01*
X135148954Y-66473550D01*
X134997206Y-66185955D01*
X134849519Y-65941043D01*
X134641665Y-65596356D01*
X134253040Y-65028009D01*
X133832605Y-64482779D01*
X133832606Y-64482780D01*
X133536879Y-64141492D01*
X133381721Y-63962430D01*
X132910062Y-63477105D01*
X132901876Y-63468682D01*
X132880976Y-63449500D01*
X132394619Y-63003124D01*
X132156300Y-62808252D01*
X131861625Y-62567297D01*
X131304603Y-62162596D01*
X131304602Y-62162596D01*
X131304598Y-62162593D01*
X131228995Y-62114006D01*
X133094700Y-62114006D01*
X133113864Y-62345297D01*
X133113866Y-62345308D01*
X133170842Y-62570300D01*
X133264075Y-62782848D01*
X133391016Y-62977147D01*
X133391019Y-62977151D01*
X133391021Y-62977153D01*
X133548216Y-63147913D01*
X133548219Y-63147915D01*
X133548222Y-63147918D01*
X133731365Y-63290464D01*
X133731371Y-63290468D01*
X133731374Y-63290470D01*
X133935497Y-63400936D01*
X134014329Y-63427999D01*
X134155015Y-63476297D01*
X134155017Y-63476297D01*
X134155019Y-63476298D01*
X134383951Y-63514500D01*
X134383952Y-63514500D01*
X134616048Y-63514500D01*
X134616049Y-63514500D01*
X134844981Y-63476298D01*
X135064503Y-63400936D01*
X135268626Y-63290470D01*
X135289732Y-63274043D01*
X135366216Y-63214513D01*
X135451784Y-63147913D01*
X135608979Y-62977153D01*
X135735924Y-62782849D01*
X135829157Y-62570300D01*
X135886134Y-62345305D01*
X135887335Y-62330811D01*
X135905300Y-62114006D01*
X135905300Y-62113993D01*
X135886135Y-61882702D01*
X135886133Y-61882691D01*
X135829157Y-61657699D01*
X135735924Y-61445151D01*
X135608983Y-61250852D01*
X135608980Y-61250849D01*
X135608979Y-61250847D01*
X135451784Y-61080087D01*
X135451779Y-61080083D01*
X135451777Y-61080081D01*
X135268634Y-60937535D01*
X135268628Y-60937531D01*
X135064504Y-60827064D01*
X135064495Y-60827061D01*
X134844984Y-60751702D01*
X134673282Y-60723050D01*
X134616049Y-60713500D01*
X134383951Y-60713500D01*
X134338164Y-60721140D01*
X134155015Y-60751702D01*
X133935504Y-60827061D01*
X133935495Y-60827064D01*
X133731371Y-60937531D01*
X133731365Y-60937535D01*
X133548222Y-61080081D01*
X133548219Y-61080084D01*
X133548216Y-61080086D01*
X133548216Y-61080087D01*
X133494904Y-61137999D01*
X133391016Y-61250852D01*
X133264075Y-61445151D01*
X133170842Y-61657699D01*
X133113866Y-61882691D01*
X133113864Y-61882702D01*
X133094700Y-62113993D01*
X133094700Y-62114006D01*
X131228995Y-62114006D01*
X130725386Y-61790356D01*
X130490481Y-61657699D01*
X130125864Y-61451790D01*
X129703955Y-61244352D01*
X129508001Y-61148008D01*
X128873795Y-60879989D01*
X128873795Y-60879990D01*
X128225328Y-60648618D01*
X127564716Y-60454644D01*
X127564710Y-60454642D01*
X127564708Y-60454642D01*
X127254926Y-60382605D01*
X126894096Y-60298698D01*
X126894097Y-60298698D01*
X126215667Y-60181291D01*
X126215666Y-60181291D01*
X125531644Y-60102807D01*
X124844257Y-60063500D01*
X124844255Y-60063500D01*
X124155745Y-60063500D01*
X124155743Y-60063500D01*
X123468356Y-60102807D01*
X122784334Y-60181291D01*
X122784333Y-60181291D01*
X122105903Y-60298698D01*
X122105904Y-60298698D01*
X121745073Y-60382605D01*
X121435292Y-60454642D01*
X121435289Y-60454642D01*
X121435284Y-60454644D01*
X121435283Y-60454644D01*
X120774672Y-60648618D01*
X120126205Y-60879990D01*
X120126205Y-60879989D01*
X119491999Y-61148008D01*
X119296045Y-61244352D01*
X118874136Y-61451790D01*
X118509519Y-61657699D01*
X118274614Y-61790356D01*
X117695402Y-62162593D01*
X117695398Y-62162596D01*
X117695397Y-62162596D01*
X117138375Y-62567297D01*
X116843700Y-62808252D01*
X116605381Y-63003124D01*
X116119024Y-63449500D01*
X116098124Y-63468682D01*
X116089938Y-63477105D01*
X115618279Y-63962430D01*
X115463121Y-64141492D01*
X115167394Y-64482780D01*
X115167395Y-64482779D01*
X114746960Y-65028009D01*
X114358335Y-65596356D01*
X114150481Y-65941043D01*
X114002794Y-66185955D01*
X113851046Y-66473550D01*
X113681489Y-66794895D01*
X113681489Y-66794896D01*
X113395471Y-67421187D01*
X113395470Y-67421188D01*
X113145675Y-68062781D01*
X113084844Y-68250000D01*
X112932913Y-68717597D01*
X112765615Y-69354066D01*
X112757877Y-69383503D01*
X112621150Y-70058284D01*
X112523163Y-70739792D01*
X112464245Y-71425768D01*
X112444584Y-72114000D01*
X112054300Y-72114000D01*
X112054300Y-71346435D01*
X112054413Y-71342690D01*
X112058157Y-71280794D01*
X112046977Y-71219786D01*
X112046415Y-71216089D01*
X112038940Y-71154529D01*
X112038939Y-71154525D01*
X112035346Y-71145051D01*
X112029319Y-71123429D01*
X112027494Y-71113470D01*
X112027494Y-71113468D01*
X112002041Y-71056914D01*
X112000607Y-71053452D01*
X111996410Y-71042385D01*
X111978618Y-70995470D01*
X111972858Y-70987126D01*
X111961835Y-70967580D01*
X111957678Y-70958343D01*
X111919417Y-70909507D01*
X111917217Y-70906517D01*
X111900586Y-70882421D01*
X111881985Y-70855473D01*
X111881983Y-70855471D01*
X111835550Y-70814335D01*
X111832856Y-70811799D01*
X110101998Y-69080941D01*
X110099464Y-69078250D01*
X110058329Y-69031817D01*
X110058328Y-69031816D01*
X110058324Y-69031812D01*
X110007296Y-68996591D01*
X110004287Y-68994377D01*
X109955460Y-68956124D01*
X109955455Y-68956120D01*
X109946213Y-68951961D01*
X109926666Y-68940936D01*
X109918331Y-68935183D01*
X109918332Y-68935183D01*
X109918330Y-68935182D01*
X109860341Y-68913189D01*
X109856890Y-68911759D01*
X109800330Y-68886304D01*
X109790346Y-68884474D01*
X109768743Y-68878451D01*
X109759274Y-68874860D01*
X109759270Y-68874859D01*
X109697713Y-68867384D01*
X109694012Y-68866821D01*
X109633008Y-68855642D01*
X109633003Y-68855642D01*
X109571097Y-68859387D01*
X109567352Y-68859500D01*
X108824735Y-68859500D01*
X108757696Y-68839815D01*
X108732880Y-68817725D01*
X108732713Y-68817893D01*
X108729834Y-68815014D01*
X108728885Y-68814169D01*
X108728410Y-68813590D01*
X108728408Y-68813588D01*
X108728407Y-68813587D01*
X108602835Y-68710533D01*
X108563501Y-68652788D01*
X108557500Y-68614680D01*
X108557500Y-68005319D01*
X108577185Y-67938280D01*
X108602836Y-67909465D01*
X108661184Y-67861581D01*
X108728410Y-67806410D01*
X108859685Y-67646450D01*
X108957232Y-67463954D01*
X109017300Y-67265934D01*
X109037583Y-67060000D01*
X109017300Y-66854066D01*
X108957232Y-66656046D01*
X108859685Y-66473550D01*
X108728410Y-66313590D01*
X108728409Y-66313589D01*
X108602835Y-66210533D01*
X108563501Y-66152788D01*
X108557500Y-66114680D01*
X108557500Y-65208035D01*
X108557613Y-65204290D01*
X108561357Y-65142394D01*
X108550177Y-65081386D01*
X108549615Y-65077689D01*
X108542140Y-65016129D01*
X108542139Y-65016125D01*
X108538546Y-65006651D01*
X108532519Y-64985029D01*
X108530694Y-64975070D01*
X108530694Y-64975068D01*
X108529545Y-64972516D01*
X108505243Y-64918520D01*
X108503809Y-64915057D01*
X108498479Y-64901003D01*
X108481818Y-64857070D01*
X108476059Y-64848727D01*
X108465030Y-64829172D01*
X108460877Y-64819943D01*
X108460874Y-64819938D01*
X108422633Y-64771127D01*
X108420413Y-64768110D01*
X108396580Y-64733583D01*
X108385183Y-64717071D01*
X108338750Y-64675935D01*
X108336056Y-64673399D01*
X107556819Y-63894161D01*
X107523334Y-63832838D01*
X107520500Y-63806480D01*
X107520500Y-61402000D01*
X108402659Y-61402000D01*
X108421975Y-61598129D01*
X108479188Y-61786733D01*
X108572086Y-61960532D01*
X108572090Y-61960539D01*
X108697116Y-62112883D01*
X108849460Y-62237909D01*
X108849467Y-62237913D01*
X109023266Y-62330811D01*
X109023269Y-62330811D01*
X109023273Y-62330814D01*
X109211868Y-62388024D01*
X109408000Y-62407341D01*
X109604132Y-62388024D01*
X109792727Y-62330814D01*
X109966538Y-62237910D01*
X110117515Y-62114006D01*
X113094700Y-62114006D01*
X113113864Y-62345297D01*
X113113866Y-62345308D01*
X113170842Y-62570300D01*
X113264075Y-62782848D01*
X113391016Y-62977147D01*
X113391019Y-62977151D01*
X113391021Y-62977153D01*
X113548216Y-63147913D01*
X113548219Y-63147915D01*
X113548222Y-63147918D01*
X113731365Y-63290464D01*
X113731371Y-63290468D01*
X113731374Y-63290470D01*
X113935497Y-63400936D01*
X114014329Y-63427999D01*
X114155015Y-63476297D01*
X114155017Y-63476297D01*
X114155019Y-63476298D01*
X114383951Y-63514500D01*
X114383952Y-63514500D01*
X114616048Y-63514500D01*
X114616049Y-63514500D01*
X114844981Y-63476298D01*
X115064503Y-63400936D01*
X115268626Y-63290470D01*
X115289732Y-63274043D01*
X115366216Y-63214513D01*
X115451784Y-63147913D01*
X115608979Y-62977153D01*
X115735924Y-62782849D01*
X115829157Y-62570300D01*
X115886134Y-62345305D01*
X115887335Y-62330811D01*
X115905300Y-62114006D01*
X115905300Y-62113993D01*
X115886135Y-61882702D01*
X115886133Y-61882691D01*
X115829157Y-61657699D01*
X115735924Y-61445151D01*
X115608983Y-61250852D01*
X115608980Y-61250849D01*
X115608979Y-61250847D01*
X115451784Y-61080087D01*
X115451779Y-61080083D01*
X115451777Y-61080081D01*
X115268634Y-60937535D01*
X115268628Y-60937531D01*
X115064504Y-60827064D01*
X115064495Y-60827061D01*
X114844984Y-60751702D01*
X114673282Y-60723050D01*
X114616049Y-60713500D01*
X114383951Y-60713500D01*
X114338164Y-60721140D01*
X114155015Y-60751702D01*
X113935504Y-60827061D01*
X113935495Y-60827064D01*
X113731371Y-60937531D01*
X113731365Y-60937535D01*
X113548222Y-61080081D01*
X113548219Y-61080084D01*
X113548216Y-61080086D01*
X113548216Y-61080087D01*
X113494904Y-61137999D01*
X113391016Y-61250852D01*
X113264075Y-61445151D01*
X113170842Y-61657699D01*
X113113866Y-61882691D01*
X113113864Y-61882702D01*
X113094700Y-62113993D01*
X113094700Y-62114006D01*
X110117515Y-62114006D01*
X110118883Y-62112883D01*
X110243910Y-61960538D01*
X110321393Y-61815578D01*
X110336811Y-61786733D01*
X110336811Y-61786732D01*
X110336814Y-61786727D01*
X110394024Y-61598132D01*
X110413341Y-61402000D01*
X110394024Y-61205868D01*
X110336814Y-61017273D01*
X110336811Y-61017269D01*
X110336811Y-61017266D01*
X110243913Y-60843467D01*
X110243909Y-60843460D01*
X110118883Y-60691116D01*
X109966539Y-60566090D01*
X109966532Y-60566086D01*
X109792733Y-60473188D01*
X109792727Y-60473186D01*
X109604132Y-60415976D01*
X109604129Y-60415975D01*
X109408000Y-60396659D01*
X109211870Y-60415975D01*
X109023266Y-60473188D01*
X108849467Y-60566086D01*
X108849460Y-60566090D01*
X108697116Y-60691116D01*
X108572090Y-60843460D01*
X108572086Y-60843467D01*
X108479188Y-61017266D01*
X108421975Y-61205870D01*
X108402659Y-61402000D01*
X107520500Y-61402000D01*
X107520500Y-58862000D01*
X108402659Y-58862000D01*
X108421975Y-59058129D01*
X108479188Y-59246733D01*
X108572086Y-59420532D01*
X108572090Y-59420539D01*
X108697116Y-59572883D01*
X108849460Y-59697909D01*
X108849467Y-59697913D01*
X109023266Y-59790811D01*
X109023269Y-59790811D01*
X109023273Y-59790814D01*
X109211868Y-59848024D01*
X109408000Y-59867341D01*
X109604132Y-59848024D01*
X109792727Y-59790814D01*
X109840661Y-59765193D01*
X109944866Y-59709494D01*
X109966538Y-59697910D01*
X110118883Y-59572883D01*
X110243910Y-59420538D01*
X110336814Y-59246727D01*
X110394024Y-59058132D01*
X110413341Y-58862000D01*
X110394024Y-58665868D01*
X110336814Y-58477273D01*
X110336811Y-58477269D01*
X110336811Y-58477266D01*
X110243913Y-58303467D01*
X110243909Y-58303460D01*
X110118883Y-58151116D01*
X109966539Y-58026090D01*
X109966532Y-58026086D01*
X109792733Y-57933188D01*
X109792727Y-57933186D01*
X109604132Y-57875976D01*
X109604129Y-57875975D01*
X109408000Y-57856659D01*
X109211870Y-57875975D01*
X109023266Y-57933188D01*
X108849467Y-58026086D01*
X108849460Y-58026090D01*
X108697116Y-58151116D01*
X108572090Y-58303460D01*
X108572086Y-58303467D01*
X108479188Y-58477266D01*
X108421975Y-58665870D01*
X108402659Y-58862000D01*
X107520500Y-58862000D01*
X107520500Y-56322000D01*
X108402659Y-56322000D01*
X108421975Y-56518129D01*
X108421976Y-56518132D01*
X108453973Y-56623613D01*
X108479188Y-56706733D01*
X108572086Y-56880532D01*
X108572090Y-56880539D01*
X108697116Y-57032883D01*
X108849460Y-57157909D01*
X108849467Y-57157913D01*
X109023266Y-57250811D01*
X109023269Y-57250811D01*
X109023273Y-57250814D01*
X109211868Y-57308024D01*
X109408000Y-57327341D01*
X109604132Y-57308024D01*
X109792727Y-57250814D01*
X109966538Y-57157910D01*
X110118883Y-57032883D01*
X110243910Y-56880538D01*
X110336814Y-56706727D01*
X110336815Y-56706723D01*
X110339144Y-56701103D01*
X110341260Y-56701979D01*
X110373945Y-56652083D01*
X110437751Y-56623613D01*
X110454328Y-56622500D01*
X111537595Y-56622500D01*
X111604634Y-56642185D01*
X111650389Y-56694989D01*
X111660998Y-56734346D01*
X111664699Y-56771932D01*
X111694733Y-56870944D01*
X111724768Y-56969954D01*
X111822315Y-57152450D01*
X111852447Y-57189166D01*
X111953589Y-57312410D01*
X112000004Y-57350501D01*
X112113550Y-57443685D01*
X112296046Y-57541232D01*
X112494066Y-57601300D01*
X112494065Y-57601300D01*
X112512529Y-57603118D01*
X112700000Y-57621583D01*
X112905934Y-57601300D01*
X113103954Y-57541232D01*
X113286450Y-57443685D01*
X113446410Y-57312410D01*
X113577685Y-57152450D01*
X113675232Y-56969954D01*
X113735300Y-56771934D01*
X113755583Y-56566000D01*
X113735300Y-56360066D01*
X113675232Y-56162046D01*
X113577685Y-55979550D01*
X113475417Y-55854935D01*
X113446410Y-55819589D01*
X113325729Y-55720550D01*
X113286450Y-55688315D01*
X113103954Y-55590768D01*
X112905934Y-55530700D01*
X112905932Y-55530699D01*
X112905934Y-55530699D01*
X112700000Y-55510417D01*
X112494067Y-55530699D01*
X112296043Y-55590769D01*
X112221728Y-55630492D01*
X112113550Y-55688315D01*
X112113548Y-55688316D01*
X112113547Y-55688317D01*
X111953589Y-55819589D01*
X111825094Y-55976164D01*
X111767348Y-56015499D01*
X111729240Y-56021500D01*
X110454328Y-56021500D01*
X110387289Y-56001815D01*
X110341534Y-55949011D01*
X110339212Y-55942868D01*
X110339144Y-55942897D01*
X110336814Y-55937273D01*
X110243913Y-55763467D01*
X110243909Y-55763460D01*
X110118883Y-55611116D01*
X109966539Y-55486090D01*
X109966532Y-55486086D01*
X109792733Y-55393188D01*
X109792727Y-55393186D01*
X109604132Y-55335976D01*
X109604129Y-55335975D01*
X109408000Y-55316659D01*
X109211870Y-55335975D01*
X109023266Y-55393188D01*
X108849467Y-55486086D01*
X108849460Y-55486090D01*
X108697116Y-55611116D01*
X108572090Y-55763460D01*
X108572086Y-55763467D01*
X108479188Y-55937266D01*
X108421975Y-56125870D01*
X108402659Y-56322000D01*
X107520500Y-56322000D01*
X107520500Y-49944500D01*
X107540185Y-49877461D01*
X107592989Y-49831706D01*
X107644500Y-49820500D01*
X107745500Y-49820500D01*
X107812539Y-49840185D01*
X107858294Y-49892989D01*
X107869500Y-49944500D01*
X107869500Y-52626058D01*
X107866667Y-52652406D01*
X107865641Y-52657127D01*
X107869123Y-52705815D01*
X107869342Y-52708869D01*
X107869500Y-52713294D01*
X107869500Y-52728999D01*
X107871734Y-52744543D01*
X107872207Y-52748940D01*
X107875909Y-52800685D01*
X107877593Y-52805200D01*
X107884148Y-52830882D01*
X107884834Y-52835655D01*
X107884835Y-52835657D01*
X107906383Y-52882842D01*
X107908071Y-52886916D01*
X107926203Y-52935529D01*
X107929096Y-52939394D01*
X107942617Y-52962183D01*
X107944619Y-52966567D01*
X107944622Y-52966571D01*
X107944623Y-52966573D01*
X107978598Y-53005783D01*
X107981362Y-53009213D01*
X107987939Y-53018000D01*
X107990779Y-53021793D01*
X108001889Y-53032903D01*
X108004893Y-53036129D01*
X108009752Y-53041737D01*
X108032223Y-53079607D01*
X108037237Y-53093048D01*
X108039804Y-53099931D01*
X108042696Y-53103794D01*
X108056217Y-53126583D01*
X108058219Y-53130967D01*
X108058222Y-53130971D01*
X108058223Y-53130973D01*
X108092198Y-53170183D01*
X108094962Y-53173613D01*
X108104375Y-53186188D01*
X108104382Y-53186196D01*
X108115486Y-53197300D01*
X108118496Y-53200532D01*
X108130217Y-53214059D01*
X108152471Y-53239742D01*
X108152474Y-53239745D01*
X108156528Y-53242350D01*
X108177171Y-53258985D01*
X108388726Y-53470540D01*
X108422211Y-53531863D01*
X108422665Y-53582401D01*
X108421976Y-53585865D01*
X108402659Y-53782000D01*
X108421975Y-53978129D01*
X108479188Y-54166733D01*
X108572086Y-54340532D01*
X108572090Y-54340539D01*
X108697116Y-54492883D01*
X108849460Y-54617909D01*
X108849467Y-54617913D01*
X109023266Y-54710811D01*
X109023269Y-54710811D01*
X109023273Y-54710814D01*
X109211868Y-54768024D01*
X109408000Y-54787341D01*
X109604132Y-54768024D01*
X109792727Y-54710814D01*
X109821378Y-54695500D01*
X109905566Y-54650500D01*
X109966538Y-54617910D01*
X110043623Y-54554647D01*
X110107934Y-54527334D01*
X110122289Y-54526500D01*
X111525500Y-54526500D01*
X111592539Y-54546185D01*
X111638294Y-54598989D01*
X111649500Y-54650500D01*
X111649500Y-54895752D01*
X111661131Y-54954229D01*
X111661132Y-54954230D01*
X111705447Y-55020552D01*
X111771769Y-55064867D01*
X111771770Y-55064868D01*
X111830247Y-55076499D01*
X111830250Y-55076500D01*
X111830252Y-55076500D01*
X113569750Y-55076500D01*
X113569751Y-55076499D01*
X113584568Y-55073552D01*
X113628229Y-55064868D01*
X113628229Y-55064867D01*
X113628231Y-55064867D01*
X113694552Y-55020552D01*
X113738867Y-54954231D01*
X113738867Y-54954229D01*
X113738868Y-54954229D01*
X113750499Y-54895752D01*
X113750500Y-54895750D01*
X113750500Y-54650500D01*
X113770185Y-54583461D01*
X113822989Y-54537706D01*
X113874500Y-54526500D01*
X116505324Y-54526500D01*
X116572363Y-54546185D01*
X116592999Y-54562813D01*
X116693183Y-54662997D01*
X116726666Y-54724316D01*
X116729500Y-54750675D01*
X116729500Y-55821269D01*
X116732353Y-55851699D01*
X116732353Y-55851701D01*
X116777091Y-55979550D01*
X116777207Y-55979882D01*
X116857850Y-56089150D01*
X116967118Y-56169793D01*
X117009845Y-56184743D01*
X117095299Y-56214646D01*
X117125730Y-56217500D01*
X117125734Y-56217500D01*
X118196324Y-56217500D01*
X118263363Y-56237185D01*
X118284005Y-56253819D01*
X118853614Y-56823428D01*
X118870246Y-56844066D01*
X118872854Y-56848125D01*
X118872857Y-56848128D01*
X118912067Y-56882103D01*
X118915283Y-56885097D01*
X118926407Y-56896221D01*
X118926412Y-56896224D01*
X118926417Y-56896229D01*
X118938979Y-56905633D01*
X118942427Y-56908411D01*
X118968970Y-56931410D01*
X118981627Y-56942377D01*
X118986010Y-56944379D01*
X119008807Y-56957905D01*
X119012669Y-56960796D01*
X119061295Y-56978932D01*
X119065351Y-56980612D01*
X119077649Y-56986229D01*
X119112540Y-57002164D01*
X119112541Y-57002164D01*
X119112543Y-57002165D01*
X119117312Y-57002850D01*
X119143002Y-57009407D01*
X119147517Y-57011091D01*
X119199258Y-57014791D01*
X119203657Y-57015264D01*
X119219201Y-57017500D01*
X119234906Y-57017500D01*
X119239328Y-57017657D01*
X119291073Y-57021359D01*
X119295784Y-57020334D01*
X119322143Y-57017500D01*
X129699857Y-57017500D01*
X129726215Y-57020334D01*
X129730927Y-57021359D01*
X129782671Y-57017657D01*
X129787094Y-57017500D01*
X129802799Y-57017500D01*
X129818342Y-57015264D01*
X129822740Y-57014791D01*
X129874483Y-57011091D01*
X129878992Y-57009408D01*
X129904685Y-57002850D01*
X129909457Y-57002165D01*
X129956646Y-56980613D01*
X129960736Y-56978920D01*
X129992166Y-56967198D01*
X130009329Y-56960797D01*
X130009329Y-56960796D01*
X130009331Y-56960796D01*
X130013189Y-56957907D01*
X130035995Y-56944375D01*
X130040373Y-56942377D01*
X130079571Y-56908411D01*
X130083014Y-56905637D01*
X130085930Y-56903453D01*
X130095593Y-56896221D01*
X130106720Y-56885092D01*
X130109925Y-56882109D01*
X130149143Y-56848128D01*
X130151751Y-56844068D01*
X130168381Y-56823431D01*
X130737994Y-56253819D01*
X130799318Y-56220334D01*
X130825676Y-56217500D01*
X131896270Y-56217500D01*
X131926699Y-56214646D01*
X131926701Y-56214646D01*
X131990790Y-56192219D01*
X132054882Y-56169793D01*
X132164150Y-56089150D01*
X132244793Y-55979882D01*
X132269535Y-55909173D01*
X132289646Y-55851701D01*
X132289646Y-55851699D01*
X132290734Y-55840095D01*
X132292500Y-55821266D01*
X132292500Y-54316828D01*
X132312184Y-54249793D01*
X132364987Y-54204038D01*
X132434146Y-54194094D01*
X132497702Y-54223119D01*
X132504180Y-54229151D01*
X132719173Y-54444144D01*
X132752658Y-54505467D01*
X132750153Y-54567818D01*
X132740698Y-54598989D01*
X132706699Y-54711067D01*
X132691500Y-54865395D01*
X132691500Y-55218604D01*
X132706699Y-55372932D01*
X132736614Y-55471547D01*
X132766768Y-55570954D01*
X132864315Y-55753450D01*
X132864815Y-55754059D01*
X132995589Y-55913410D01*
X133076182Y-55979550D01*
X133155550Y-56044685D01*
X133338046Y-56142232D01*
X133536066Y-56202300D01*
X133536065Y-56202300D01*
X133556347Y-56204297D01*
X133742000Y-56222583D01*
X133947934Y-56202300D01*
X134145954Y-56142232D01*
X134328450Y-56044685D01*
X134488410Y-55913410D01*
X134619685Y-55753450D01*
X134717232Y-55570954D01*
X134717234Y-55570948D01*
X134719562Y-55565330D01*
X134721603Y-55566175D01*
X134754447Y-55516041D01*
X134818254Y-55487573D01*
X134887323Y-55498120D01*
X134939725Y-55544335D01*
X134954602Y-55578366D01*
X134968567Y-55630486D01*
X134968570Y-55630492D01*
X135068399Y-55844577D01*
X135203886Y-56038073D01*
X135203891Y-56038079D01*
X135370917Y-56205105D01*
X135564421Y-56340600D01*
X135778507Y-56440429D01*
X135778516Y-56440433D01*
X135992000Y-56497634D01*
X135992000Y-55450018D01*
X136106801Y-55502446D01*
X136208025Y-55517000D01*
X136275975Y-55517000D01*
X136377199Y-55502446D01*
X136492000Y-55450018D01*
X136492000Y-56497633D01*
X136705483Y-56440433D01*
X136705492Y-56440429D01*
X136919577Y-56340600D01*
X136919579Y-56340599D01*
X137113073Y-56205113D01*
X137113079Y-56205108D01*
X137280108Y-56038079D01*
X137280113Y-56038073D01*
X137415601Y-55844577D01*
X137515429Y-55630492D01*
X137515433Y-55630483D01*
X137576567Y-55402326D01*
X137576569Y-55402316D01*
X137586221Y-55292000D01*
X136645969Y-55292000D01*
X136678519Y-55241351D01*
X136717000Y-55110295D01*
X136717000Y-54973705D01*
X136678519Y-54842649D01*
X136645969Y-54792000D01*
X137586221Y-54792000D01*
X137576569Y-54681683D01*
X137576568Y-54681677D01*
X137515324Y-54453112D01*
X137516987Y-54383262D01*
X137556149Y-54325399D01*
X137620378Y-54297895D01*
X137689280Y-54309481D01*
X137722780Y-54333337D01*
X142938339Y-59548896D01*
X142971823Y-59610217D01*
X142974657Y-59636575D01*
X142974657Y-65209661D01*
X142974062Y-65218235D01*
X142972384Y-65230266D01*
X142974591Y-65278012D01*
X142974657Y-65280875D01*
X142974657Y-65300348D01*
X142975150Y-65302985D01*
X142976139Y-65311518D01*
X142977572Y-65342494D01*
X142977573Y-65342500D01*
X142980371Y-65348837D01*
X142988821Y-65376123D01*
X142990094Y-65382932D01*
X142990094Y-65382933D01*
X143006417Y-65409296D01*
X143010420Y-65416889D01*
X143022951Y-65445268D01*
X143022952Y-65445269D01*
X143022953Y-65445271D01*
X143027846Y-65450164D01*
X143045592Y-65472568D01*
X143049234Y-65478451D01*
X143049237Y-65478454D01*
X143073983Y-65497142D01*
X143080468Y-65502785D01*
X147186581Y-69608898D01*
X147220066Y-69670221D01*
X147222900Y-69696579D01*
X147222900Y-75070558D01*
X147222305Y-75079132D01*
X147220627Y-75091163D01*
X147222834Y-75138909D01*
X147222900Y-75141772D01*
X147222900Y-75161245D01*
X147223393Y-75163882D01*
X147224382Y-75172415D01*
X147225815Y-75203391D01*
X147225816Y-75203397D01*
X147228614Y-75209734D01*
X147237064Y-75237020D01*
X147238337Y-75243829D01*
X147238337Y-75243830D01*
X147254660Y-75270193D01*
X147258663Y-75277786D01*
X147271194Y-75306165D01*
X147271195Y-75306166D01*
X147271196Y-75306168D01*
X147276089Y-75311061D01*
X147293835Y-75333465D01*
X147297477Y-75339348D01*
X147297480Y-75339351D01*
X147322226Y-75358039D01*
X147328711Y-75363682D01*
X151051081Y-79086053D01*
X151056723Y-79092537D01*
X151064039Y-79102224D01*
X151064040Y-79102225D01*
X151064042Y-79102228D01*
X151089727Y-79125644D01*
X151099364Y-79134429D01*
X151101412Y-79136384D01*
X151115203Y-79150175D01*
X151116663Y-79151175D01*
X151117419Y-79151693D01*
X151124155Y-79157029D01*
X151131415Y-79163647D01*
X151147063Y-79177913D01*
X151147064Y-79177914D01*
X151147067Y-79177916D01*
X151147070Y-79177917D01*
X151153521Y-79180416D01*
X151178806Y-79193743D01*
X151184520Y-79197657D01*
X151214703Y-79204756D01*
X151222911Y-79207298D01*
X151251825Y-79218500D01*
X151251827Y-79218500D01*
X151258752Y-79218500D01*
X151287140Y-79221793D01*
X151293881Y-79223379D01*
X151324591Y-79219094D01*
X151333166Y-79218500D01*
X152639669Y-79218500D01*
X152706708Y-79238185D01*
X152752463Y-79290989D01*
X152762407Y-79360147D01*
X152755611Y-79386467D01*
X152750083Y-79401047D01*
X152703762Y-79523181D01*
X152684722Y-79679999D01*
X152684722Y-79680000D01*
X152703762Y-79836818D01*
X152738687Y-79928906D01*
X152759780Y-79984523D01*
X152849517Y-80114530D01*
X152967760Y-80219283D01*
X152967762Y-80219284D01*
X153107634Y-80292696D01*
X153261014Y-80330500D01*
X153261015Y-80330500D01*
X153418984Y-80330500D01*
X153418985Y-80330500D01*
X153468647Y-80318259D01*
X153538449Y-80321328D01*
X153586004Y-80350975D01*
X154888182Y-81653153D01*
X154921666Y-81714474D01*
X154924500Y-81740832D01*
X154924500Y-82391269D01*
X154927353Y-82421699D01*
X154927353Y-82421701D01*
X154969885Y-82543247D01*
X154972207Y-82549882D01*
X155052850Y-82659150D01*
X155162118Y-82739793D01*
X155204845Y-82754743D01*
X155290299Y-82784646D01*
X155320730Y-82787500D01*
X155320734Y-82787500D01*
X156054270Y-82787500D01*
X156084699Y-82784646D01*
X156084701Y-82784646D01*
X156148790Y-82762219D01*
X156212882Y-82739793D01*
X156322150Y-82659150D01*
X156402793Y-82549882D01*
X156442067Y-82437644D01*
X156447646Y-82421701D01*
X156447646Y-82421699D01*
X156450500Y-82391269D01*
X156450500Y-81482833D01*
X156470185Y-81415794D01*
X156522989Y-81370039D01*
X156592147Y-81360095D01*
X156655703Y-81389120D01*
X156662181Y-81395152D01*
X157147078Y-81880049D01*
X157152721Y-81886533D01*
X157160041Y-81896226D01*
X157160042Y-81896228D01*
X157184659Y-81918669D01*
X157195375Y-81928439D01*
X157197423Y-81930394D01*
X157211203Y-81944174D01*
X157213413Y-81945688D01*
X157220143Y-81951018D01*
X157243067Y-81971916D01*
X157248868Y-81974163D01*
X157249528Y-81974419D01*
X157274809Y-81987745D01*
X157280520Y-81991657D01*
X157310703Y-81998756D01*
X157318911Y-82001298D01*
X157347825Y-82012500D01*
X157347827Y-82012500D01*
X157354752Y-82012500D01*
X157383140Y-82015793D01*
X157389881Y-82017379D01*
X157420591Y-82013094D01*
X157429166Y-82012500D01*
X157725500Y-82012500D01*
X157792539Y-82032185D01*
X157838294Y-82084989D01*
X157849500Y-82136500D01*
X157849500Y-82391269D01*
X157852353Y-82421699D01*
X157852353Y-82421701D01*
X157894885Y-82543247D01*
X157897207Y-82549882D01*
X157977850Y-82659150D01*
X158087118Y-82739793D01*
X158129845Y-82754744D01*
X158215299Y-82784646D01*
X158245730Y-82787500D01*
X158245734Y-82787500D01*
X158979270Y-82787500D01*
X159009699Y-82784646D01*
X159009701Y-82784646D01*
X159073790Y-82762219D01*
X159137882Y-82739793D01*
X159247150Y-82659150D01*
X159327793Y-82549882D01*
X159327794Y-82549880D01*
X159333311Y-82542405D01*
X159335031Y-82543675D01*
X159375091Y-82502506D01*
X159443154Y-82486722D01*
X159508946Y-82510241D01*
X159537546Y-82543247D01*
X159538689Y-82542405D01*
X159544206Y-82549880D01*
X159544207Y-82549882D01*
X159624850Y-82659150D01*
X159734118Y-82739793D01*
X159776845Y-82754743D01*
X159862299Y-82784646D01*
X159892730Y-82787500D01*
X159892734Y-82787500D01*
X160626270Y-82787500D01*
X160656699Y-82784646D01*
X160656701Y-82784646D01*
X160720790Y-82762219D01*
X160784882Y-82739793D01*
X160894150Y-82659150D01*
X160974793Y-82549882D01*
X161014067Y-82437644D01*
X161019646Y-82421701D01*
X161019646Y-82421699D01*
X161022500Y-82391269D01*
X161022500Y-81962000D01*
X162122001Y-81962000D01*
X162122001Y-82386986D01*
X162132494Y-82489697D01*
X162187641Y-82656119D01*
X162187643Y-82656124D01*
X162279684Y-82805345D01*
X162403654Y-82929315D01*
X162552875Y-83021356D01*
X162552880Y-83021358D01*
X162719302Y-83076505D01*
X162719309Y-83076506D01*
X162822019Y-83086999D01*
X162934499Y-83086999D01*
X162934500Y-83086998D01*
X162934500Y-81962000D01*
X163434500Y-81962000D01*
X163434500Y-83086999D01*
X163546972Y-83086999D01*
X163546986Y-83086998D01*
X163649697Y-83076505D01*
X163816119Y-83021358D01*
X163816124Y-83021356D01*
X163965345Y-82929315D01*
X164089315Y-82805345D01*
X164181356Y-82656124D01*
X164181358Y-82656119D01*
X164236505Y-82489697D01*
X164236506Y-82489690D01*
X164246999Y-82386986D01*
X164247000Y-82386964D01*
X164247000Y-81962000D01*
X163434500Y-81962000D01*
X162934500Y-81962000D01*
X162122001Y-81962000D01*
X161022500Y-81962000D01*
X161022500Y-81462000D01*
X162122000Y-81462000D01*
X162934500Y-81462000D01*
X162934500Y-80337000D01*
X163434500Y-80337000D01*
X163434500Y-81462000D01*
X164246999Y-81462000D01*
X164246999Y-81037028D01*
X164246998Y-81037013D01*
X164236505Y-80934302D01*
X164181358Y-80767880D01*
X164181356Y-80767875D01*
X164089315Y-80618654D01*
X163965345Y-80494684D01*
X163816124Y-80402643D01*
X163816119Y-80402641D01*
X163649697Y-80347494D01*
X163649690Y-80347493D01*
X163546986Y-80337000D01*
X163434500Y-80337000D01*
X162934500Y-80337000D01*
X162822027Y-80337000D01*
X162822012Y-80337001D01*
X162719302Y-80347494D01*
X162552880Y-80402641D01*
X162552875Y-80402643D01*
X162403654Y-80494684D01*
X162279684Y-80618654D01*
X162187643Y-80767875D01*
X162187641Y-80767880D01*
X162132494Y-80934302D01*
X162132493Y-80934309D01*
X162122000Y-81037013D01*
X162122000Y-81462000D01*
X161022500Y-81462000D01*
X161022500Y-81032730D01*
X161019646Y-81002300D01*
X161019646Y-81002298D01*
X160974793Y-80874119D01*
X160974792Y-80874117D01*
X160970810Y-80868721D01*
X160894150Y-80764850D01*
X160784882Y-80684207D01*
X160784880Y-80684206D01*
X160656700Y-80639353D01*
X160626270Y-80636500D01*
X160626266Y-80636500D01*
X159892734Y-80636500D01*
X159892730Y-80636500D01*
X159862300Y-80639353D01*
X159862298Y-80639353D01*
X159734119Y-80684206D01*
X159734117Y-80684207D01*
X159697424Y-80711288D01*
X159624850Y-80764850D01*
X159564992Y-80845956D01*
X159538689Y-80881595D01*
X159536968Y-80880325D01*
X159496901Y-80921498D01*
X159428837Y-80937277D01*
X159363046Y-80913752D01*
X159334452Y-80880752D01*
X159333311Y-80881595D01*
X159323810Y-80868721D01*
X159247150Y-80764850D01*
X159137882Y-80684207D01*
X159137880Y-80684206D01*
X159009700Y-80639353D01*
X158979270Y-80636500D01*
X158979266Y-80636500D01*
X158245734Y-80636500D01*
X158245730Y-80636500D01*
X158215300Y-80639353D01*
X158215298Y-80639353D01*
X158087119Y-80684206D01*
X158087117Y-80684207D01*
X157977850Y-80764850D01*
X157897207Y-80874117D01*
X157897206Y-80874119D01*
X157852353Y-81002298D01*
X157852353Y-81002300D01*
X157849500Y-81032730D01*
X157849500Y-81287500D01*
X157829815Y-81354539D01*
X157777011Y-81400294D01*
X157725500Y-81411500D01*
X157579833Y-81411500D01*
X157512794Y-81391815D01*
X157492152Y-81375181D01*
X155306152Y-79189181D01*
X155272667Y-79127858D01*
X155277651Y-79058166D01*
X155319523Y-79002233D01*
X155384987Y-78977816D01*
X155393833Y-78977500D01*
X156054270Y-78977500D01*
X156084699Y-78974646D01*
X156084701Y-78974646D01*
X156148790Y-78952219D01*
X156212882Y-78929793D01*
X156322150Y-78849150D01*
X156402793Y-78739882D01*
X156434110Y-78650384D01*
X156447646Y-78611701D01*
X156447646Y-78611699D01*
X156450500Y-78581269D01*
X156450500Y-77674016D01*
X156470185Y-77606977D01*
X156522989Y-77561222D01*
X156592147Y-77551278D01*
X156655703Y-77580303D01*
X156662181Y-77586335D01*
X157145895Y-78070049D01*
X157151538Y-78076533D01*
X157158858Y-78086226D01*
X157158859Y-78086228D01*
X157182353Y-78107646D01*
X157194192Y-78118439D01*
X157196240Y-78120394D01*
X157210020Y-78134174D01*
X157212230Y-78135688D01*
X157218960Y-78141018D01*
X157241884Y-78161916D01*
X157247685Y-78164163D01*
X157248345Y-78164419D01*
X157273626Y-78177745D01*
X157279337Y-78181657D01*
X157309520Y-78188756D01*
X157317728Y-78191298D01*
X157346642Y-78202500D01*
X157346644Y-78202500D01*
X157353569Y-78202500D01*
X157381957Y-78205793D01*
X157388698Y-78207379D01*
X157419408Y-78203094D01*
X157427983Y-78202500D01*
X157725500Y-78202500D01*
X157792539Y-78222185D01*
X157838294Y-78274989D01*
X157849500Y-78326500D01*
X157849500Y-78581269D01*
X157852353Y-78611699D01*
X157852353Y-78611701D01*
X157894885Y-78733247D01*
X157897207Y-78739882D01*
X157977850Y-78849150D01*
X158087118Y-78929793D01*
X158129845Y-78944743D01*
X158215299Y-78974646D01*
X158245730Y-78977500D01*
X158245734Y-78977500D01*
X158979270Y-78977500D01*
X159009699Y-78974646D01*
X159009701Y-78974646D01*
X159073790Y-78952219D01*
X159137882Y-78929793D01*
X159247150Y-78849150D01*
X159327793Y-78739882D01*
X159327794Y-78739880D01*
X159333311Y-78732405D01*
X159335031Y-78733675D01*
X159375091Y-78692506D01*
X159443154Y-78676722D01*
X159508946Y-78700241D01*
X159537546Y-78733247D01*
X159538689Y-78732405D01*
X159544206Y-78739880D01*
X159544207Y-78739882D01*
X159624850Y-78849150D01*
X159734118Y-78929793D01*
X159776845Y-78944744D01*
X159862299Y-78974646D01*
X159892730Y-78977500D01*
X159892734Y-78977500D01*
X160626270Y-78977500D01*
X160656699Y-78974646D01*
X160656701Y-78974646D01*
X160720790Y-78952219D01*
X160784882Y-78929793D01*
X160894150Y-78849150D01*
X160974793Y-78739882D01*
X161006110Y-78650384D01*
X161019646Y-78611701D01*
X161019646Y-78611699D01*
X161022500Y-78581269D01*
X161022500Y-78152000D01*
X162122001Y-78152000D01*
X162122001Y-78576986D01*
X162132494Y-78679697D01*
X162187641Y-78846119D01*
X162187643Y-78846124D01*
X162279684Y-78995345D01*
X162403654Y-79119315D01*
X162552875Y-79211356D01*
X162552880Y-79211358D01*
X162719302Y-79266505D01*
X162719309Y-79266506D01*
X162822019Y-79276999D01*
X162934499Y-79276999D01*
X162934500Y-79276998D01*
X162934500Y-78152000D01*
X163434500Y-78152000D01*
X163434500Y-79276999D01*
X163546972Y-79276999D01*
X163546986Y-79276998D01*
X163649697Y-79266505D01*
X163816119Y-79211358D01*
X163816124Y-79211356D01*
X163965345Y-79119315D01*
X164089315Y-78995345D01*
X164181356Y-78846124D01*
X164181358Y-78846119D01*
X164236505Y-78679697D01*
X164236506Y-78679690D01*
X164246999Y-78576986D01*
X164247000Y-78576973D01*
X164247000Y-78152000D01*
X163434500Y-78152000D01*
X162934500Y-78152000D01*
X162122001Y-78152000D01*
X161022500Y-78152000D01*
X161022500Y-77652000D01*
X162122000Y-77652000D01*
X162934500Y-77652000D01*
X162934500Y-76527000D01*
X163434500Y-76527000D01*
X163434500Y-77652000D01*
X164246999Y-77652000D01*
X164246999Y-77227028D01*
X164246998Y-77227013D01*
X164236505Y-77124302D01*
X164181358Y-76957880D01*
X164181356Y-76957875D01*
X164089315Y-76808654D01*
X163965345Y-76684684D01*
X163816124Y-76592643D01*
X163816119Y-76592641D01*
X163649697Y-76537494D01*
X163649690Y-76537493D01*
X163546986Y-76527000D01*
X163434500Y-76527000D01*
X162934500Y-76527000D01*
X162822027Y-76527000D01*
X162822012Y-76527001D01*
X162719302Y-76537494D01*
X162552880Y-76592641D01*
X162552875Y-76592643D01*
X162403654Y-76684684D01*
X162279684Y-76808654D01*
X162187643Y-76957875D01*
X162187641Y-76957880D01*
X162132494Y-77124302D01*
X162132493Y-77124309D01*
X162122000Y-77227013D01*
X162122000Y-77652000D01*
X161022500Y-77652000D01*
X161022500Y-77222730D01*
X161019646Y-77192300D01*
X161019646Y-77192298D01*
X160983636Y-77089391D01*
X160974793Y-77064118D01*
X160894150Y-76954850D01*
X160784882Y-76874207D01*
X160784880Y-76874206D01*
X160656700Y-76829353D01*
X160626270Y-76826500D01*
X160626266Y-76826500D01*
X159892734Y-76826500D01*
X159892730Y-76826500D01*
X159862300Y-76829353D01*
X159862298Y-76829353D01*
X159734119Y-76874206D01*
X159734117Y-76874207D01*
X159624850Y-76954850D01*
X159538689Y-77071595D01*
X159536968Y-77070325D01*
X159496901Y-77111498D01*
X159428837Y-77127277D01*
X159363046Y-77103752D01*
X159334452Y-77070752D01*
X159333311Y-77071595D01*
X159327792Y-77064117D01*
X159247150Y-76954850D01*
X159137882Y-76874207D01*
X159137880Y-76874206D01*
X159009700Y-76829353D01*
X158979270Y-76826500D01*
X158979266Y-76826500D01*
X158245734Y-76826500D01*
X158245730Y-76826500D01*
X158215300Y-76829353D01*
X158215298Y-76829353D01*
X158087119Y-76874206D01*
X158087117Y-76874207D01*
X157977850Y-76954850D01*
X157897207Y-77064117D01*
X157897206Y-77064119D01*
X157852353Y-77192298D01*
X157852353Y-77192300D01*
X157849500Y-77222730D01*
X157849500Y-77477500D01*
X157829815Y-77544539D01*
X157777011Y-77590294D01*
X157725500Y-77601500D01*
X157578650Y-77601500D01*
X157511611Y-77581815D01*
X157490969Y-77565181D01*
X156408484Y-76482696D01*
X155304967Y-75379180D01*
X155271483Y-75317858D01*
X155276467Y-75248166D01*
X155318339Y-75192233D01*
X155383803Y-75167816D01*
X155392649Y-75167500D01*
X156054270Y-75167500D01*
X156084699Y-75164646D01*
X156084701Y-75164646D01*
X156158251Y-75138909D01*
X156212882Y-75119793D01*
X156322150Y-75039150D01*
X156402793Y-74929882D01*
X156432665Y-74844513D01*
X156447646Y-74801701D01*
X156447646Y-74801699D01*
X156450500Y-74771269D01*
X156450500Y-73864016D01*
X156470185Y-73796977D01*
X156522989Y-73751222D01*
X156592147Y-73741278D01*
X156655703Y-73770303D01*
X156662181Y-73776335D01*
X157145895Y-74260049D01*
X157151538Y-74266533D01*
X157158858Y-74276226D01*
X157158859Y-74276228D01*
X157183476Y-74298669D01*
X157194192Y-74308439D01*
X157196240Y-74310394D01*
X157210020Y-74324174D01*
X157212230Y-74325688D01*
X157218960Y-74331018D01*
X157241884Y-74351916D01*
X157247434Y-74354066D01*
X157248345Y-74354419D01*
X157273626Y-74367745D01*
X157279337Y-74371657D01*
X157309520Y-74378756D01*
X157317728Y-74381298D01*
X157346642Y-74392500D01*
X157346644Y-74392500D01*
X157353569Y-74392500D01*
X157381957Y-74395793D01*
X157388698Y-74397379D01*
X157419408Y-74393094D01*
X157427983Y-74392500D01*
X157725500Y-74392500D01*
X157792539Y-74412185D01*
X157838294Y-74464989D01*
X157849500Y-74516500D01*
X157849500Y-74771269D01*
X157852353Y-74801699D01*
X157852353Y-74801701D01*
X157894885Y-74923247D01*
X157897207Y-74929882D01*
X157977850Y-75039150D01*
X158087118Y-75119793D01*
X158129845Y-75134743D01*
X158215299Y-75164646D01*
X158245730Y-75167500D01*
X158245734Y-75167500D01*
X158979270Y-75167500D01*
X159009699Y-75164646D01*
X159009701Y-75164646D01*
X159083251Y-75138909D01*
X159137882Y-75119793D01*
X159247150Y-75039150D01*
X159327793Y-74929882D01*
X159327794Y-74929880D01*
X159333311Y-74922405D01*
X159335031Y-74923675D01*
X159375091Y-74882506D01*
X159443154Y-74866722D01*
X159508946Y-74890241D01*
X159537546Y-74923247D01*
X159538689Y-74922405D01*
X159544206Y-74929880D01*
X159544207Y-74929882D01*
X159624850Y-75039150D01*
X159734118Y-75119793D01*
X159776845Y-75134744D01*
X159862299Y-75164646D01*
X159892730Y-75167500D01*
X159892734Y-75167500D01*
X160626270Y-75167500D01*
X160656699Y-75164646D01*
X160656701Y-75164646D01*
X160730251Y-75138909D01*
X160784882Y-75119793D01*
X160894150Y-75039150D01*
X160974793Y-74929882D01*
X161004665Y-74844513D01*
X161019646Y-74801701D01*
X161019646Y-74801699D01*
X161022500Y-74771269D01*
X161022500Y-74342000D01*
X162122001Y-74342000D01*
X162122001Y-74766986D01*
X162132494Y-74869697D01*
X162187641Y-75036119D01*
X162187643Y-75036124D01*
X162279684Y-75185345D01*
X162403654Y-75309315D01*
X162552875Y-75401356D01*
X162552880Y-75401358D01*
X162719302Y-75456505D01*
X162719309Y-75456506D01*
X162822019Y-75466999D01*
X162934499Y-75466999D01*
X162934500Y-75466998D01*
X162934500Y-74342000D01*
X163434500Y-74342000D01*
X163434500Y-75466999D01*
X163546972Y-75466999D01*
X163546986Y-75466998D01*
X163649697Y-75456505D01*
X163816119Y-75401358D01*
X163816124Y-75401356D01*
X163965345Y-75309315D01*
X164089315Y-75185345D01*
X164181356Y-75036124D01*
X164181358Y-75036119D01*
X164236505Y-74869697D01*
X164236506Y-74869690D01*
X164246999Y-74766986D01*
X164247000Y-74766973D01*
X164247000Y-74342000D01*
X163434500Y-74342000D01*
X162934500Y-74342000D01*
X162122001Y-74342000D01*
X161022500Y-74342000D01*
X161022500Y-73842000D01*
X162122000Y-73842000D01*
X162934500Y-73842000D01*
X162934500Y-72717000D01*
X163434500Y-72717000D01*
X163434500Y-73842000D01*
X164246999Y-73842000D01*
X164246999Y-73417028D01*
X164246998Y-73417013D01*
X164236505Y-73314302D01*
X164181358Y-73147880D01*
X164181356Y-73147875D01*
X164089315Y-72998654D01*
X163965345Y-72874684D01*
X163816124Y-72782643D01*
X163816119Y-72782641D01*
X163649697Y-72727494D01*
X163649690Y-72727493D01*
X163546986Y-72717000D01*
X163434500Y-72717000D01*
X162934500Y-72717000D01*
X162822027Y-72717000D01*
X162822012Y-72717001D01*
X162719302Y-72727494D01*
X162552880Y-72782641D01*
X162552875Y-72782643D01*
X162403654Y-72874684D01*
X162279684Y-72998654D01*
X162187643Y-73147875D01*
X162187641Y-73147880D01*
X162132494Y-73314302D01*
X162132493Y-73314309D01*
X162122000Y-73417013D01*
X162122000Y-73842000D01*
X161022500Y-73842000D01*
X161022500Y-73412730D01*
X161019646Y-73382300D01*
X161019646Y-73382298D01*
X160984526Y-73281934D01*
X160974793Y-73254118D01*
X160894150Y-73144850D01*
X160784882Y-73064207D01*
X160784880Y-73064206D01*
X160656700Y-73019353D01*
X160626270Y-73016500D01*
X160626266Y-73016500D01*
X159892734Y-73016500D01*
X159892730Y-73016500D01*
X159862300Y-73019353D01*
X159862298Y-73019353D01*
X159734119Y-73064206D01*
X159734117Y-73064207D01*
X159624850Y-73144850D01*
X159538689Y-73261595D01*
X159536968Y-73260325D01*
X159496901Y-73301498D01*
X159428837Y-73317277D01*
X159363046Y-73293752D01*
X159334452Y-73260752D01*
X159333311Y-73261595D01*
X159312649Y-73233599D01*
X159247150Y-73144850D01*
X159137882Y-73064207D01*
X159137880Y-73064206D01*
X159009700Y-73019353D01*
X158979270Y-73016500D01*
X158979266Y-73016500D01*
X158245734Y-73016500D01*
X158245730Y-73016500D01*
X158215300Y-73019353D01*
X158215298Y-73019353D01*
X158087119Y-73064206D01*
X158087117Y-73064207D01*
X157977850Y-73144850D01*
X157897207Y-73254117D01*
X157897206Y-73254119D01*
X157852353Y-73382298D01*
X157852353Y-73382300D01*
X157849500Y-73412730D01*
X157849500Y-73667500D01*
X157829815Y-73734539D01*
X157777011Y-73780294D01*
X157725500Y-73791500D01*
X157578650Y-73791500D01*
X157511611Y-73771815D01*
X157490969Y-73755181D01*
X156407831Y-72672043D01*
X155304967Y-71569180D01*
X155271483Y-71507858D01*
X155276467Y-71438166D01*
X155318339Y-71382233D01*
X155383803Y-71357816D01*
X155392649Y-71357500D01*
X156054270Y-71357500D01*
X156084699Y-71354646D01*
X156084701Y-71354646D01*
X156148790Y-71332219D01*
X156212882Y-71309793D01*
X156322150Y-71229150D01*
X156402793Y-71119882D01*
X156434124Y-71030343D01*
X156447646Y-70991701D01*
X156447646Y-70991699D01*
X156450500Y-70961269D01*
X156450500Y-70054016D01*
X156470185Y-69986977D01*
X156522989Y-69941222D01*
X156592147Y-69931278D01*
X156655703Y-69960303D01*
X156662181Y-69966335D01*
X157145895Y-70450049D01*
X157151538Y-70456533D01*
X157158858Y-70466226D01*
X157158859Y-70466228D01*
X157183476Y-70488669D01*
X157194192Y-70498439D01*
X157196240Y-70500394D01*
X157210020Y-70514174D01*
X157212230Y-70515688D01*
X157218960Y-70521018D01*
X157229833Y-70530930D01*
X157241881Y-70541914D01*
X157241882Y-70541914D01*
X157241884Y-70541916D01*
X157248347Y-70544419D01*
X157273624Y-70557743D01*
X157279336Y-70561656D01*
X157309519Y-70568754D01*
X157317720Y-70571294D01*
X157346644Y-70582500D01*
X157353568Y-70582500D01*
X157381958Y-70585793D01*
X157388698Y-70587379D01*
X157419407Y-70583095D01*
X157427983Y-70582500D01*
X157725500Y-70582500D01*
X157792539Y-70602185D01*
X157838294Y-70654989D01*
X157849500Y-70706500D01*
X157849500Y-70961269D01*
X157852353Y-70991699D01*
X157852353Y-70991701D01*
X157894963Y-71113470D01*
X157897207Y-71119882D01*
X157977850Y-71229150D01*
X158087118Y-71309793D01*
X158129845Y-71324743D01*
X158215299Y-71354646D01*
X158245730Y-71357500D01*
X158245734Y-71357500D01*
X158979270Y-71357500D01*
X159009699Y-71354646D01*
X159009701Y-71354646D01*
X159073790Y-71332219D01*
X159137882Y-71309793D01*
X159247150Y-71229150D01*
X159327793Y-71119882D01*
X159327794Y-71119880D01*
X159333311Y-71112405D01*
X159335031Y-71113675D01*
X159375091Y-71072506D01*
X159443154Y-71056722D01*
X159508946Y-71080241D01*
X159537546Y-71113247D01*
X159538689Y-71112405D01*
X159544206Y-71119880D01*
X159544207Y-71119882D01*
X159624850Y-71229150D01*
X159734118Y-71309793D01*
X159776845Y-71324744D01*
X159862299Y-71354646D01*
X159892730Y-71357500D01*
X159892734Y-71357500D01*
X160626270Y-71357500D01*
X160656699Y-71354646D01*
X160656701Y-71354646D01*
X160720790Y-71332219D01*
X160784882Y-71309793D01*
X160894150Y-71229150D01*
X160974793Y-71119882D01*
X161006124Y-71030343D01*
X161019646Y-70991701D01*
X161019646Y-70991699D01*
X161022500Y-70961269D01*
X161022500Y-70532000D01*
X162122001Y-70532000D01*
X162122001Y-70956986D01*
X162132494Y-71059697D01*
X162187641Y-71226119D01*
X162187643Y-71226124D01*
X162279684Y-71375345D01*
X162403654Y-71499315D01*
X162552875Y-71591356D01*
X162552880Y-71591358D01*
X162719302Y-71646505D01*
X162719309Y-71646506D01*
X162822019Y-71656999D01*
X162934499Y-71656999D01*
X162934500Y-71656998D01*
X162934500Y-70532000D01*
X163434500Y-70532000D01*
X163434500Y-71656999D01*
X163546972Y-71656999D01*
X163546986Y-71656998D01*
X163649697Y-71646505D01*
X163816119Y-71591358D01*
X163816124Y-71591356D01*
X163965345Y-71499315D01*
X164089315Y-71375345D01*
X164181356Y-71226124D01*
X164181358Y-71226119D01*
X164236505Y-71059697D01*
X164236506Y-71059690D01*
X164246999Y-70956986D01*
X164247000Y-70956973D01*
X164247000Y-70532000D01*
X163434500Y-70532000D01*
X162934500Y-70532000D01*
X162122001Y-70532000D01*
X161022500Y-70532000D01*
X161022500Y-70032000D01*
X162122000Y-70032000D01*
X162934500Y-70032000D01*
X162934500Y-68907000D01*
X163434500Y-68907000D01*
X163434500Y-70032000D01*
X164246999Y-70032000D01*
X164246999Y-69607028D01*
X164246998Y-69607013D01*
X164236505Y-69504302D01*
X164181358Y-69337880D01*
X164181356Y-69337875D01*
X164089315Y-69188654D01*
X163965345Y-69064684D01*
X163816124Y-68972643D01*
X163816119Y-68972641D01*
X163649697Y-68917494D01*
X163649690Y-68917493D01*
X163546986Y-68907000D01*
X163434500Y-68907000D01*
X162934500Y-68907000D01*
X162822027Y-68907000D01*
X162822012Y-68907001D01*
X162719302Y-68917494D01*
X162552880Y-68972641D01*
X162552875Y-68972643D01*
X162403654Y-69064684D01*
X162279684Y-69188654D01*
X162187643Y-69337875D01*
X162187641Y-69337880D01*
X162132494Y-69504302D01*
X162132493Y-69504309D01*
X162122000Y-69607013D01*
X162122000Y-70032000D01*
X161022500Y-70032000D01*
X161022500Y-69602730D01*
X161019646Y-69572300D01*
X161019646Y-69572298D01*
X160974793Y-69444119D01*
X160974792Y-69444117D01*
X160894150Y-69334850D01*
X160784882Y-69254207D01*
X160784880Y-69254206D01*
X160656700Y-69209353D01*
X160626270Y-69206500D01*
X160626266Y-69206500D01*
X159892734Y-69206500D01*
X159892730Y-69206500D01*
X159862300Y-69209353D01*
X159862298Y-69209353D01*
X159734119Y-69254206D01*
X159734117Y-69254207D01*
X159624851Y-69334849D01*
X159624850Y-69334850D01*
X159588955Y-69383487D01*
X159538689Y-69451595D01*
X159536968Y-69450325D01*
X159496901Y-69491498D01*
X159428837Y-69507277D01*
X159363046Y-69483752D01*
X159334452Y-69450752D01*
X159333311Y-69451595D01*
X159327792Y-69444117D01*
X159247150Y-69334850D01*
X159137882Y-69254207D01*
X159137880Y-69254206D01*
X159009700Y-69209353D01*
X158979270Y-69206500D01*
X158979266Y-69206500D01*
X158245734Y-69206500D01*
X158245730Y-69206500D01*
X158215300Y-69209353D01*
X158215298Y-69209353D01*
X158087119Y-69254206D01*
X158087117Y-69254207D01*
X157977850Y-69334850D01*
X157897207Y-69444117D01*
X157897206Y-69444119D01*
X157852353Y-69572298D01*
X157852353Y-69572300D01*
X157849500Y-69602730D01*
X157849500Y-69857500D01*
X157829815Y-69924539D01*
X157777011Y-69970294D01*
X157725500Y-69981500D01*
X157578650Y-69981500D01*
X157511611Y-69961815D01*
X157490969Y-69945181D01*
X154866330Y-67320543D01*
X154860686Y-67314057D01*
X154853364Y-67304362D01*
X154818032Y-67272152D01*
X154815981Y-67270194D01*
X154802205Y-67256418D01*
X154799994Y-67254903D01*
X154793261Y-67249570D01*
X154770342Y-67228677D01*
X154770341Y-67228676D01*
X154770339Y-67228675D01*
X154770337Y-67228674D01*
X154763879Y-67226172D01*
X154738598Y-67212846D01*
X154732889Y-67208935D01*
X154732887Y-67208934D01*
X154732886Y-67208933D01*
X154702701Y-67201834D01*
X154694491Y-67199291D01*
X154665582Y-67188092D01*
X154665581Y-67188092D01*
X154658656Y-67188092D01*
X154630267Y-67184798D01*
X154623527Y-67183213D01*
X154623526Y-67183213D01*
X154612165Y-67184798D01*
X154592816Y-67187497D01*
X154584242Y-67188092D01*
X154414410Y-67188092D01*
X154347371Y-67168407D01*
X154301616Y-67115603D01*
X154291672Y-67046445D01*
X154320697Y-66982889D01*
X154335742Y-66968240D01*
X154340410Y-66964410D01*
X154471685Y-66804450D01*
X154569232Y-66621954D01*
X154589406Y-66555446D01*
X154627702Y-66497010D01*
X154691514Y-66468553D01*
X154760581Y-66479112D01*
X154812975Y-66525336D01*
X154827841Y-66559349D01*
X154860567Y-66681486D01*
X154860570Y-66681492D01*
X154960399Y-66895578D01*
X155095894Y-67089082D01*
X155262917Y-67256105D01*
X155456421Y-67391600D01*
X155670507Y-67491429D01*
X155670516Y-67491433D01*
X155884000Y-67548634D01*
X155883999Y-66653501D01*
X155991685Y-66702680D01*
X156098237Y-66718000D01*
X156169763Y-66718000D01*
X156276315Y-66702680D01*
X156384000Y-66653501D01*
X156384000Y-67548633D01*
X156597483Y-67491433D01*
X156597492Y-67491429D01*
X156811578Y-67391600D01*
X157005082Y-67256105D01*
X157172105Y-67089082D01*
X157307600Y-66895578D01*
X157407429Y-66681492D01*
X157407432Y-66681486D01*
X157464636Y-66468000D01*
X156567686Y-66468000D01*
X156593493Y-66427844D01*
X156634000Y-66289889D01*
X156634000Y-66146111D01*
X156593493Y-66008156D01*
X156567686Y-65968000D01*
X157464636Y-65968000D01*
X157464635Y-65967999D01*
X157407432Y-65754513D01*
X157407429Y-65754507D01*
X157307600Y-65540422D01*
X157307599Y-65540420D01*
X157172113Y-65346926D01*
X157172108Y-65346920D01*
X157005082Y-65179894D01*
X156818968Y-65049575D01*
X156775344Y-64994998D01*
X156768151Y-64925499D01*
X156799673Y-64863145D01*
X156818968Y-64846425D01*
X157005082Y-64716105D01*
X157172105Y-64549082D01*
X157307600Y-64355578D01*
X157407429Y-64141492D01*
X157407432Y-64141486D01*
X157464636Y-63928000D01*
X156567686Y-63928000D01*
X156593493Y-63887844D01*
X156634000Y-63749889D01*
X156634000Y-63606111D01*
X156593493Y-63468156D01*
X156567686Y-63428000D01*
X157464636Y-63428000D01*
X157464635Y-63427999D01*
X157407432Y-63214513D01*
X157407429Y-63214507D01*
X157307600Y-63000422D01*
X157307599Y-63000420D01*
X157172113Y-62806926D01*
X157172108Y-62806920D01*
X157005082Y-62639894D01*
X156818968Y-62509575D01*
X156775344Y-62454998D01*
X156768151Y-62385499D01*
X156799673Y-62323145D01*
X156818968Y-62306425D01*
X157005082Y-62176105D01*
X157172105Y-62009082D01*
X157307600Y-61815578D01*
X157407429Y-61601492D01*
X157407432Y-61601486D01*
X157464636Y-61388000D01*
X156567686Y-61388000D01*
X156593493Y-61347844D01*
X156634000Y-61209889D01*
X156634000Y-61066111D01*
X156593493Y-60928156D01*
X156567686Y-60888000D01*
X157464636Y-60888000D01*
X157464635Y-60887999D01*
X157407432Y-60674513D01*
X157407429Y-60674507D01*
X157307600Y-60460422D01*
X157307599Y-60460420D01*
X157172113Y-60266926D01*
X157172108Y-60266920D01*
X157005082Y-60099894D01*
X156818968Y-59969575D01*
X156775344Y-59914998D01*
X156768151Y-59845499D01*
X156799673Y-59783145D01*
X156818968Y-59766425D01*
X157005082Y-59636105D01*
X157172105Y-59469082D01*
X157307600Y-59275578D01*
X157407429Y-59061492D01*
X157407432Y-59061486D01*
X157464636Y-58848000D01*
X156567686Y-58848000D01*
X156593493Y-58807844D01*
X156634000Y-58669889D01*
X156634000Y-58526111D01*
X156593493Y-58388156D01*
X156567686Y-58348000D01*
X157464636Y-58348000D01*
X157464635Y-58347999D01*
X157407432Y-58134513D01*
X157407429Y-58134507D01*
X157307600Y-57920422D01*
X157307599Y-57920420D01*
X157172113Y-57726926D01*
X157172108Y-57726920D01*
X157005082Y-57559894D01*
X156818968Y-57429575D01*
X156775344Y-57374998D01*
X156768151Y-57305499D01*
X156799673Y-57243145D01*
X156818968Y-57226425D01*
X157005082Y-57096105D01*
X157172105Y-56929082D01*
X157307600Y-56735578D01*
X157407429Y-56521492D01*
X157407432Y-56521486D01*
X157464636Y-56308000D01*
X156567686Y-56308000D01*
X156593493Y-56267844D01*
X156634000Y-56129889D01*
X156634000Y-55986111D01*
X156593493Y-55848156D01*
X156567686Y-55808000D01*
X157464636Y-55808000D01*
X157464635Y-55807999D01*
X157407432Y-55594513D01*
X157407429Y-55594507D01*
X157307600Y-55380422D01*
X157307599Y-55380420D01*
X157172113Y-55186926D01*
X157172108Y-55186920D01*
X157005082Y-55019894D01*
X156818968Y-54889575D01*
X156775344Y-54834998D01*
X156768151Y-54765499D01*
X156799673Y-54703145D01*
X156818968Y-54686425D01*
X157005082Y-54556105D01*
X157172105Y-54389082D01*
X157307600Y-54195578D01*
X157407429Y-53981492D01*
X157407432Y-53981486D01*
X157464636Y-53768000D01*
X156567686Y-53768000D01*
X156593493Y-53727844D01*
X156634000Y-53589889D01*
X156634000Y-53446111D01*
X156593493Y-53308156D01*
X156567686Y-53268000D01*
X157464636Y-53268000D01*
X157464635Y-53267999D01*
X157407432Y-53054513D01*
X157407429Y-53054507D01*
X157307600Y-52840422D01*
X157307599Y-52840420D01*
X157172113Y-52646926D01*
X157172108Y-52646920D01*
X157005082Y-52479894D01*
X156811578Y-52344399D01*
X156597492Y-52244570D01*
X156597486Y-52244567D01*
X156384000Y-52187364D01*
X156384000Y-53082498D01*
X156276315Y-53033320D01*
X156169763Y-53018000D01*
X156098237Y-53018000D01*
X155991685Y-53033320D01*
X155883999Y-53082498D01*
X155884000Y-52187364D01*
X155883999Y-52187364D01*
X155670513Y-52244567D01*
X155670507Y-52244570D01*
X155456422Y-52344399D01*
X155456420Y-52344400D01*
X155262926Y-52479886D01*
X155262920Y-52479891D01*
X155095891Y-52646920D01*
X155095886Y-52646926D01*
X154960400Y-52840420D01*
X154960399Y-52840422D01*
X154860570Y-53054507D01*
X154860567Y-53054514D01*
X154827841Y-53176650D01*
X154791476Y-53236310D01*
X154728629Y-53266839D01*
X154659253Y-53258544D01*
X154605375Y-53214059D01*
X154589406Y-53180553D01*
X154569232Y-53114046D01*
X154471685Y-52931550D01*
X154392988Y-52835657D01*
X154340410Y-52771589D01*
X154200939Y-52657130D01*
X154180450Y-52640315D01*
X153997954Y-52542768D01*
X153799934Y-52482700D01*
X153799932Y-52482699D01*
X153799934Y-52482699D01*
X153594000Y-52462417D01*
X153388067Y-52482699D01*
X153190043Y-52542769D01*
X153102114Y-52589769D01*
X153007550Y-52640315D01*
X153007548Y-52640316D01*
X153007547Y-52640317D01*
X152847589Y-52771589D01*
X152739113Y-52903770D01*
X152716315Y-52931550D01*
X152692823Y-52975500D01*
X152618769Y-53114043D01*
X152558699Y-53312067D01*
X152538417Y-53518000D01*
X152558699Y-53723932D01*
X152564605Y-53743400D01*
X152618768Y-53921954D01*
X152716315Y-54104450D01*
X152716317Y-54104452D01*
X152847589Y-54264410D01*
X152928182Y-54330550D01*
X153007550Y-54395685D01*
X153190046Y-54493232D01*
X153388066Y-54553300D01*
X153388065Y-54553300D01*
X153401742Y-54554647D01*
X153594000Y-54573583D01*
X153799934Y-54553300D01*
X153997954Y-54493232D01*
X154180450Y-54395685D01*
X154340410Y-54264410D01*
X154471685Y-54104450D01*
X154569232Y-53921954D01*
X154589406Y-53855446D01*
X154627702Y-53797010D01*
X154691514Y-53768553D01*
X154760581Y-53779112D01*
X154812975Y-53825336D01*
X154827841Y-53859349D01*
X154860567Y-53981486D01*
X154860570Y-53981492D01*
X154960399Y-54195578D01*
X155095894Y-54389082D01*
X155262917Y-54556105D01*
X155449031Y-54686425D01*
X155492656Y-54741003D01*
X155499848Y-54810501D01*
X155468326Y-54872856D01*
X155449031Y-54889575D01*
X155262922Y-55019890D01*
X155262920Y-55019891D01*
X155095891Y-55186920D01*
X155095886Y-55186926D01*
X154960400Y-55380420D01*
X154960399Y-55380422D01*
X154860570Y-55594507D01*
X154860567Y-55594514D01*
X154827841Y-55716650D01*
X154791476Y-55776310D01*
X154728629Y-55806839D01*
X154659253Y-55798544D01*
X154605375Y-55754059D01*
X154589406Y-55720553D01*
X154569232Y-55654046D01*
X154471685Y-55471550D01*
X154414875Y-55402326D01*
X154340410Y-55311589D01*
X154190121Y-55188252D01*
X154180450Y-55180315D01*
X153997954Y-55082768D01*
X153799934Y-55022700D01*
X153799932Y-55022699D01*
X153799934Y-55022699D01*
X153612463Y-55004235D01*
X153594000Y-55002417D01*
X153593999Y-55002417D01*
X153388067Y-55022699D01*
X153190043Y-55082769D01*
X153102114Y-55129769D01*
X153007550Y-55180315D01*
X153007548Y-55180316D01*
X153007547Y-55180317D01*
X152847589Y-55311589D01*
X152743364Y-55438590D01*
X152716315Y-55471550D01*
X152702113Y-55498120D01*
X152618769Y-55654043D01*
X152558699Y-55852067D01*
X152538417Y-56058000D01*
X152558699Y-56263932D01*
X152558700Y-56263934D01*
X152618768Y-56461954D01*
X152716315Y-56644450D01*
X152716317Y-56644452D01*
X152847589Y-56804410D01*
X152900863Y-56848130D01*
X153007550Y-56935685D01*
X153190046Y-57033232D01*
X153388066Y-57093300D01*
X153388065Y-57093300D01*
X153406529Y-57095118D01*
X153594000Y-57113583D01*
X153799934Y-57093300D01*
X153997954Y-57033232D01*
X154180450Y-56935685D01*
X154340410Y-56804410D01*
X154471685Y-56644450D01*
X154569232Y-56461954D01*
X154589406Y-56395446D01*
X154627702Y-56337010D01*
X154691514Y-56308553D01*
X154760581Y-56319112D01*
X154812975Y-56365336D01*
X154827841Y-56399349D01*
X154860567Y-56521486D01*
X154860570Y-56521492D01*
X154960399Y-56735578D01*
X155095894Y-56929082D01*
X155262917Y-57096105D01*
X155449031Y-57226425D01*
X155492656Y-57281003D01*
X155499848Y-57350501D01*
X155468326Y-57412856D01*
X155449031Y-57429575D01*
X155262922Y-57559890D01*
X155262920Y-57559891D01*
X155095891Y-57726920D01*
X155095886Y-57726926D01*
X154960400Y-57920420D01*
X154960399Y-57920422D01*
X154860570Y-58134507D01*
X154860567Y-58134514D01*
X154827841Y-58256650D01*
X154791476Y-58316310D01*
X154728629Y-58346839D01*
X154659253Y-58338544D01*
X154605375Y-58294059D01*
X154589406Y-58260553D01*
X154569232Y-58194046D01*
X154471685Y-58011550D01*
X154396897Y-57920420D01*
X154340410Y-57851589D01*
X154190121Y-57728252D01*
X154180450Y-57720315D01*
X153997954Y-57622768D01*
X153799934Y-57562700D01*
X153799932Y-57562699D01*
X153799934Y-57562699D01*
X153594000Y-57542417D01*
X153388067Y-57562699D01*
X153253736Y-57603448D01*
X153193953Y-57621583D01*
X153190043Y-57622769D01*
X153102114Y-57669769D01*
X153007550Y-57720315D01*
X153007548Y-57720316D01*
X153007547Y-57720317D01*
X152847589Y-57851589D01*
X152716317Y-58011547D01*
X152716315Y-58011550D01*
X152708543Y-58026090D01*
X152618769Y-58194043D01*
X152558699Y-58392067D01*
X152538417Y-58598000D01*
X152558699Y-58803932D01*
X152558700Y-58803934D01*
X152618768Y-59001954D01*
X152716315Y-59184450D01*
X152716317Y-59184452D01*
X152847589Y-59344410D01*
X152936373Y-59417272D01*
X153007550Y-59475685D01*
X153190046Y-59573232D01*
X153388066Y-59633300D01*
X153388065Y-59633300D01*
X153406529Y-59635118D01*
X153594000Y-59653583D01*
X153799934Y-59633300D01*
X153997954Y-59573232D01*
X154180450Y-59475685D01*
X154340410Y-59344410D01*
X154471685Y-59184450D01*
X154569232Y-59001954D01*
X154589406Y-58935446D01*
X154627702Y-58877010D01*
X154691514Y-58848553D01*
X154760581Y-58859112D01*
X154812975Y-58905336D01*
X154827841Y-58939349D01*
X154860567Y-59061486D01*
X154860570Y-59061492D01*
X154960399Y-59275578D01*
X155095894Y-59469082D01*
X155262917Y-59636105D01*
X155449031Y-59766425D01*
X155492656Y-59821003D01*
X155499848Y-59890501D01*
X155468326Y-59952856D01*
X155449031Y-59969575D01*
X155262922Y-60099890D01*
X155262920Y-60099891D01*
X155095891Y-60266920D01*
X155095886Y-60266926D01*
X154960400Y-60460420D01*
X154960399Y-60460422D01*
X154860570Y-60674507D01*
X154860567Y-60674514D01*
X154827841Y-60796650D01*
X154791476Y-60856310D01*
X154728629Y-60886839D01*
X154659253Y-60878544D01*
X154605375Y-60834059D01*
X154589406Y-60800553D01*
X154569232Y-60734046D01*
X154471685Y-60551550D01*
X154419702Y-60488209D01*
X154340410Y-60391589D01*
X154190121Y-60268252D01*
X154180450Y-60260315D01*
X153997954Y-60162768D01*
X153799934Y-60102700D01*
X153799932Y-60102699D01*
X153799934Y-60102699D01*
X153594000Y-60082417D01*
X153388067Y-60102699D01*
X153190043Y-60162769D01*
X153102114Y-60209769D01*
X153007550Y-60260315D01*
X153007548Y-60260316D01*
X153007547Y-60260317D01*
X152847589Y-60391589D01*
X152716317Y-60551547D01*
X152716315Y-60551550D01*
X152708543Y-60566090D01*
X152618769Y-60734043D01*
X152558699Y-60932067D01*
X152538417Y-61137999D01*
X152558699Y-61343932D01*
X152558700Y-61343934D01*
X152618768Y-61541954D01*
X152716315Y-61724450D01*
X152716317Y-61724452D01*
X152847589Y-61884410D01*
X152940345Y-61960532D01*
X153007550Y-62015685D01*
X153190046Y-62113232D01*
X153388066Y-62173300D01*
X153388065Y-62173300D01*
X153406529Y-62175118D01*
X153594000Y-62193583D01*
X153799934Y-62173300D01*
X153997954Y-62113232D01*
X154180450Y-62015685D01*
X154340410Y-61884410D01*
X154471685Y-61724450D01*
X154569232Y-61541954D01*
X154589406Y-61475446D01*
X154627702Y-61417010D01*
X154691514Y-61388553D01*
X154760581Y-61399112D01*
X154812975Y-61445336D01*
X154827841Y-61479349D01*
X154860567Y-61601486D01*
X154860570Y-61601492D01*
X154960399Y-61815578D01*
X155095894Y-62009082D01*
X155262917Y-62176105D01*
X155449031Y-62306425D01*
X155492656Y-62361003D01*
X155499848Y-62430501D01*
X155468326Y-62492856D01*
X155449031Y-62509575D01*
X155262922Y-62639890D01*
X155262920Y-62639891D01*
X155095891Y-62806920D01*
X155095886Y-62806926D01*
X154960400Y-63000420D01*
X154960399Y-63000422D01*
X154860570Y-63214507D01*
X154860567Y-63214514D01*
X154827841Y-63336650D01*
X154791476Y-63396310D01*
X154728629Y-63426839D01*
X154659253Y-63418544D01*
X154605375Y-63374059D01*
X154589406Y-63340553D01*
X154569232Y-63274046D01*
X154471685Y-63091550D01*
X154396897Y-63000420D01*
X154340410Y-62931589D01*
X154190121Y-62808252D01*
X154180450Y-62800315D01*
X153997954Y-62702768D01*
X153799934Y-62642700D01*
X153799932Y-62642699D01*
X153799934Y-62642699D01*
X153594000Y-62622417D01*
X153388067Y-62642699D01*
X153190043Y-62702769D01*
X153102114Y-62749769D01*
X153007550Y-62800315D01*
X153007548Y-62800316D01*
X153007547Y-62800317D01*
X152847589Y-62931589D01*
X152723192Y-63083170D01*
X152716315Y-63091550D01*
X152697142Y-63127420D01*
X152618769Y-63274043D01*
X152618769Y-63274044D01*
X152618768Y-63274046D01*
X152613786Y-63290470D01*
X152558699Y-63472067D01*
X152545284Y-63608275D01*
X152538417Y-63678000D01*
X152538826Y-63682156D01*
X152558699Y-63883932D01*
X152575275Y-63938576D01*
X152618768Y-64081954D01*
X152716315Y-64264450D01*
X152719632Y-64268492D01*
X152847589Y-64424410D01*
X152918713Y-64482779D01*
X153007550Y-64555685D01*
X153190046Y-64653232D01*
X153388066Y-64713300D01*
X153388065Y-64713300D01*
X153406529Y-64715118D01*
X153594000Y-64733583D01*
X153799934Y-64713300D01*
X153997954Y-64653232D01*
X154180450Y-64555685D01*
X154340410Y-64424410D01*
X154471685Y-64264450D01*
X154569232Y-64081954D01*
X154589406Y-64015446D01*
X154627702Y-63957010D01*
X154691514Y-63928553D01*
X154760581Y-63939112D01*
X154812975Y-63985336D01*
X154827841Y-64019349D01*
X154860567Y-64141486D01*
X154860570Y-64141492D01*
X154960399Y-64355578D01*
X155095894Y-64549082D01*
X155262917Y-64716105D01*
X155449031Y-64846425D01*
X155492656Y-64901003D01*
X155499848Y-64970501D01*
X155468326Y-65032856D01*
X155449031Y-65049575D01*
X155262922Y-65179890D01*
X155262920Y-65179891D01*
X155095891Y-65346920D01*
X155095886Y-65346926D01*
X154960400Y-65540420D01*
X154960399Y-65540422D01*
X154860570Y-65754507D01*
X154860567Y-65754514D01*
X154827841Y-65876650D01*
X154791476Y-65936310D01*
X154728629Y-65966839D01*
X154659253Y-65958544D01*
X154605375Y-65914059D01*
X154589406Y-65880553D01*
X154569232Y-65814046D01*
X154471685Y-65631550D01*
X154366011Y-65502785D01*
X154340410Y-65471589D01*
X154206862Y-65361991D01*
X154180450Y-65340315D01*
X153997954Y-65242768D01*
X153799934Y-65182700D01*
X153799932Y-65182699D01*
X153799934Y-65182699D01*
X153594000Y-65162417D01*
X153388067Y-65182699D01*
X153190043Y-65242769D01*
X153102114Y-65289769D01*
X153007550Y-65340315D01*
X153007548Y-65340316D01*
X153007547Y-65340317D01*
X152847589Y-65471589D01*
X152716317Y-65631547D01*
X152618769Y-65814043D01*
X152558699Y-66012067D01*
X152538417Y-66218000D01*
X152558699Y-66423932D01*
X152585678Y-66512871D01*
X152618768Y-66621954D01*
X152716315Y-66804450D01*
X152737978Y-66830846D01*
X152847587Y-66964407D01*
X152847588Y-66964408D01*
X152847590Y-66964410D01*
X152852255Y-66968239D01*
X152891589Y-67025984D01*
X152893460Y-67095829D01*
X152857273Y-67155597D01*
X152794517Y-67186313D01*
X152773590Y-67188092D01*
X152228500Y-67188092D01*
X152161461Y-67168407D01*
X152115706Y-67115603D01*
X152104500Y-67064092D01*
X152104500Y-65348249D01*
X152104499Y-65348247D01*
X152092868Y-65289770D01*
X152092867Y-65289769D01*
X152048552Y-65223447D01*
X151982230Y-65179132D01*
X151982229Y-65179131D01*
X151923752Y-65167500D01*
X151923748Y-65167500D01*
X150184252Y-65167500D01*
X150184247Y-65167500D01*
X150125770Y-65179131D01*
X150125769Y-65179132D01*
X150059447Y-65223447D01*
X150015132Y-65289769D01*
X150015131Y-65289770D01*
X150003500Y-65348247D01*
X150003500Y-66743165D01*
X149983815Y-66810204D01*
X149931011Y-66855959D01*
X149861853Y-66865903D01*
X149798297Y-66836878D01*
X149791819Y-66830846D01*
X149060219Y-66099246D01*
X149026734Y-66037923D01*
X149023900Y-66011565D01*
X149023900Y-64547752D01*
X150003500Y-64547752D01*
X150015131Y-64606229D01*
X150015132Y-64606230D01*
X150059447Y-64672552D01*
X150125769Y-64716867D01*
X150125770Y-64716868D01*
X150184247Y-64728499D01*
X150184250Y-64728500D01*
X150184252Y-64728500D01*
X151923750Y-64728500D01*
X151923751Y-64728499D01*
X151938568Y-64725552D01*
X151982229Y-64716868D01*
X151982229Y-64716867D01*
X151982231Y-64716867D01*
X152048552Y-64672552D01*
X152092867Y-64606231D01*
X152092867Y-64606229D01*
X152092868Y-64606229D01*
X152104088Y-64549818D01*
X152104500Y-64547748D01*
X152104500Y-62808252D01*
X152104500Y-62808249D01*
X152104499Y-62808247D01*
X152092868Y-62749770D01*
X152092867Y-62749769D01*
X152048552Y-62683447D01*
X151982230Y-62639132D01*
X151982229Y-62639131D01*
X151923752Y-62627500D01*
X151923748Y-62627500D01*
X150184252Y-62627500D01*
X150184247Y-62627500D01*
X150125770Y-62639131D01*
X150125769Y-62639132D01*
X150059447Y-62683447D01*
X150015132Y-62749769D01*
X150015131Y-62749770D01*
X150003500Y-62808247D01*
X150003500Y-64547752D01*
X149023900Y-64547752D01*
X149023900Y-59832232D01*
X149043585Y-59765193D01*
X149096389Y-59719438D01*
X149165547Y-59709494D01*
X149229103Y-59738519D01*
X149235566Y-59744537D01*
X149614156Y-60123127D01*
X149967181Y-60476152D01*
X150000666Y-60537475D01*
X150003500Y-60563833D01*
X150003500Y-62007752D01*
X150015131Y-62066229D01*
X150015132Y-62066230D01*
X150059447Y-62132552D01*
X150125769Y-62176867D01*
X150125770Y-62176868D01*
X150184247Y-62188499D01*
X150184250Y-62188500D01*
X150184252Y-62188500D01*
X151923750Y-62188500D01*
X151923751Y-62188499D01*
X151938568Y-62185552D01*
X151982229Y-62176868D01*
X151982229Y-62176867D01*
X151982231Y-62176867D01*
X152048552Y-62132552D01*
X152092867Y-62066231D01*
X152092867Y-62066229D01*
X152092868Y-62066229D01*
X152102922Y-62015682D01*
X152104500Y-62007748D01*
X152104500Y-60268252D01*
X152104500Y-60268251D01*
X152104500Y-60268249D01*
X152104499Y-60268247D01*
X152092868Y-60209770D01*
X152092867Y-60209769D01*
X152048552Y-60143447D01*
X151982230Y-60099132D01*
X151982229Y-60099131D01*
X151923752Y-60087500D01*
X151923748Y-60087500D01*
X150479833Y-60087500D01*
X150412794Y-60067815D01*
X150392152Y-60051181D01*
X150201152Y-59860181D01*
X150167667Y-59798858D01*
X150172651Y-59729166D01*
X150214523Y-59673233D01*
X150279987Y-59648816D01*
X150288833Y-59648500D01*
X151923750Y-59648500D01*
X151923751Y-59648499D01*
X151938568Y-59645552D01*
X151982229Y-59636868D01*
X151982229Y-59636867D01*
X151982231Y-59636867D01*
X152048552Y-59592552D01*
X152092867Y-59526231D01*
X152092867Y-59526229D01*
X152092868Y-59526229D01*
X152102922Y-59475682D01*
X152104500Y-59467748D01*
X152104500Y-57728252D01*
X152104500Y-57728251D01*
X152104500Y-57728249D01*
X152104499Y-57728247D01*
X152092868Y-57669770D01*
X152092867Y-57669769D01*
X152048552Y-57603447D01*
X151982230Y-57559132D01*
X151982229Y-57559131D01*
X151923752Y-57547500D01*
X151923748Y-57547500D01*
X150479833Y-57547500D01*
X150412794Y-57527815D01*
X150392152Y-57511181D01*
X150201152Y-57320181D01*
X150167667Y-57258858D01*
X150172651Y-57189166D01*
X150214523Y-57133233D01*
X150279987Y-57108816D01*
X150288833Y-57108500D01*
X151923750Y-57108500D01*
X151923751Y-57108499D01*
X151938568Y-57105552D01*
X151982229Y-57096868D01*
X151982229Y-57096867D01*
X151982231Y-57096867D01*
X152048552Y-57052552D01*
X152092867Y-56986231D01*
X152092867Y-56986229D01*
X152092868Y-56986229D01*
X152102922Y-56935682D01*
X152104500Y-56927748D01*
X152104500Y-55188252D01*
X152104500Y-55188251D01*
X152104500Y-55188249D01*
X152104499Y-55188247D01*
X152092868Y-55129770D01*
X152092867Y-55129769D01*
X152048552Y-55063447D01*
X151982230Y-55019132D01*
X151982229Y-55019131D01*
X151923752Y-55007500D01*
X151923748Y-55007500D01*
X150184252Y-55007500D01*
X150184247Y-55007500D01*
X150125770Y-55019131D01*
X150125769Y-55019132D01*
X150049293Y-55070233D01*
X150048595Y-55069189D01*
X149998528Y-55096529D01*
X149928836Y-55091545D01*
X149872903Y-55049673D01*
X149848486Y-54984209D01*
X149848170Y-54975363D01*
X149848170Y-54600637D01*
X149867855Y-54533598D01*
X149920659Y-54487843D01*
X149989817Y-54477899D01*
X150053373Y-54506924D01*
X150059340Y-54512480D01*
X150125769Y-54556867D01*
X150125770Y-54556868D01*
X150184247Y-54568499D01*
X150184250Y-54568500D01*
X150184252Y-54568500D01*
X151923750Y-54568500D01*
X151923751Y-54568499D01*
X151939871Y-54565293D01*
X151982229Y-54556868D01*
X151982229Y-54556867D01*
X151982231Y-54556867D01*
X152048552Y-54512552D01*
X152092867Y-54446231D01*
X152092867Y-54446229D01*
X152092868Y-54446229D01*
X152102922Y-54395682D01*
X152104500Y-54387748D01*
X152104500Y-52648252D01*
X152104500Y-52648251D01*
X152104500Y-52648249D01*
X152104499Y-52648247D01*
X152092868Y-52589770D01*
X152092867Y-52589769D01*
X152048552Y-52523447D01*
X151982230Y-52479132D01*
X151982229Y-52479131D01*
X151923752Y-52467500D01*
X151923748Y-52467500D01*
X150184252Y-52467500D01*
X150184247Y-52467500D01*
X150125770Y-52479131D01*
X150125769Y-52479132D01*
X150049293Y-52530233D01*
X150048595Y-52529189D01*
X149998528Y-52556529D01*
X149928836Y-52551545D01*
X149872903Y-52509673D01*
X149848486Y-52444209D01*
X149848170Y-52435363D01*
X149848170Y-52187502D01*
X149867855Y-52120463D01*
X149884489Y-52099821D01*
X151285492Y-50698819D01*
X151346815Y-50665334D01*
X151373173Y-50662500D01*
X154061505Y-50662500D01*
X154070079Y-50663095D01*
X154082107Y-50664772D01*
X154082107Y-50664771D01*
X154082111Y-50664773D01*
X154125266Y-50662778D01*
X154129856Y-50662566D01*
X154132719Y-50662500D01*
X154152189Y-50662500D01*
X154152190Y-50662500D01*
X154154814Y-50662009D01*
X154163367Y-50661016D01*
X154164591Y-50660959D01*
X154194338Y-50659585D01*
X154200668Y-50656789D01*
X154227975Y-50648332D01*
X154234779Y-50647061D01*
X154261143Y-50630736D01*
X154268738Y-50626733D01*
X154297111Y-50614206D01*
X154302007Y-50609309D01*
X154324415Y-50591561D01*
X154330298Y-50587919D01*
X154348995Y-50563158D01*
X154354620Y-50556695D01*
X154799347Y-50111970D01*
X154799347Y-50111969D01*
X155354929Y-49556386D01*
X155416250Y-49522903D01*
X155485942Y-49527887D01*
X155541875Y-49569759D01*
X155544183Y-49572945D01*
X155591890Y-49641078D01*
X155758917Y-49808105D01*
X155952421Y-49943600D01*
X156166507Y-50043429D01*
X156166516Y-50043433D01*
X156380000Y-50100634D01*
X156380000Y-49205501D01*
X156487685Y-49254680D01*
X156594237Y-49270000D01*
X156665763Y-49270000D01*
X156772315Y-49254680D01*
X156880000Y-49205501D01*
X156880000Y-50100633D01*
X157093483Y-50043433D01*
X157093492Y-50043429D01*
X157307578Y-49943600D01*
X157501082Y-49808105D01*
X157668105Y-49641082D01*
X157803600Y-49447578D01*
X157903429Y-49233492D01*
X157903432Y-49233486D01*
X157960636Y-49020000D01*
X157063686Y-49020000D01*
X157089493Y-48979844D01*
X157130000Y-48841889D01*
X157130000Y-48698111D01*
X157089493Y-48560156D01*
X157063686Y-48520000D01*
X157960636Y-48520000D01*
X157960635Y-48519999D01*
X157903432Y-48306513D01*
X157903429Y-48306507D01*
X157803600Y-48092422D01*
X157803599Y-48092420D01*
X157668113Y-47898926D01*
X157668108Y-47898920D01*
X157501082Y-47731894D01*
X157307578Y-47596399D01*
X157093492Y-47496570D01*
X157093486Y-47496567D01*
X156971349Y-47463841D01*
X156911689Y-47427476D01*
X156881160Y-47364629D01*
X156889455Y-47295253D01*
X156933940Y-47241375D01*
X156967444Y-47225407D01*
X157033954Y-47205232D01*
X157216450Y-47107685D01*
X157376410Y-46976410D01*
X157507685Y-46816450D01*
X157605232Y-46633954D01*
X157665300Y-46435934D01*
X157685583Y-46230000D01*
X157665300Y-46024066D01*
X157605232Y-45826046D01*
X157507685Y-45643550D01*
X157452241Y-45575991D01*
X157376410Y-45483589D01*
X157250794Y-45380500D01*
X157216450Y-45352315D01*
X157033954Y-45254768D01*
X156835934Y-45194700D01*
X156835932Y-45194699D01*
X156835934Y-45194699D01*
X156630000Y-45174417D01*
X156424067Y-45194699D01*
X156226043Y-45254769D01*
X156115898Y-45313643D01*
X156043550Y-45352315D01*
X156043548Y-45352316D01*
X156043547Y-45352317D01*
X155883589Y-45483589D01*
X155752315Y-45643548D01*
X155748004Y-45651615D01*
X155699041Y-45701459D01*
X155630903Y-45716918D01*
X155565224Y-45693085D01*
X155533432Y-45651554D01*
X155531111Y-45652992D01*
X155515169Y-45627245D01*
X155508739Y-45616860D01*
X155504734Y-45609262D01*
X155504709Y-45609206D01*
X155492206Y-45580888D01*
X155487309Y-45575990D01*
X155469561Y-45553585D01*
X155468840Y-45552420D01*
X155465919Y-45547702D01*
X155462154Y-45544859D01*
X155441176Y-45529017D01*
X155434692Y-45523374D01*
X154023268Y-44111951D01*
X154017624Y-44105465D01*
X154010302Y-44095770D01*
X153974970Y-44063560D01*
X153972919Y-44061602D01*
X153959143Y-44047826D01*
X153956932Y-44046311D01*
X153950199Y-44040978D01*
X153927279Y-44020084D01*
X153920816Y-44017580D01*
X153895538Y-44004256D01*
X153889827Y-44000344D01*
X153889824Y-44000343D01*
X153889825Y-44000343D01*
X153859648Y-43993244D01*
X153851440Y-43990703D01*
X153822519Y-43979500D01*
X153815595Y-43979500D01*
X153787204Y-43976206D01*
X153780465Y-43974621D01*
X153749755Y-43978905D01*
X153741180Y-43979500D01*
X126064841Y-43979500D01*
X126056267Y-43978905D01*
X126044238Y-43977227D01*
X126044235Y-43977227D01*
X126019219Y-43978383D01*
X125996490Y-43979434D01*
X125993627Y-43979500D01*
X125974155Y-43979500D01*
X125973207Y-43979677D01*
X125971515Y-43979993D01*
X125962987Y-43980982D01*
X125933797Y-43982332D01*
X125932008Y-43982415D01*
X125925663Y-43985215D01*
X125898380Y-43993665D01*
X125891568Y-43994938D01*
X125891567Y-43994939D01*
X125881933Y-44000904D01*
X125865206Y-44011260D01*
X125857607Y-44015265D01*
X125829235Y-44027793D01*
X125824336Y-44032693D01*
X125801942Y-44050431D01*
X125796048Y-44054080D01*
X125777359Y-44078827D01*
X125771718Y-44085310D01*
X124831948Y-45025080D01*
X124825464Y-45030722D01*
X124815768Y-45038044D01*
X124783559Y-45073374D01*
X124781585Y-45075442D01*
X124767827Y-45089200D01*
X124767822Y-45089206D01*
X124766306Y-45091420D01*
X124760976Y-45098148D01*
X124740083Y-45121066D01*
X124740083Y-45121067D01*
X124737578Y-45127533D01*
X124724259Y-45152802D01*
X124720345Y-45158515D01*
X124720342Y-45158522D01*
X124719397Y-45162542D01*
X124684882Y-45223291D01*
X124623003Y-45255737D01*
X124553405Y-45249577D01*
X124511012Y-45221824D01*
X124481082Y-45191894D01*
X124287578Y-45056399D01*
X124073492Y-44956570D01*
X124073486Y-44956567D01*
X123859999Y-44899364D01*
X123859999Y-45794498D01*
X123752315Y-45745320D01*
X123645763Y-45730000D01*
X123574237Y-45730000D01*
X123467685Y-45745320D01*
X123360000Y-45794498D01*
X123360000Y-44899364D01*
X123359999Y-44899364D01*
X123146513Y-44956567D01*
X123146507Y-44956570D01*
X122932422Y-45056399D01*
X122932420Y-45056400D01*
X122738926Y-45191886D01*
X122640167Y-45290645D01*
X122578844Y-45324129D01*
X122509152Y-45319145D01*
X122464805Y-45290644D01*
X121847054Y-44672893D01*
X121847023Y-44672864D01*
X121826109Y-44651950D01*
X121826108Y-44651949D01*
X121806367Y-44641890D01*
X121789781Y-44631726D01*
X121771857Y-44618704D01*
X121771858Y-44618704D01*
X121750785Y-44611857D01*
X121732812Y-44604412D01*
X121713074Y-44594355D01*
X121713071Y-44594354D01*
X121691185Y-44590887D01*
X121672274Y-44586346D01*
X121651206Y-44579501D01*
X121651201Y-44579500D01*
X121651200Y-44579500D01*
X121619286Y-44579500D01*
X120520714Y-44579500D01*
X120518181Y-44579500D01*
X120518157Y-44579501D01*
X120488797Y-44579501D01*
X120467732Y-44586346D01*
X120448815Y-44590887D01*
X120426933Y-44594352D01*
X120426928Y-44594354D01*
X120407183Y-44604414D01*
X120389219Y-44611855D01*
X120368140Y-44618705D01*
X120350217Y-44631727D01*
X120333631Y-44641891D01*
X120313892Y-44651949D01*
X120313889Y-44651951D01*
X120273886Y-44691952D01*
X120273882Y-44691958D01*
X119878510Y-45087329D01*
X119474516Y-45491324D01*
X119474513Y-45491327D01*
X119470905Y-45494934D01*
X119465929Y-45499910D01*
X119404604Y-45533392D01*
X119334913Y-45528403D01*
X119282400Y-45490889D01*
X119279803Y-45487725D01*
X119276410Y-45483590D01*
X119239122Y-45452989D01*
X119172638Y-45398427D01*
X119116450Y-45352315D01*
X118933954Y-45254768D01*
X118735934Y-45194700D01*
X118735932Y-45194699D01*
X118735934Y-45194699D01*
X118530000Y-45174417D01*
X118324067Y-45194699D01*
X118126043Y-45254769D01*
X118015898Y-45313643D01*
X117943550Y-45352315D01*
X117943548Y-45352316D01*
X117943547Y-45352317D01*
X117783589Y-45483589D01*
X117652317Y-45643547D01*
X117652316Y-45643548D01*
X117652315Y-45643550D01*
X117632451Y-45680713D01*
X117554769Y-45826043D01*
X117494699Y-46024067D01*
X117474417Y-46229999D01*
X117494699Y-46435932D01*
X117511087Y-46489955D01*
X117554768Y-46633954D01*
X117644120Y-46801119D01*
X117652317Y-46816453D01*
X117734698Y-46916835D01*
X117762011Y-46981145D01*
X117750220Y-47050013D01*
X117703067Y-47101573D01*
X117638845Y-47119500D01*
X116881155Y-47119500D01*
X116814116Y-47099815D01*
X116768361Y-47047011D01*
X116758417Y-46977853D01*
X116785302Y-46916835D01*
X116832371Y-46859480D01*
X116867685Y-46816450D01*
X116965232Y-46633954D01*
X117025300Y-46435934D01*
X117045583Y-46230000D01*
X117025300Y-46024066D01*
X116965232Y-45826046D01*
X116867685Y-45643550D01*
X116812241Y-45575991D01*
X116736410Y-45483589D01*
X116610794Y-45380500D01*
X116576450Y-45352315D01*
X116393954Y-45254768D01*
X116195934Y-45194700D01*
X116195932Y-45194699D01*
X116195934Y-45194699D01*
X115990000Y-45174417D01*
X115784067Y-45194699D01*
X115586043Y-45254769D01*
X115475898Y-45313643D01*
X115403550Y-45352315D01*
X115403548Y-45352316D01*
X115403547Y-45352317D01*
X115243589Y-45483589D01*
X115112317Y-45643547D01*
X115112316Y-45643548D01*
X115112315Y-45643550D01*
X115092451Y-45680713D01*
X115014767Y-45826046D01*
X114994593Y-45892552D01*
X114956296Y-45950990D01*
X114892483Y-45979447D01*
X114823416Y-45968886D01*
X114771023Y-45922661D01*
X114756158Y-45888649D01*
X114723433Y-45766516D01*
X114723429Y-45766507D01*
X114623600Y-45552422D01*
X114623599Y-45552420D01*
X114488113Y-45358926D01*
X114488108Y-45358920D01*
X114321082Y-45191894D01*
X114127578Y-45056399D01*
X113913492Y-44956570D01*
X113913486Y-44956567D01*
X113699999Y-44899364D01*
X113699999Y-45794498D01*
X113592315Y-45745320D01*
X113485763Y-45730000D01*
X113414237Y-45730000D01*
X113307685Y-45745320D01*
X113200000Y-45794498D01*
X113200000Y-44899364D01*
X113199999Y-44899364D01*
X112986513Y-44956567D01*
X112986507Y-44956570D01*
X112772422Y-45056399D01*
X112772420Y-45056400D01*
X112578926Y-45191886D01*
X112578920Y-45191891D01*
X112411891Y-45358920D01*
X112411886Y-45358926D01*
X112276400Y-45552420D01*
X112276399Y-45552422D01*
X112176570Y-45766507D01*
X112176567Y-45766514D01*
X112143841Y-45888650D01*
X112107476Y-45948310D01*
X112044629Y-45978839D01*
X111975253Y-45970544D01*
X111921375Y-45926059D01*
X111905406Y-45892552D01*
X111885232Y-45826046D01*
X111787685Y-45643550D01*
X111732241Y-45575991D01*
X111656410Y-45483589D01*
X111530794Y-45380500D01*
X111496450Y-45352315D01*
X111313954Y-45254768D01*
X111115934Y-45194700D01*
X111115932Y-45194699D01*
X111115934Y-45194699D01*
X110928463Y-45176235D01*
X110910000Y-45174417D01*
X110909999Y-45174417D01*
X110704067Y-45194699D01*
X110506043Y-45254769D01*
X110395898Y-45313643D01*
X110323550Y-45352315D01*
X110323548Y-45352316D01*
X110323547Y-45352317D01*
X110163591Y-45483588D01*
X110163115Y-45484169D01*
X110162787Y-45484391D01*
X110159287Y-45487893D01*
X110158622Y-45487228D01*
X110105368Y-45523501D01*
X110067265Y-45529500D01*
X109212735Y-45529500D01*
X109145696Y-45509815D01*
X109120880Y-45487725D01*
X109120713Y-45487893D01*
X109117834Y-45485014D01*
X109116885Y-45484169D01*
X109116408Y-45483588D01*
X109012638Y-45398427D01*
X108956450Y-45352315D01*
X108773954Y-45254768D01*
X108575934Y-45194700D01*
X108575932Y-45194699D01*
X108575934Y-45194699D01*
X108370000Y-45174417D01*
X108164067Y-45194699D01*
X107966043Y-45254769D01*
X107855898Y-45313643D01*
X107783550Y-45352315D01*
X107783548Y-45352316D01*
X107783547Y-45352317D01*
X107623591Y-45483588D01*
X107623115Y-45484169D01*
X107622787Y-45484391D01*
X107619287Y-45487893D01*
X107618622Y-45487228D01*
X107565368Y-45523501D01*
X107527265Y-45529500D01*
X107190967Y-45529500D01*
X107187222Y-45529387D01*
X107125315Y-45525642D01*
X107125308Y-45525642D01*
X107064305Y-45536821D01*
X107060604Y-45537384D01*
X106999047Y-45544859D01*
X106999040Y-45544861D01*
X106989566Y-45548454D01*
X106967968Y-45554475D01*
X106957988Y-45556304D01*
X106901438Y-45581755D01*
X106897979Y-45583188D01*
X106839990Y-45605181D01*
X106839985Y-45605184D01*
X106831641Y-45610943D01*
X106812106Y-45621961D01*
X106802866Y-45626120D01*
X106802864Y-45626121D01*
X106754055Y-45664359D01*
X106751041Y-45666576D01*
X106699989Y-45701817D01*
X106699987Y-45701818D01*
X106658861Y-45748240D01*
X106656294Y-45750966D01*
X106340966Y-46066294D01*
X106338240Y-46068861D01*
X106291818Y-46109987D01*
X106256586Y-46161028D01*
X106254368Y-46164043D01*
X106216124Y-46212858D01*
X106216119Y-46212867D01*
X106211960Y-46222107D01*
X106200942Y-46241642D01*
X106195187Y-46249980D01*
X106195183Y-46249986D01*
X106195182Y-46249989D01*
X106195180Y-46249993D01*
X106195179Y-46249996D01*
X106173189Y-46307974D01*
X106171757Y-46311432D01*
X106146305Y-46367987D01*
X106144477Y-46377961D01*
X106138453Y-46399572D01*
X106134860Y-46409046D01*
X106134859Y-46409047D01*
X106127384Y-46470604D01*
X106126821Y-46474305D01*
X106115642Y-46535308D01*
X106115642Y-46535313D01*
X106119386Y-46597219D01*
X106119499Y-46600963D01*
X106119499Y-64124954D01*
X106119386Y-64128698D01*
X106115641Y-64190602D01*
X106115642Y-64190607D01*
X106126821Y-64251612D01*
X106127384Y-64255313D01*
X106134859Y-64316870D01*
X106134860Y-64316874D01*
X106138451Y-64326343D01*
X106144474Y-64347946D01*
X106146304Y-64357930D01*
X106171759Y-64414490D01*
X106173189Y-64417941D01*
X106195182Y-64475930D01*
X106195183Y-64475931D01*
X106200936Y-64484266D01*
X106211961Y-64503813D01*
X106216120Y-64513055D01*
X106216122Y-64513057D01*
X106249516Y-64555682D01*
X106254371Y-64561878D01*
X106256591Y-64564896D01*
X106291812Y-64615924D01*
X106291816Y-64615928D01*
X106291817Y-64615929D01*
X106338250Y-64657064D01*
X106340941Y-64659598D01*
X106730918Y-65049575D01*
X107120181Y-65438838D01*
X107153666Y-65500161D01*
X107156500Y-65526519D01*
X107156500Y-66114680D01*
X107136815Y-66181719D01*
X107111165Y-66210533D01*
X106985590Y-66313589D01*
X106854317Y-66473547D01*
X106854315Y-66473550D01*
X106836585Y-66506720D01*
X106756769Y-66656043D01*
X106696699Y-66854067D01*
X106676417Y-67060000D01*
X106696699Y-67265932D01*
X106698586Y-67272152D01*
X106756768Y-67463954D01*
X106854315Y-67646450D01*
X106868000Y-67663125D01*
X106985589Y-67806410D01*
X107111164Y-67909465D01*
X107150499Y-67967211D01*
X107156500Y-68005319D01*
X107156500Y-68614680D01*
X107136815Y-68681719D01*
X107111165Y-68710533D01*
X106985590Y-68813589D01*
X106868616Y-68956124D01*
X106854315Y-68973550D01*
X106842570Y-68995523D01*
X106756769Y-69156043D01*
X106696699Y-69354067D01*
X106676417Y-69560000D01*
X106696699Y-69765932D01*
X106696700Y-69765934D01*
X106756768Y-69963954D01*
X106854315Y-70146450D01*
X106854317Y-70146452D01*
X106985589Y-70306410D01*
X107082209Y-70385702D01*
X107145550Y-70437685D01*
X107328046Y-70535232D01*
X107328048Y-70535232D01*
X107328051Y-70535234D01*
X107333670Y-70537562D01*
X107332825Y-70539601D01*
X107382968Y-70572458D01*
X107411428Y-70636268D01*
X107400872Y-70705336D01*
X107354651Y-70757732D01*
X107320633Y-70772602D01*
X107268514Y-70786567D01*
X107268507Y-70786570D01*
X107054422Y-70886399D01*
X107054420Y-70886400D01*
X106860926Y-71021886D01*
X106860920Y-71021891D01*
X106693894Y-71188917D01*
X106558399Y-71382421D01*
X106458570Y-71596507D01*
X106458567Y-71596513D01*
X106401364Y-71809999D01*
X106401364Y-71810000D01*
X107453031Y-71810000D01*
X107420481Y-71860649D01*
X107382000Y-71991705D01*
X107382000Y-72128295D01*
X107420481Y-72259351D01*
X107453031Y-72310000D01*
X106401364Y-72310000D01*
X106458567Y-72523486D01*
X106458570Y-72523492D01*
X106558399Y-72737577D01*
X106558400Y-72737579D01*
X106693886Y-72931073D01*
X106693891Y-72931079D01*
X106860920Y-73098108D01*
X106860926Y-73098113D01*
X107054420Y-73233599D01*
X107054422Y-73233600D01*
X107268507Y-73333429D01*
X107268518Y-73333434D01*
X107320631Y-73347397D01*
X107380292Y-73383761D01*
X107410822Y-73446608D01*
X107402528Y-73515983D01*
X107358043Y-73569862D01*
X107333339Y-73581641D01*
X107333670Y-73582438D01*
X107328051Y-73584765D01*
X107245501Y-73628889D01*
X107145550Y-73682315D01*
X107145548Y-73682316D01*
X107145547Y-73682317D01*
X106985589Y-73813589D01*
X106857948Y-73969123D01*
X106854315Y-73973550D01*
X106822457Y-74033151D01*
X106756769Y-74156043D01*
X106696699Y-74354067D01*
X106676417Y-74560000D01*
X106696699Y-74765932D01*
X106720536Y-74844513D01*
X106756768Y-74963954D01*
X106854315Y-75146450D01*
X106854317Y-75146452D01*
X106985589Y-75306410D01*
X107074262Y-75379181D01*
X107145550Y-75437685D01*
X107328046Y-75535232D01*
X107526066Y-75595300D01*
X107526065Y-75595300D01*
X107564647Y-75599100D01*
X107680392Y-75610500D01*
X107680395Y-75610500D01*
X108033605Y-75610500D01*
X108033608Y-75610500D01*
X108187934Y-75595300D01*
X108385954Y-75535232D01*
X108568450Y-75437685D01*
X108728410Y-75306410D01*
X108859685Y-75146450D01*
X108957232Y-74963954D01*
X109017300Y-74765934D01*
X109037583Y-74560000D01*
X109017300Y-74354066D01*
X108957232Y-74156046D01*
X108859685Y-73973550D01*
X108807702Y-73910209D01*
X108728410Y-73813589D01*
X108579642Y-73691500D01*
X108568450Y-73682315D01*
X108385954Y-73584768D01*
X108385953Y-73584767D01*
X108385948Y-73584765D01*
X108380330Y-73582438D01*
X108381172Y-73580404D01*
X108331009Y-73547515D01*
X108302566Y-73483697D01*
X108313141Y-73414632D01*
X108359377Y-73362248D01*
X108393368Y-73347397D01*
X108445481Y-73333434D01*
X108445492Y-73333429D01*
X108659577Y-73233600D01*
X108659579Y-73233599D01*
X108853073Y-73098113D01*
X108853079Y-73098108D01*
X109020105Y-72931082D01*
X109155600Y-72737578D01*
X109255429Y-72523492D01*
X109255432Y-72523486D01*
X109312636Y-72310000D01*
X108260969Y-72310000D01*
X108293519Y-72259351D01*
X108332000Y-72128295D01*
X108332000Y-71991705D01*
X108293519Y-71860649D01*
X108260969Y-71810000D01*
X109312636Y-71810000D01*
X109312635Y-71809999D01*
X109255432Y-71596513D01*
X109255429Y-71596507D01*
X109155600Y-71382422D01*
X109155599Y-71382420D01*
X109020113Y-71188926D01*
X109020108Y-71188920D01*
X108853079Y-71021891D01*
X108853073Y-71021886D01*
X108659579Y-70886400D01*
X108659577Y-70886399D01*
X108445492Y-70786570D01*
X108445486Y-70786567D01*
X108393366Y-70772602D01*
X108333706Y-70736237D01*
X108303177Y-70673390D01*
X108311472Y-70604014D01*
X108355957Y-70550136D01*
X108380662Y-70538364D01*
X108380330Y-70537562D01*
X108385948Y-70535234D01*
X108385948Y-70535233D01*
X108385954Y-70535232D01*
X108568450Y-70437685D01*
X108728410Y-70306410D01*
X108728885Y-70305830D01*
X108729212Y-70305608D01*
X108732713Y-70302107D01*
X108733377Y-70302771D01*
X108786632Y-70266499D01*
X108824735Y-70260500D01*
X109248881Y-70260500D01*
X109315920Y-70280185D01*
X109336562Y-70296819D01*
X110616981Y-71577238D01*
X110650466Y-71638561D01*
X110653300Y-71664919D01*
X110653300Y-79607689D01*
X110633615Y-79674728D01*
X110580811Y-79720483D01*
X110511653Y-79730427D01*
X110485967Y-79723871D01*
X110361379Y-79677403D01*
X110361372Y-79677401D01*
X110301844Y-79671000D01*
X109754000Y-79671000D01*
X109754000Y-80415382D01*
X109684948Y-80361637D01*
X109566576Y-80321000D01*
X109472927Y-80321000D01*
X109380554Y-80336414D01*
X109270486Y-80395981D01*
X109254000Y-80413889D01*
X109254000Y-79671000D01*
X108706155Y-79671000D01*
X108646627Y-79677401D01*
X108646620Y-79677403D01*
X108511913Y-79727645D01*
X108511906Y-79727649D01*
X108396812Y-79813809D01*
X108396809Y-79813812D01*
X108310649Y-79928906D01*
X108310645Y-79928913D01*
X108260403Y-80063620D01*
X108260401Y-80063627D01*
X108254000Y-80123155D01*
X108254000Y-80446000D01*
X109224440Y-80446000D01*
X109185722Y-80488059D01*
X109135449Y-80602670D01*
X109125114Y-80727395D01*
X109155837Y-80848719D01*
X109219394Y-80946000D01*
X108254000Y-80946000D01*
X108254000Y-81268844D01*
X108260401Y-81328372D01*
X108260403Y-81328379D01*
X108310645Y-81463086D01*
X108310649Y-81463093D01*
X108396809Y-81578187D01*
X108396812Y-81578190D01*
X108519011Y-81669669D01*
X108517827Y-81671249D01*
X108559157Y-81712580D01*
X108574008Y-81780853D01*
X108569116Y-81807566D01*
X108559659Y-81839156D01*
X108559657Y-81839165D01*
X108549796Y-82008469D01*
X108549797Y-82008471D01*
X108579245Y-82175485D01*
X108579246Y-82175488D01*
X108579247Y-82175492D01*
X108613445Y-82254772D01*
X108646421Y-82331219D01*
X108747695Y-82467254D01*
X108747698Y-82467258D01*
X108791657Y-82504144D01*
X108830359Y-82562315D01*
X108831467Y-82632176D01*
X108802146Y-82684227D01*
X108693097Y-82799812D01*
X108608300Y-82946685D01*
X108608299Y-82946687D01*
X108608299Y-82946688D01*
X108601227Y-82970307D01*
X108559658Y-83109159D01*
X108559657Y-83109165D01*
X108549796Y-83278469D01*
X108549797Y-83278471D01*
X108579245Y-83445485D01*
X108579246Y-83445488D01*
X108579247Y-83445492D01*
X108646421Y-83601219D01*
X108747698Y-83737258D01*
X108877617Y-83846273D01*
X109029175Y-83922388D01*
X109194201Y-83961500D01*
X109194203Y-83961500D01*
X109771249Y-83961500D01*
X109771256Y-83961500D01*
X109897451Y-83946750D01*
X110056820Y-83888744D01*
X110198517Y-83795549D01*
X110314902Y-83672188D01*
X110399701Y-83525312D01*
X110410510Y-83489205D01*
X110448594Y-83430631D01*
X110512303Y-83401943D01*
X110581407Y-83412252D01*
X110633969Y-83458285D01*
X110653300Y-83524772D01*
X110653300Y-84417500D01*
X110633615Y-84484539D01*
X110580811Y-84530294D01*
X110529300Y-84541500D01*
X109716048Y-84541500D01*
X109712303Y-84541387D01*
X109650396Y-84537642D01*
X109650390Y-84537642D01*
X109589386Y-84548821D01*
X109585685Y-84549384D01*
X109524128Y-84556859D01*
X109524127Y-84556860D01*
X109514653Y-84560453D01*
X109493042Y-84566477D01*
X109483068Y-84568305D01*
X109426513Y-84593757D01*
X109423055Y-84595189D01*
X109365077Y-84617179D01*
X109365074Y-84617180D01*
X109365070Y-84617182D01*
X109365067Y-84617183D01*
X109365061Y-84617187D01*
X109356723Y-84622942D01*
X109337188Y-84633960D01*
X109327948Y-84638119D01*
X109327939Y-84638124D01*
X109279124Y-84676368D01*
X109276109Y-84678586D01*
X109225068Y-84713818D01*
X109183942Y-84760240D01*
X109181375Y-84762966D01*
X108458661Y-85485681D01*
X108397338Y-85519166D01*
X108370980Y-85522000D01*
X100174500Y-85522000D01*
X100107461Y-85502315D01*
X100061706Y-85449511D01*
X100050500Y-85398000D01*
X100050500Y-81004060D01*
X100051030Y-80995968D01*
X100051999Y-80988600D01*
X100063657Y-80899945D01*
X100072013Y-80868726D01*
X100104360Y-80790538D01*
X100120506Y-80762535D01*
X100171963Y-80695373D01*
X100194803Y-80672494D01*
X100261872Y-80620922D01*
X100289850Y-80604724D01*
X100367979Y-80572242D01*
X100399187Y-80563832D01*
X100495142Y-80551043D01*
X100503338Y-80550500D01*
X104562026Y-80550500D01*
X104682969Y-80522895D01*
X104794737Y-80469071D01*
X104891725Y-80391725D01*
X104969071Y-80294737D01*
X105022895Y-80182969D01*
X105050500Y-80062026D01*
X105050500Y-80000000D01*
X105050500Y-79983592D01*
X105050500Y-77714269D01*
X106681500Y-77714269D01*
X106684353Y-77744699D01*
X106684353Y-77744701D01*
X106729206Y-77872880D01*
X106729207Y-77872882D01*
X106809850Y-77982150D01*
X106919118Y-78062793D01*
X106939855Y-78070049D01*
X107047299Y-78107646D01*
X107077730Y-78110500D01*
X107077734Y-78110500D01*
X108636270Y-78110500D01*
X108666699Y-78107646D01*
X108666701Y-78107646D01*
X108746210Y-78079824D01*
X108794882Y-78062793D01*
X108904150Y-77982150D01*
X108984793Y-77872882D01*
X109007219Y-77808790D01*
X109029646Y-77744701D01*
X109029646Y-77744699D01*
X109032500Y-77714269D01*
X109032500Y-76405730D01*
X109029646Y-76375300D01*
X109029646Y-76375298D01*
X108984793Y-76247119D01*
X108984792Y-76247117D01*
X108931216Y-76174524D01*
X108904150Y-76137850D01*
X108794882Y-76057207D01*
X108794880Y-76057206D01*
X108666700Y-76012353D01*
X108636270Y-76009500D01*
X108636266Y-76009500D01*
X107077734Y-76009500D01*
X107077730Y-76009500D01*
X107047300Y-76012353D01*
X107047298Y-76012353D01*
X106919119Y-76057206D01*
X106919117Y-76057207D01*
X106809850Y-76137850D01*
X106729207Y-76247117D01*
X106729206Y-76247119D01*
X106684353Y-76375298D01*
X106684353Y-76375300D01*
X106681500Y-76405730D01*
X106681500Y-77714269D01*
X105050500Y-77714269D01*
X105050500Y-63989955D01*
X105050500Y-63938593D01*
X105050501Y-63938593D01*
X105050499Y-63938584D01*
X105050500Y-63937974D01*
X105022895Y-63817031D01*
X104969071Y-63705263D01*
X104891725Y-63608275D01*
X104794737Y-63530929D01*
X104778054Y-63522895D01*
X104682973Y-63477106D01*
X104682974Y-63477106D01*
X104562027Y-63449500D01*
X104562026Y-63449500D01*
X104510045Y-63449500D01*
X100504066Y-63449500D01*
X100495968Y-63448969D01*
X100475220Y-63446237D01*
X100399846Y-63436314D01*
X100368579Y-63427936D01*
X100290334Y-63395526D01*
X100262300Y-63379340D01*
X100195107Y-63327780D01*
X100172219Y-63304892D01*
X100120659Y-63237699D01*
X100104473Y-63209665D01*
X100087984Y-63169858D01*
X100072063Y-63131420D01*
X100063685Y-63100152D01*
X100051031Y-63004034D01*
X100050500Y-62995933D01*
X100050500Y-61151999D01*
X100509127Y-61151999D01*
X100509128Y-61152000D01*
X101472314Y-61152000D01*
X101460359Y-61163955D01*
X101402835Y-61276852D01*
X101383014Y-61402000D01*
X101402835Y-61527148D01*
X101460359Y-61640045D01*
X101472314Y-61652000D01*
X100509128Y-61652000D01*
X100561730Y-61848317D01*
X100561734Y-61848326D01*
X100657865Y-62054482D01*
X100788342Y-62240820D01*
X100949179Y-62401657D01*
X101135517Y-62532134D01*
X101341673Y-62628265D01*
X101341682Y-62628269D01*
X101537999Y-62680872D01*
X101537999Y-62680871D01*
X101537999Y-61717685D01*
X101549955Y-61729641D01*
X101662852Y-61787165D01*
X101756519Y-61802000D01*
X101819481Y-61802000D01*
X101913148Y-61787165D01*
X102026045Y-61729641D01*
X102038000Y-61717686D01*
X102038000Y-62680872D01*
X102234317Y-62628269D01*
X102234326Y-62628265D01*
X102440482Y-62532134D01*
X102626820Y-62401657D01*
X102787657Y-62240820D01*
X102918134Y-62054482D01*
X103014265Y-61848326D01*
X103014269Y-61848317D01*
X103066872Y-61652000D01*
X102103686Y-61652000D01*
X102115641Y-61640045D01*
X102173165Y-61527148D01*
X102192986Y-61402000D01*
X102173165Y-61276852D01*
X102115641Y-61163955D01*
X102103686Y-61152000D01*
X103066872Y-61152000D01*
X103066872Y-61151999D01*
X103014269Y-60955682D01*
X103014265Y-60955673D01*
X102918134Y-60749517D01*
X102787657Y-60563179D01*
X102626820Y-60402342D01*
X102440482Y-60271865D01*
X102234328Y-60175734D01*
X102038000Y-60123127D01*
X102038000Y-61086313D01*
X102026045Y-61074359D01*
X101913148Y-61016835D01*
X101819481Y-61002000D01*
X101756519Y-61002000D01*
X101662852Y-61016835D01*
X101549955Y-61074359D01*
X101537999Y-61086314D01*
X101538000Y-60123127D01*
X101341671Y-60175734D01*
X101135517Y-60271865D01*
X100949179Y-60402342D01*
X100788342Y-60563179D01*
X100657865Y-60749517D01*
X100561734Y-60955673D01*
X100561730Y-60955682D01*
X100509127Y-61151999D01*
X100050500Y-61151999D01*
X100050500Y-58862000D01*
X100782659Y-58862000D01*
X100801975Y-59058129D01*
X100859188Y-59246733D01*
X100952086Y-59420532D01*
X100952090Y-59420539D01*
X101077116Y-59572883D01*
X101229460Y-59697909D01*
X101229467Y-59697913D01*
X101403266Y-59790811D01*
X101403269Y-59790811D01*
X101403273Y-59790814D01*
X101591868Y-59848024D01*
X101788000Y-59867341D01*
X101984132Y-59848024D01*
X102172727Y-59790814D01*
X102220661Y-59765193D01*
X102324866Y-59709494D01*
X102346538Y-59697910D01*
X102498883Y-59572883D01*
X102623910Y-59420538D01*
X102716814Y-59246727D01*
X102774024Y-59058132D01*
X102793341Y-58862000D01*
X102774024Y-58665868D01*
X102716814Y-58477273D01*
X102716811Y-58477269D01*
X102716811Y-58477266D01*
X102623913Y-58303467D01*
X102623909Y-58303460D01*
X102498883Y-58151116D01*
X102346539Y-58026090D01*
X102346532Y-58026086D01*
X102172733Y-57933188D01*
X102172727Y-57933186D01*
X101984132Y-57875976D01*
X101984129Y-57875975D01*
X101788000Y-57856659D01*
X101591870Y-57875975D01*
X101403266Y-57933188D01*
X101229467Y-58026086D01*
X101229460Y-58026090D01*
X101077116Y-58151116D01*
X100952090Y-58303460D01*
X100952086Y-58303467D01*
X100859188Y-58477266D01*
X100801975Y-58665870D01*
X100782659Y-58862000D01*
X100050500Y-58862000D01*
X100050500Y-56322000D01*
X100782659Y-56322000D01*
X100801975Y-56518129D01*
X100801976Y-56518132D01*
X100833973Y-56623613D01*
X100859188Y-56706733D01*
X100952086Y-56880532D01*
X100952090Y-56880539D01*
X101077116Y-57032883D01*
X101229460Y-57157909D01*
X101229467Y-57157913D01*
X101403266Y-57250811D01*
X101403269Y-57250811D01*
X101403273Y-57250814D01*
X101591868Y-57308024D01*
X101788000Y-57327341D01*
X101984132Y-57308024D01*
X102172727Y-57250814D01*
X102346538Y-57157910D01*
X102498883Y-57032883D01*
X102623910Y-56880538D01*
X102716814Y-56706727D01*
X102774024Y-56518132D01*
X102793341Y-56322000D01*
X102774024Y-56125868D01*
X102716814Y-55937273D01*
X102716811Y-55937269D01*
X102716811Y-55937266D01*
X102623913Y-55763467D01*
X102623909Y-55763460D01*
X102498883Y-55611116D01*
X102346539Y-55486090D01*
X102346532Y-55486086D01*
X102172733Y-55393188D01*
X102172727Y-55393186D01*
X101984132Y-55335976D01*
X101984129Y-55335975D01*
X101788000Y-55316659D01*
X101591870Y-55335975D01*
X101403266Y-55393188D01*
X101229467Y-55486086D01*
X101229460Y-55486090D01*
X101077116Y-55611116D01*
X100952090Y-55763460D01*
X100952086Y-55763467D01*
X100859188Y-55937266D01*
X100801975Y-56125870D01*
X100782659Y-56322000D01*
X100050500Y-56322000D01*
X100050500Y-54601752D01*
X100787500Y-54601752D01*
X100799131Y-54660229D01*
X100799132Y-54660230D01*
X100843447Y-54726552D01*
X100909769Y-54770867D01*
X100909770Y-54770868D01*
X100968247Y-54782499D01*
X100968250Y-54782500D01*
X100968252Y-54782500D01*
X102607750Y-54782500D01*
X102607751Y-54782499D01*
X102622568Y-54779552D01*
X102666229Y-54770868D01*
X102666229Y-54770867D01*
X102666231Y-54770867D01*
X102732552Y-54726552D01*
X102776867Y-54660231D01*
X102776867Y-54660229D01*
X102776868Y-54660229D01*
X102788499Y-54601752D01*
X102788500Y-54601750D01*
X102788500Y-52962249D01*
X102788499Y-52962247D01*
X102776868Y-52903770D01*
X102776867Y-52903769D01*
X102732552Y-52837447D01*
X102666230Y-52793132D01*
X102666229Y-52793131D01*
X102607752Y-52781500D01*
X102607748Y-52781500D01*
X100968252Y-52781500D01*
X100968247Y-52781500D01*
X100909770Y-52793131D01*
X100909769Y-52793132D01*
X100843447Y-52837447D01*
X100799132Y-52903769D01*
X100799131Y-52903770D01*
X100787500Y-52962247D01*
X100787500Y-54601752D01*
X100050500Y-54601752D01*
X100050500Y-46501740D01*
X100050598Y-46498263D01*
X100065009Y-46241642D01*
X100068851Y-46173227D01*
X100069627Y-46166340D01*
X100123866Y-45847111D01*
X100125414Y-45840328D01*
X100129529Y-45826044D01*
X100215053Y-45529181D01*
X100217346Y-45522629D01*
X100341265Y-45223461D01*
X100344268Y-45217226D01*
X100500909Y-44933806D01*
X100504592Y-44927944D01*
X100691983Y-44663842D01*
X100696293Y-44658436D01*
X100912069Y-44416984D01*
X100916987Y-44412067D01*
X101158436Y-44196293D01*
X101163842Y-44191983D01*
X101427944Y-44004592D01*
X101433806Y-44000909D01*
X101717226Y-43844268D01*
X101723461Y-43841265D01*
X102022629Y-43717346D01*
X102029181Y-43715053D01*
X102340332Y-43625413D01*
X102347112Y-43623866D01*
X102666340Y-43569627D01*
X102673227Y-43568851D01*
X102850713Y-43558883D01*
X102998265Y-43550598D01*
X103001742Y-43550500D01*
X103016408Y-43550500D01*
X161983592Y-43550500D01*
X161998258Y-43550500D01*
X162001735Y-43550598D01*
G37*
G04 #@! TD.AperFunction*
G04 #@! TA.AperFunction,Conductor*
G36*
X144990379Y-49357114D02*
G01*
X145019616Y-49416847D01*
X145019785Y-49416808D01*
X145019959Y-49417548D01*
X145021095Y-49419869D01*
X145021599Y-49424523D01*
X145022416Y-49427997D01*
X145025214Y-49434334D01*
X145033664Y-49461620D01*
X145034937Y-49468429D01*
X145034937Y-49468430D01*
X145034939Y-49468433D01*
X145048480Y-49490304D01*
X145051260Y-49494793D01*
X145055263Y-49502386D01*
X145067794Y-49530765D01*
X145067795Y-49530766D01*
X145067796Y-49530768D01*
X145072689Y-49535661D01*
X145090435Y-49558065D01*
X145094077Y-49563948D01*
X145094080Y-49563951D01*
X145118826Y-49582639D01*
X145125311Y-49588282D01*
X147586581Y-52049552D01*
X147620066Y-52110875D01*
X147622900Y-52137233D01*
X147622900Y-68895912D01*
X147603215Y-68962951D01*
X147550411Y-69008706D01*
X147481253Y-69018650D01*
X147417697Y-68989625D01*
X147411219Y-68983593D01*
X146026666Y-67599040D01*
X145993181Y-67537717D01*
X145998165Y-67468025D01*
X146040037Y-67412092D01*
X146102191Y-67387957D01*
X146179934Y-67380300D01*
X146377954Y-67320232D01*
X146560450Y-67222685D01*
X146720410Y-67091410D01*
X146851685Y-66931450D01*
X146949232Y-66748954D01*
X147009300Y-66550934D01*
X147029583Y-66345000D01*
X147009300Y-66139066D01*
X146949232Y-65941046D01*
X146851685Y-65758550D01*
X146765566Y-65653613D01*
X146720410Y-65598589D01*
X146599955Y-65499736D01*
X146560450Y-65467315D01*
X146377954Y-65369768D01*
X146311447Y-65349593D01*
X146253009Y-65311296D01*
X146224553Y-65247484D01*
X146235113Y-65178417D01*
X146281337Y-65126023D01*
X146315350Y-65111158D01*
X146437483Y-65078433D01*
X146437492Y-65078429D01*
X146651578Y-64978600D01*
X146845082Y-64843105D01*
X147012105Y-64676082D01*
X147147600Y-64482578D01*
X147247429Y-64268492D01*
X147247432Y-64268486D01*
X147304636Y-64055000D01*
X146407686Y-64055000D01*
X146433493Y-64014844D01*
X146474000Y-63876889D01*
X146474000Y-63733111D01*
X146433493Y-63595156D01*
X146407686Y-63555000D01*
X147304636Y-63555000D01*
X147304635Y-63554999D01*
X147247432Y-63341513D01*
X147247429Y-63341507D01*
X147147600Y-63127422D01*
X147147599Y-63127420D01*
X147012113Y-62933926D01*
X147012108Y-62933920D01*
X146845082Y-62766894D01*
X146651578Y-62631399D01*
X146437492Y-62531570D01*
X146437486Y-62531567D01*
X146315349Y-62498841D01*
X146255689Y-62462476D01*
X146225160Y-62399629D01*
X146233455Y-62330253D01*
X146277940Y-62276375D01*
X146311444Y-62260407D01*
X146377954Y-62240232D01*
X146560450Y-62142685D01*
X146720410Y-62011410D01*
X146851685Y-61851450D01*
X146949232Y-61668954D01*
X147009300Y-61470934D01*
X147029583Y-61265000D01*
X147009300Y-61059066D01*
X146949232Y-60861046D01*
X146851685Y-60678550D01*
X146751997Y-60557079D01*
X146720410Y-60518589D01*
X146595374Y-60415976D01*
X146560450Y-60387315D01*
X146377954Y-60289768D01*
X146179934Y-60229700D01*
X146179932Y-60229699D01*
X146179934Y-60229699D01*
X145974000Y-60209417D01*
X145768067Y-60229699D01*
X145570042Y-60289769D01*
X145555804Y-60297380D01*
X145487400Y-60311620D01*
X145422157Y-60286617D01*
X145409673Y-60275701D01*
X145011976Y-59878004D01*
X144978491Y-59816681D01*
X144975657Y-59790323D01*
X144975657Y-59510985D01*
X144995342Y-59443946D01*
X145048146Y-59398191D01*
X145117304Y-59388247D01*
X145180860Y-59417272D01*
X145195508Y-59432318D01*
X145227590Y-59471410D01*
X145387550Y-59602685D01*
X145570046Y-59700232D01*
X145768066Y-59760300D01*
X145768065Y-59760300D01*
X145786529Y-59762118D01*
X145974000Y-59780583D01*
X146179934Y-59760300D01*
X146377954Y-59700232D01*
X146560450Y-59602685D01*
X146720410Y-59471410D01*
X146851685Y-59311450D01*
X146949232Y-59128954D01*
X147009300Y-58930934D01*
X147029583Y-58725000D01*
X147009300Y-58519066D01*
X146949232Y-58321046D01*
X146851685Y-58138550D01*
X146757539Y-58023832D01*
X146720410Y-57978589D01*
X146595374Y-57875976D01*
X146560450Y-57847315D01*
X146377954Y-57749768D01*
X146179934Y-57689700D01*
X146179932Y-57689699D01*
X146179934Y-57689699D01*
X145974000Y-57669417D01*
X145768067Y-57689699D01*
X145570043Y-57749769D01*
X145459898Y-57808643D01*
X145387550Y-57847315D01*
X145387548Y-57847316D01*
X145387547Y-57847317D01*
X145227589Y-57978590D01*
X145127139Y-58100989D01*
X145069393Y-58140323D01*
X144999549Y-58142194D01*
X144943605Y-58110005D01*
X143530781Y-56697181D01*
X143497296Y-56635858D01*
X143502280Y-56566166D01*
X143544152Y-56510233D01*
X143609616Y-56485816D01*
X143618462Y-56485500D01*
X144875421Y-56485500D01*
X144942460Y-56505185D01*
X144988215Y-56557989D01*
X144994081Y-56573503D01*
X144998768Y-56588954D01*
X145096315Y-56771450D01*
X145123364Y-56804410D01*
X145227589Y-56931410D01*
X145313806Y-57002165D01*
X145387550Y-57062685D01*
X145570046Y-57160232D01*
X145768066Y-57220300D01*
X145768065Y-57220300D01*
X145786529Y-57222118D01*
X145974000Y-57240583D01*
X146179934Y-57220300D01*
X146377954Y-57160232D01*
X146560450Y-57062685D01*
X146720410Y-56931410D01*
X146851685Y-56771450D01*
X146949232Y-56588954D01*
X147009300Y-56390934D01*
X147029583Y-56185000D01*
X147009300Y-55979066D01*
X146949232Y-55781046D01*
X146851685Y-55598550D01*
X146759389Y-55486086D01*
X146720410Y-55438589D01*
X146595374Y-55335976D01*
X146560450Y-55307315D01*
X146377954Y-55209768D01*
X146179934Y-55149700D01*
X146179932Y-55149699D01*
X146179934Y-55149699D01*
X145974000Y-55129417D01*
X145768067Y-55149699D01*
X145570043Y-55209769D01*
X145459898Y-55268643D01*
X145387550Y-55307315D01*
X145387548Y-55307316D01*
X145387547Y-55307317D01*
X145227589Y-55438589D01*
X145099628Y-55594513D01*
X145096315Y-55598550D01*
X145066653Y-55654043D01*
X144998769Y-55781043D01*
X144998768Y-55781046D01*
X144994081Y-55796497D01*
X144955783Y-55854935D01*
X144891970Y-55883391D01*
X144875421Y-55884500D01*
X143335147Y-55884500D01*
X143268108Y-55864815D01*
X143247466Y-55848181D01*
X141556466Y-54157181D01*
X141522981Y-54095858D01*
X141527965Y-54026166D01*
X141569837Y-53970233D01*
X141635301Y-53945816D01*
X141644147Y-53945500D01*
X144799500Y-53945500D01*
X144866539Y-53965185D01*
X144912294Y-54017989D01*
X144923500Y-54069500D01*
X144923500Y-54514752D01*
X144935131Y-54573229D01*
X144935132Y-54573230D01*
X144979447Y-54639552D01*
X145045769Y-54683867D01*
X145045770Y-54683868D01*
X145104247Y-54695499D01*
X145104250Y-54695500D01*
X145104252Y-54695500D01*
X146843750Y-54695500D01*
X146843751Y-54695499D01*
X146858568Y-54692552D01*
X146902229Y-54683868D01*
X146902229Y-54683867D01*
X146902231Y-54683867D01*
X146968552Y-54639552D01*
X147012867Y-54573231D01*
X147012867Y-54573229D01*
X147012868Y-54573229D01*
X147024499Y-54514752D01*
X147024500Y-54514750D01*
X147024500Y-52775249D01*
X147024499Y-52775247D01*
X147012868Y-52716770D01*
X147012867Y-52716769D01*
X146968552Y-52650447D01*
X146902230Y-52606132D01*
X146902229Y-52606131D01*
X146843752Y-52594500D01*
X146843748Y-52594500D01*
X145104252Y-52594500D01*
X145104247Y-52594500D01*
X145045770Y-52606131D01*
X145045769Y-52606132D01*
X144979447Y-52650447D01*
X144935132Y-52716769D01*
X144935131Y-52716770D01*
X144923500Y-52775247D01*
X144923500Y-53220500D01*
X144903815Y-53287539D01*
X144851011Y-53333294D01*
X144799500Y-53344500D01*
X141360833Y-53344500D01*
X141293794Y-53324815D01*
X141273152Y-53308181D01*
X140513837Y-52548866D01*
X140480352Y-52487543D01*
X140485336Y-52417851D01*
X140527208Y-52361918D01*
X140592672Y-52337501D01*
X140654479Y-52350414D01*
X140654623Y-52350037D01*
X140657013Y-52350943D01*
X140659144Y-52351388D01*
X140661635Y-52352696D01*
X140699051Y-52361918D01*
X140815014Y-52390500D01*
X140815015Y-52390500D01*
X140972985Y-52390500D01*
X141126365Y-52352696D01*
X141131431Y-52350037D01*
X141266240Y-52279283D01*
X141384483Y-52174530D01*
X141474220Y-52044523D01*
X141530237Y-51896818D01*
X141549278Y-51740000D01*
X141549278Y-51739999D01*
X141531619Y-51594562D01*
X141543080Y-51525639D01*
X141567031Y-51491938D01*
X142840059Y-50218910D01*
X142846532Y-50213279D01*
X142856224Y-50205959D01*
X142856228Y-50205958D01*
X142888459Y-50170600D01*
X142890367Y-50168602D01*
X142904174Y-50154797D01*
X142905684Y-50152592D01*
X142911023Y-50145851D01*
X142912489Y-50144242D01*
X142931916Y-50122933D01*
X142934416Y-50116478D01*
X142947750Y-50091183D01*
X142951656Y-50085481D01*
X142951655Y-50085481D01*
X142951657Y-50085480D01*
X142958757Y-50055291D01*
X142961291Y-50047106D01*
X142972500Y-50018173D01*
X142972500Y-50011248D01*
X142975795Y-49982855D01*
X142977378Y-49976123D01*
X142977379Y-49976119D01*
X142973095Y-49945408D01*
X142972500Y-49936833D01*
X142972500Y-49604682D01*
X142992185Y-49537643D01*
X143044989Y-49491888D01*
X143114147Y-49481944D01*
X143177703Y-49510969D01*
X143183218Y-49516105D01*
X143213158Y-49540676D01*
X143343550Y-49647685D01*
X143526046Y-49745232D01*
X143724066Y-49805300D01*
X143724065Y-49805300D01*
X143744347Y-49807297D01*
X143930000Y-49825583D01*
X144135934Y-49805300D01*
X144333954Y-49745232D01*
X144516450Y-49647685D01*
X144676410Y-49516410D01*
X144803022Y-49362131D01*
X144860765Y-49322798D01*
X144930610Y-49320927D01*
X144990379Y-49357114D01*
G37*
G04 #@! TD.AperFunction*
G04 #@! TA.AperFunction,Conductor*
G36*
X156384000Y-65782498D02*
G01*
X156276315Y-65733320D01*
X156169763Y-65718000D01*
X156098237Y-65718000D01*
X155991685Y-65733320D01*
X155883999Y-65782498D01*
X155883999Y-64113501D01*
X155991685Y-64162680D01*
X156098237Y-64178000D01*
X156169763Y-64178000D01*
X156276315Y-64162680D01*
X156384000Y-64113501D01*
X156384000Y-65782498D01*
G37*
G04 #@! TD.AperFunction*
G04 #@! TA.AperFunction,Conductor*
G36*
X156384000Y-63242498D02*
G01*
X156276315Y-63193320D01*
X156169763Y-63178000D01*
X156098237Y-63178000D01*
X155991685Y-63193320D01*
X155883999Y-63242498D01*
X155883999Y-61573501D01*
X155991685Y-61622680D01*
X156098237Y-61638000D01*
X156169763Y-61638000D01*
X156276315Y-61622680D01*
X156384000Y-61573501D01*
X156384000Y-63242498D01*
G37*
G04 #@! TD.AperFunction*
G04 #@! TA.AperFunction,Conductor*
G36*
X156384000Y-60702498D02*
G01*
X156276315Y-60653320D01*
X156169763Y-60638000D01*
X156098237Y-60638000D01*
X155991685Y-60653320D01*
X155883999Y-60702498D01*
X155883999Y-59033501D01*
X155991685Y-59082680D01*
X156098237Y-59098000D01*
X156169763Y-59098000D01*
X156276315Y-59082680D01*
X156384000Y-59033501D01*
X156384000Y-60702498D01*
G37*
G04 #@! TD.AperFunction*
G04 #@! TA.AperFunction,Conductor*
G36*
X156384000Y-58162498D02*
G01*
X156276315Y-58113320D01*
X156169763Y-58098000D01*
X156098237Y-58098000D01*
X155991685Y-58113320D01*
X155883999Y-58162498D01*
X155883999Y-56493501D01*
X155991685Y-56542680D01*
X156098237Y-56558000D01*
X156169763Y-56558000D01*
X156276315Y-56542680D01*
X156384000Y-56493501D01*
X156384000Y-58162498D01*
G37*
G04 #@! TD.AperFunction*
G04 #@! TA.AperFunction,Conductor*
G36*
X131217206Y-52946185D02*
G01*
X131237848Y-52962819D01*
X131929848Y-53654819D01*
X131963333Y-53716142D01*
X131958349Y-53785834D01*
X131916477Y-53841767D01*
X131851013Y-53866184D01*
X131842167Y-53866500D01*
X130587730Y-53866500D01*
X130557300Y-53869353D01*
X130557298Y-53869353D01*
X130429119Y-53914206D01*
X130429117Y-53914207D01*
X130319850Y-53994850D01*
X130239207Y-54104117D01*
X130239206Y-54104119D01*
X130194353Y-54232298D01*
X130194353Y-54232300D01*
X130191500Y-54262730D01*
X130191500Y-55333323D01*
X130171815Y-55400362D01*
X130155181Y-55421004D01*
X129596005Y-55980181D01*
X129534682Y-56013666D01*
X129508324Y-56016500D01*
X126568073Y-56016500D01*
X126501034Y-55996815D01*
X126455279Y-55944011D01*
X126445335Y-55874853D01*
X126455691Y-55840095D01*
X126553429Y-55630492D01*
X126553433Y-55630483D01*
X126614567Y-55402326D01*
X126614569Y-55402316D01*
X126624221Y-55292000D01*
X125683969Y-55292000D01*
X125716519Y-55241351D01*
X125755000Y-55110295D01*
X125755000Y-54973705D01*
X125716519Y-54842649D01*
X125683969Y-54792000D01*
X126624221Y-54792000D01*
X126614569Y-54681683D01*
X126614567Y-54681673D01*
X126553433Y-54453516D01*
X126553429Y-54453507D01*
X126453600Y-54239422D01*
X126453599Y-54239420D01*
X126318113Y-54045926D01*
X126318108Y-54045920D01*
X126151082Y-53878894D01*
X125957578Y-53743399D01*
X125743492Y-53643570D01*
X125743486Y-53643567D01*
X125529999Y-53586364D01*
X125529998Y-54633981D01*
X125415199Y-54581554D01*
X125313975Y-54567000D01*
X125246025Y-54567000D01*
X125144801Y-54581554D01*
X125030000Y-54633981D01*
X125030000Y-53586364D01*
X125029999Y-53586364D01*
X124816513Y-53643567D01*
X124816507Y-53643570D01*
X124602422Y-53743399D01*
X124602420Y-53743400D01*
X124408926Y-53878886D01*
X124408920Y-53878891D01*
X124241891Y-54045920D01*
X124241886Y-54045926D01*
X124106400Y-54239420D01*
X124106399Y-54239422D01*
X124006570Y-54453507D01*
X124006567Y-54453514D01*
X123992602Y-54505633D01*
X123956236Y-54565293D01*
X123893389Y-54595822D01*
X123824014Y-54587527D01*
X123770136Y-54543041D01*
X123758363Y-54518338D01*
X123757562Y-54518670D01*
X123755234Y-54513051D01*
X123755232Y-54513048D01*
X123755232Y-54513046D01*
X123657685Y-54330550D01*
X123577052Y-54232298D01*
X123526410Y-54170589D01*
X123403231Y-54069500D01*
X123366450Y-54039315D01*
X123183954Y-53941768D01*
X122985934Y-53881700D01*
X122985932Y-53881699D01*
X122985934Y-53881699D01*
X122780000Y-53861417D01*
X122574067Y-53881699D01*
X122376041Y-53941769D01*
X122280347Y-53992919D01*
X122211944Y-54007161D01*
X122146700Y-53982161D01*
X122134213Y-53971242D01*
X121301152Y-53138181D01*
X121267667Y-53076858D01*
X121272651Y-53007166D01*
X121314523Y-52951233D01*
X121379987Y-52926816D01*
X121388833Y-52926500D01*
X131150167Y-52926500D01*
X131217206Y-52946185D01*
G37*
G04 #@! TD.AperFunction*
G04 #@! TA.AperFunction,Conductor*
G36*
X156384000Y-55622498D02*
G01*
X156276315Y-55573320D01*
X156169763Y-55558000D01*
X156098237Y-55558000D01*
X155991685Y-55573320D01*
X155883999Y-55622498D01*
X155883999Y-53953501D01*
X155991685Y-54002680D01*
X156098237Y-54018000D01*
X156169763Y-54018000D01*
X156276315Y-54002680D01*
X156384000Y-53953501D01*
X156384000Y-55622498D01*
G37*
G04 #@! TD.AperFunction*
G04 #@! TA.AperFunction,Conductor*
G36*
X135825620Y-52440185D02*
G01*
X135846262Y-52456819D01*
X136825661Y-53436218D01*
X136859146Y-53497541D01*
X136854162Y-53567233D01*
X136812290Y-53623166D01*
X136746826Y-53647583D01*
X136705887Y-53643674D01*
X136492000Y-53586363D01*
X136492000Y-54633981D01*
X136377199Y-54581554D01*
X136275975Y-54567000D01*
X136208025Y-54567000D01*
X136106801Y-54581554D01*
X135992000Y-54633981D01*
X135992000Y-53586364D01*
X135991999Y-53586364D01*
X135778513Y-53643567D01*
X135778507Y-53643570D01*
X135564422Y-53743399D01*
X135564420Y-53743400D01*
X135370926Y-53878886D01*
X135370920Y-53878891D01*
X135203891Y-54045920D01*
X135203886Y-54045926D01*
X135068400Y-54239420D01*
X135068399Y-54239422D01*
X134968570Y-54453507D01*
X134968567Y-54453514D01*
X134954602Y-54505633D01*
X134918236Y-54565293D01*
X134855389Y-54595822D01*
X134786014Y-54587527D01*
X134732136Y-54543041D01*
X134720363Y-54518338D01*
X134719562Y-54518670D01*
X134717234Y-54513051D01*
X134717232Y-54513048D01*
X134717232Y-54513046D01*
X134619685Y-54330550D01*
X134539052Y-54232298D01*
X134488410Y-54170589D01*
X134365231Y-54069500D01*
X134328450Y-54039315D01*
X134145954Y-53941768D01*
X133947934Y-53881700D01*
X133947932Y-53881699D01*
X133947934Y-53881699D01*
X133742000Y-53861417D01*
X133536067Y-53881699D01*
X133338041Y-53941769D01*
X133242347Y-53992919D01*
X133173944Y-54007161D01*
X133108700Y-53982161D01*
X133096213Y-53971242D01*
X131757152Y-52632181D01*
X131723667Y-52570858D01*
X131728651Y-52501166D01*
X131770523Y-52445233D01*
X131835987Y-52420816D01*
X131844833Y-52420500D01*
X135758581Y-52420500D01*
X135825620Y-52440185D01*
G37*
G04 #@! TD.AperFunction*
G04 #@! TA.AperFunction,Conductor*
G36*
X120004745Y-49029454D02*
G01*
X120058623Y-49073939D01*
X120074593Y-49107447D01*
X120094768Y-49173954D01*
X120192315Y-49356450D01*
X120206465Y-49373692D01*
X120323589Y-49516410D01*
X120411167Y-49588282D01*
X120483550Y-49647685D01*
X120666046Y-49745232D01*
X120864066Y-49805300D01*
X120864065Y-49805300D01*
X120884347Y-49807297D01*
X121070000Y-49825583D01*
X121275934Y-49805300D01*
X121473954Y-49745232D01*
X121656450Y-49647685D01*
X121816410Y-49516410D01*
X121921897Y-49387872D01*
X121979640Y-49348539D01*
X122049485Y-49346668D01*
X122109254Y-49382855D01*
X122123178Y-49401263D01*
X122126080Y-49405951D01*
X122150826Y-49424639D01*
X122157311Y-49430282D01*
X124840847Y-52113819D01*
X124874332Y-52175142D01*
X124869348Y-52244834D01*
X124827476Y-52300767D01*
X124762012Y-52325184D01*
X124753166Y-52325500D01*
X120021834Y-52325500D01*
X119954795Y-52305815D01*
X119934153Y-52289181D01*
X117855301Y-50210329D01*
X117821816Y-50149006D01*
X117826800Y-50079314D01*
X117868672Y-50023381D01*
X117934136Y-49998964D01*
X117995387Y-50010266D01*
X118066507Y-50043429D01*
X118066516Y-50043433D01*
X118280000Y-50100634D01*
X118280000Y-49205501D01*
X118387685Y-49254680D01*
X118494237Y-49270000D01*
X118565763Y-49270000D01*
X118672315Y-49254680D01*
X118779999Y-49205501D01*
X118779999Y-50100633D01*
X118993483Y-50043433D01*
X118993492Y-50043429D01*
X119207578Y-49943600D01*
X119401082Y-49808105D01*
X119568105Y-49641082D01*
X119703600Y-49447578D01*
X119803429Y-49233492D01*
X119803433Y-49233483D01*
X119836158Y-49111350D01*
X119872522Y-49051690D01*
X119935369Y-49021160D01*
X120004745Y-49029454D01*
G37*
G04 #@! TD.AperFunction*
G04 #@! TA.AperFunction,Conductor*
G36*
X140324745Y-49029454D02*
G01*
X140378623Y-49073939D01*
X140394593Y-49107447D01*
X140414768Y-49173954D01*
X140512315Y-49356450D01*
X140526465Y-49373692D01*
X140643589Y-49516410D01*
X140731167Y-49588282D01*
X140803550Y-49647685D01*
X140986046Y-49745232D01*
X141184066Y-49805300D01*
X141184065Y-49805300D01*
X141202529Y-49807118D01*
X141390000Y-49825583D01*
X141595934Y-49805300D01*
X141793954Y-49745232D01*
X141976450Y-49647685D01*
X142136410Y-49516410D01*
X142151645Y-49497845D01*
X142209392Y-49458510D01*
X142279236Y-49456639D01*
X142339005Y-49492826D01*
X142369721Y-49555581D01*
X142371500Y-49576509D01*
X142371500Y-49786166D01*
X142351815Y-49853205D01*
X142335181Y-49873847D01*
X141140003Y-51069024D01*
X141078680Y-51102509D01*
X141022648Y-51101740D01*
X140972986Y-51089500D01*
X140972985Y-51089500D01*
X140815015Y-51089500D01*
X140815014Y-51089500D01*
X140661634Y-51127303D01*
X140521762Y-51200715D01*
X140403516Y-51305471D01*
X140313781Y-51435475D01*
X140313780Y-51435476D01*
X140257762Y-51583181D01*
X140238722Y-51739999D01*
X140238722Y-51740000D01*
X140257763Y-51896818D01*
X140294847Y-51994601D01*
X140300214Y-52064264D01*
X140267067Y-52125770D01*
X140205928Y-52159592D01*
X140136210Y-52154990D01*
X140091224Y-52126253D01*
X138175299Y-50210328D01*
X138141814Y-50149005D01*
X138146798Y-50079313D01*
X138188670Y-50023380D01*
X138254134Y-49998963D01*
X138315385Y-50010265D01*
X138386507Y-50043429D01*
X138386516Y-50043433D01*
X138600000Y-50100634D01*
X138600000Y-49205501D01*
X138707685Y-49254680D01*
X138814237Y-49270000D01*
X138885763Y-49270000D01*
X138992315Y-49254680D01*
X139100000Y-49205501D01*
X139100000Y-50100633D01*
X139313483Y-50043433D01*
X139313492Y-50043429D01*
X139527578Y-49943600D01*
X139721082Y-49808105D01*
X139888105Y-49641082D01*
X140023600Y-49447578D01*
X140123429Y-49233492D01*
X140123433Y-49233483D01*
X140156158Y-49111350D01*
X140192522Y-49051690D01*
X140255369Y-49021160D01*
X140324745Y-49029454D01*
G37*
G04 #@! TD.AperFunction*
G04 #@! TA.AperFunction,Conductor*
G36*
X141121287Y-45000185D02*
G01*
X141167042Y-45052989D01*
X141176986Y-45122147D01*
X141147961Y-45185703D01*
X141090244Y-45223160D01*
X141003159Y-45249577D01*
X140986043Y-45254769D01*
X140875898Y-45313643D01*
X140803550Y-45352315D01*
X140803548Y-45352316D01*
X140803547Y-45352317D01*
X140643589Y-45483589D01*
X140512317Y-45643547D01*
X140512316Y-45643548D01*
X140512315Y-45643550D01*
X140492451Y-45680713D01*
X140414769Y-45826043D01*
X140354699Y-46024067D01*
X140334417Y-46229999D01*
X140354699Y-46435932D01*
X140371087Y-46489955D01*
X140414768Y-46633954D01*
X140512315Y-46816450D01*
X140519418Y-46825105D01*
X140643589Y-46976410D01*
X140682905Y-47008675D01*
X140803550Y-47107685D01*
X140986046Y-47205232D01*
X141184066Y-47265300D01*
X141184065Y-47265300D01*
X141204347Y-47267297D01*
X141390000Y-47285583D01*
X141595934Y-47265300D01*
X141793954Y-47205232D01*
X141976450Y-47107685D01*
X142136410Y-46976410D01*
X142267685Y-46816450D01*
X142365232Y-46633954D01*
X142385406Y-46567446D01*
X142423702Y-46509010D01*
X142487514Y-46480553D01*
X142556581Y-46491112D01*
X142608975Y-46537336D01*
X142623841Y-46571349D01*
X142656567Y-46693486D01*
X142656570Y-46693492D01*
X142756399Y-46907578D01*
X142891894Y-47101082D01*
X143058917Y-47268105D01*
X143127053Y-47315815D01*
X143170678Y-47370393D01*
X143177870Y-47439891D01*
X143146348Y-47502246D01*
X143143610Y-47505071D01*
X142503948Y-48144734D01*
X142497464Y-48150376D01*
X142487771Y-48157696D01*
X142457343Y-48191072D01*
X142397630Y-48227351D01*
X142327783Y-48225588D01*
X142269977Y-48186342D01*
X142269855Y-48186194D01*
X142136410Y-48023589D01*
X141990047Y-47903474D01*
X141976450Y-47892315D01*
X141793954Y-47794768D01*
X141595934Y-47734700D01*
X141595932Y-47734699D01*
X141595934Y-47734699D01*
X141408463Y-47716235D01*
X141390000Y-47714417D01*
X141389999Y-47714417D01*
X141184067Y-47734699D01*
X140986043Y-47794769D01*
X140875898Y-47853643D01*
X140803550Y-47892315D01*
X140803548Y-47892316D01*
X140803547Y-47892317D01*
X140643589Y-48023589D01*
X140520354Y-48173754D01*
X140512315Y-48183550D01*
X140489845Y-48225588D01*
X140414767Y-48366046D01*
X140394593Y-48432552D01*
X140356296Y-48490990D01*
X140292483Y-48519447D01*
X140223416Y-48508886D01*
X140171023Y-48462661D01*
X140156158Y-48428649D01*
X140123433Y-48306516D01*
X140123429Y-48306507D01*
X140023600Y-48092422D01*
X140023599Y-48092420D01*
X139888113Y-47898926D01*
X139888108Y-47898920D01*
X139721082Y-47731894D01*
X139527578Y-47596399D01*
X139313492Y-47496570D01*
X139313486Y-47496567D01*
X139191349Y-47463841D01*
X139131689Y-47427476D01*
X139101160Y-47364629D01*
X139109455Y-47295253D01*
X139153940Y-47241375D01*
X139187444Y-47225407D01*
X139253954Y-47205232D01*
X139436450Y-47107685D01*
X139596410Y-46976410D01*
X139727685Y-46816450D01*
X139825232Y-46633954D01*
X139885300Y-46435934D01*
X139905583Y-46230000D01*
X139885300Y-46024066D01*
X139825232Y-45826046D01*
X139727685Y-45643550D01*
X139672241Y-45575991D01*
X139596410Y-45483589D01*
X139470794Y-45380500D01*
X139436450Y-45352315D01*
X139253954Y-45254768D01*
X139149755Y-45223160D01*
X139091318Y-45184863D01*
X139062862Y-45121051D01*
X139073422Y-45051984D01*
X139119646Y-44999591D01*
X139185752Y-44980500D01*
X141054248Y-44980500D01*
X141121287Y-45000185D01*
G37*
G04 #@! TD.AperFunction*
M02*
