M48
; DRILL file {KiCad 7.0.6-0} date 2023 August 09, Wednesday 22:12:51
; FORMAT={-:-/ absolute / inch / decimal}
; #@! TF.CreationDate,2023-08-09T22:12:51+01:00
; #@! TF.GenerationSoftware,Kicad,Pcbnew,7.0.6-0
; #@! TF.FileFunction,Plated,1,2,PTH
FMAT,2
INCH
; #@! TA.AperFunction,Plated,PTH,ViaDrill
T1C0.0236
; #@! TA.AperFunction,Plated,PTH,ComponentDrill
T2C0.0295
; #@! TA.AperFunction,Plated,PTH,ComponentDrill
T3C0.0315
; #@! TA.AperFunction,Plated,PTH,ComponentDrill
T4C0.0374
; #@! TA.AperFunction,Plated,PTH,ComponentDrill
T5C0.0394
; #@! TA.AperFunction,Plated,PTH,ComponentDrill
T6C0.0598
; #@! TA.AperFunction,Plated,PTH,ComponentDrill
T7C0.0701
%
G90
G05
T1
X4.142Y-3.372
X4.312Y-2.637
X4.312Y-2.837
X4.312Y-3.037
X5.547Y-2.037
X6.037Y-2.687
X6.037Y-2.837
X6.037Y-2.987
X6.037Y-3.137
T2
X4.3112Y-3.177
X4.3112Y-3.227
X4.3112Y-3.277
T3
X4.0074Y-2.1174
X4.0074Y-2.2174
X4.0074Y-2.3174
X4.0074Y-2.4174
X4.3074Y-2.1174
X4.3074Y-2.2174
X4.3074Y-2.3174
X4.3074Y-2.4174
T4
X4.2463Y-2.6402
X4.2463Y-2.7386
X4.2463Y-2.837
X4.2463Y-2.9354
X4.2463Y-3.0339
X4.637Y-2.167
X4.7354Y-2.167
X4.8339Y-2.167
X4.9323Y-2.167
X5.167Y-2.167
X5.2654Y-2.167
X5.3639Y-2.167
T5
X4.2576Y-3.417
X4.2665Y-1.8201
X4.2665Y-1.9201
X4.3078Y-3.7577
X4.3576Y-3.417
X4.3665Y-1.8201
X4.3665Y-1.9201
X4.4062Y-3.7577
X4.437Y-2.127
X4.437Y-2.227
X4.4576Y-3.417
X4.4665Y-1.8201
X4.4665Y-1.9201
X4.5665Y-1.8201
X4.5665Y-1.9201
X4.637Y-3.417
X4.6665Y-1.8201
X4.6665Y-1.9201
X4.6878Y-3.7577
X4.737Y-3.417
X4.7665Y-1.8201
X4.7665Y-1.9201
X4.7862Y-3.7577
X4.837Y-3.417
X4.8665Y-1.8201
X4.8665Y-1.9201
X4.9665Y-1.8201
X4.9665Y-1.9201
X5.017Y-3.417
X5.0665Y-1.8201
X5.0665Y-1.9201
X5.0678Y-3.7577
X5.117Y-3.417
X5.1662Y-3.7577
X5.1665Y-1.8201
X5.1665Y-1.9201
X5.217Y-3.417
X5.2665Y-1.8201
X5.2665Y-1.9201
X5.3665Y-1.8201
X5.3665Y-1.9201
X5.397Y-3.417
X5.4478Y-3.7577
X5.4665Y-1.8201
X5.4665Y-1.9201
X5.477Y-3.067
X5.477Y-3.167
X5.477Y-3.267
X5.497Y-3.417
X5.5462Y-3.7577
X5.557Y-2.7786
X5.557Y-2.877
X5.5665Y-1.8201
X5.5665Y-1.9201
X5.597Y-3.417
X5.6665Y-1.8201
X5.6665Y-1.9201
X5.747Y-2.112
X5.747Y-2.212
X5.747Y-2.312
X5.747Y-2.412
X5.747Y-2.512
X5.747Y-2.612
X5.7665Y-1.8201
X5.7665Y-1.9201
X5.8665Y-1.8201
X5.8665Y-1.9201
X5.947Y-2.107
X5.947Y-2.207
X5.947Y-2.307
X5.947Y-2.407
X5.947Y-2.507
X5.947Y-2.607
X5.9665Y-1.8201
X5.9665Y-1.9201
X6.047Y-2.107
X6.047Y-2.207
X6.047Y-2.307
X6.047Y-2.407
X6.047Y-2.507
X6.047Y-2.607
X6.0665Y-1.8201
X6.0665Y-1.9201
X6.147Y-2.107
X6.147Y-2.207
X6.147Y-2.307
X6.147Y-2.407
X6.147Y-2.507
X6.147Y-2.607
X6.1665Y-1.8201
X6.1665Y-1.9201
T6
X5.917Y-3.777
X6.117Y-3.777
T7
X5.937Y-3.3931
X5.937Y-3.527
X6.3276Y-3.3931
X6.3276Y-3.527
T0
M30
